{
.appVersion = "3192";
classes = (
{
automatic = 1;

glyphs = (
{
glyphname = A;
layers = (
{
anchors = (
{
name = bottom;
position = "{380, 0}";
},
{
name = ogonek;
position = "{665, 2}";
},
{
name = top;
position = "{380, 700}";
}
);
components = (
{
name = SerifBottomLeft;
transform = "{1, 0, 0, 1, 98, 0}";
},
{
name = SerifBottomRight;
transform = "{1, 0, 0, 1, 102, 0}";
},
{
name = SerifBottomLeft;
transform = "{1, 0, 0, 1, 658, 0}";
},
{
name = SerifBottomRight;
transform = "{1, 0, 0, 1, 662, 0}";
}
);
layerId = "A1468767-BE48-4A45-9F09-053256197B3B";
paths = (
{
closed = 1;
nodes = (
"91 0 LINE SMOOTH",
"95 0 OFFCURVE",
"97 2 OFFCURVE",
"98 5 CURVE",
"372 663 LINE SMOOTH",
"374 668 OFFCURVE",
"379 680 OFFCURVE",
"380 684 CURVE",
"381 680 OFFCURVE",
"386 668 OFFCURVE",
"388 663 CURVE SMOOTH",
"662 5 LINE",
"663 2 OFFCURVE",
"665 0 OFFCURVE",
"668 0 CURVE SMOOTH",
"677 0 LINE",
"385 700 LINE",
"375 700 LINE",
"83 0 LINE"
);
},
{
closed = 1;
nodes = (
"102 0 LINE",
"102 11 LINE",
"89 11 LINE",
"89 0 LINE"
);
},
{
closed = 1;
nodes = (
"565 250 LINE",
"563 260 LINE",
"196 260 LINE",
"194 250 LINE"
);
},
{
closed = 1;
nodes = (
"669 0 LINE",
"669 11 LINE",
"656 11 LINE",
"656 0 LINE"
);
}
);
userData = {
assembly = "SVTCA[0]	/* SetFreedomAndProjectionVectorToAxis */
PUSHW[ ]	/* 1 value pushed */
0 
RCVT[ ]	/* ReadCVT */
IF[ ]	/* If */
PUSHW[ ]	/* 1 value pushed */
10 
MDAP[1]	/* MoveDirectAbsPt */
ELSE[ ]	/* Else */
PUSHW[ ]	/* 2 values pushed */
10 11 
MIAP[0]	/* MoveIndirectAbsPt */
EIF[ ]	/* EndIf */
PUSHW[ ]	/* 1 value pushed */
0 
RCVT[ ]	/* ReadCVT */
IF[ ]	/* If */
PUSHW[ ]	/* 1 value pushed */
0 
MDAP[1]	/* MoveDirectAbsPt */
ELSE[ ]	/* Else */
PUSHW[ ]	/* 2 values pushed */
0 5 
MIAP[0]	/* MoveIndirectAbsPt */
EIF[ ]	/* EndIf */
PUSHW[ ]	/* 1 value pushed */
0 
RCVT[ ]	/* ReadCVT */
IF[ ]	/* If */
PUSHW[ ]	/* 1 value pushed */
8 
MDAP[1]	/* MoveDirectAbsPt */
ELSE[ ]	/* Else */
PUSHW[ ]	/* 2 values pushed */
8 5 
MIAP[0]	/* MoveIndirectAbsPt */
EIF[ ]	/* EndIf */
PUSHW[ ]	/* 4 values pushed */
13 1 4 4 
CALL[ ]	/* CallFunction */
IUP[0]	/* InterpolateUntPts */
IUP[1]	/* InterpolateUntPts */";
};
width = 760;
},
{
anchors = (
{
name = bottom;
position = "{407, 0}";
},
{
name = ogonek;
position = "{645, 2}";
},
{
name = top;
position = "{407, 729}";
}
);
components = (
{
name = SerifBottomLeft;
transform = "{1, 0, 0, 1, 85, 0}";
},
{
name = SerifBottomRight;
transform = "{1, 0, 0, 1, 242, 0}";
},
{
name = SerifBottomLeft;
transform = "{1, 0, 0, 1, 571, 0}";
},
{
name = SerifBottomRight;
transform = "{1, 0, 0, 1, 728, 0}";
}
);
layerId = "2C516476-8145-48E3-8501-3D313ADE77C9";
paths = (
{
closed = 1;
nodes = (
"170 0 LINE SMOOTH",
"198 0 OFFCURVE",
"218 18 OFFCURVE",
"225 37 CURVE",
"374 477 LINE SMOOTH",
"385 510 OFFCURVE",
"396 537 OFFCURVE",
"407 579 CURVE",
"417 538 OFFCURVE",
"429 507 OFFCURVE",
"439 478 CURVE SMOOTH",
"588 37 LINE SMOOTH",
"595 16 OFFCURVE",
"614 0 OFFCURVE",
"644 0 CURVE SMOOTH",
"775 0 LINE",
"493 729 LINE",
"320 729 LINE",
"38 0 LINE"
);
},
{
closed = 1;
nodes = (
"260 0 LINE",
"260 71 LINE",
"138 71 LINE",
"138 0 LINE"
);
},
{
closed = 1;
nodes = (
"574 190 LINE",
"564 305 LINE",
"238 305 LINE",
"228 190 LINE"
);
},
{
closed = 1;
nodes = (
"665 0 LINE",
"665 71 LINE",
"533 71 LINE",
"533 0 LINE"
);
}
);
userData = {
assembly = "NPUSHB[ ]	/* 12 values pushed */
15 14 13 12 11 9 6 5 2 0 5 7 
CALL[ ]	/* CallFunction */
MPPEM[ ]	/* MeasurePixelPerEm */
PUSHB[ ]	/* 1 value pushed */
94 
LT[ ]	/* LessThan */
IF[ ]	/* If */
NPUSHB[ ]	/* 29 values pushed */
19 1 4 3 1 30 0 4 0 1 0 4 1 0 2 38 0 3 3 11 31 2 1 0 0 12 0 32 4 
ELSE[ ]	/* Else */
MPPEM[ ]	/* MeasurePixelPerEm */
PUSHB[ ]	/* 1 value pushed */
232 
LT[ ]	/* LessThan */
IF[ ]	/* If */
NPUSHB[ ]	/* 40 values pushed */
19 1 4 3 1 30 0 3 4 3 52 2 1 0 1 0 53 0 4 1 1 4 0 0 35 0 4 4 1 0 2 36 0 1 4 1 0 2 33 6 
ELSE[ ]	/* Else */
NPUSHB[ ]	/* 46 values pushed */
19 1 4 3 1 30 0 3 4 3 52 0 2 1 0 1 2 0 50 0 0 0 51 0 4 1 1 4 0 0 35 0 4 4 1 0 2 36 0 1 4 1 0 2 33 7 
EIF[ ]	/* EndIf */
EIF[ ]	/* EndIf */
PUSHB[ ]	/* 1 value pushed */
56 
CALL[ ]	/* CallFunction */";
};
width = 813;
},
{
anchors = (
{
name = bottom;
position = "{378, 0}";
},
{
name = ogonek;
position = "{636, 2}";
},
{
name = top;
position = "{378, 717}";
}
);
components = (
{
name = SerifBottomLeft;
transform = "{1, 0, 0, 1, 85, 0}";
},
{
name = SerifBottomRight;
transform = "{1, 0, 0, 1, 150, 0}";
},
{
name = SerifBottomLeft;
transform = "{1, 0, 0, 1, 606, 0}";
},
{
name = SerifBottomRight;
transform = "{1, 0, 0, 1, 671, 0}";
}
);
layerId = "BF33A826-8254-4501-9165-758AB68FE84B";
paths = (
{
closed = 1;
nodes = (
"117 0 LINE SMOOTH",
"134 0 OFFCURVE",
"146 11 OFFCURVE",
"150 23 CURVE",
"357 557 LINE SMOOTH",
"364 576 OFFCURVE",
"370 598 OFFCURVE",
"378 625 CURVE",
"385 598 OFFCURVE",
"392 576 OFFCURVE",
"399 558 CURVE SMOOTH",
"606 23 LINE",
"611 10 OFFCURVE",
"622 0 OFFCURVE",
"639 0 CURVE SMOOTH",
"714 0 LINE",
"427 717 LINE",
"329 717 LINE",
"42 0 LINE"
);
},
{
closed = 1;
nodes = (
"169 0 LINE",
"169 62 LINE",
"116 62 LINE",
"116 0 LINE"
);
},
{
closed = 1;
nodes = (
"554 212 LINE",
"527 282 LINE",
"232 282 LINE",
"205 212 LINE"
);
},
{
closed = 1;
nodes = (
"643 0 LINE",
"643 62 LINE",
"590 62 LINE",
"590 0 LINE"
);
}
);
userData = {
assembly = "NPUSHB[ ]	/* 12 values pushed */
15 14 13 12 11 9 6 5 2 0 5 7 
CALL[ ]	/* CallFunction */
MPPEM[ ]	/* MeasurePixelPerEm */
PUSHB[ ]	/* 1 value pushed */
95 
LT[ ]	/* LessThan */
IF[ ]	/* If */
NPUSHB[ ]	/* 29 values pushed */
18 1 4 3 1 30 0 4 0 1 0 4 1 0 2 38 0 3 3 11 31 2 1 0 0 12 0 32 4 
ELSE[ ]	/* Else */
MPPEM[ ]	/* MeasurePixelPerEm */
PUSHB[ ]	/* 1 value pushed */
108 
LT[ ]	/* LessThan */
IF[ ]	/* If */
NPUSHB[ ]	/* 29 values pushed */
18 1 4 3 1 30 0 3 4 3 52 0 4 0 1 0 4 1 0 2 38 2 1 0 0 15 0 32 4 
ELSE[ ]	/* Else */
MPPEM[ ]	/* MeasurePixelPerEm */
PUSHB[ ]	/* 1 value pushed */
232 
LT[ ]	/* LessThan */
IF[ ]	/* If */
NPUSHB[ ]	/* 40 values pushed */
18 1 4 3 1 30 0 3 4 3 52 2 1 0 1 0 53 0 4 1 1 4 0 0 35 0 4 4 1 0 2 36 0 1 4 1 0 2 33 6 
ELSE[ ]	/* Else */
NPUSHB[ ]	/* 46 values pushed */
18 1 4 3 1 30 0 3 4 3 52 0 2 1 0 1 2 0 50 0 0 0 51 0 4 1 1 4 0 0 35 0 4 4 1 0 2 36 0 1 4 1 0 2 33 7 
EIF[ ]	/* EndIf */
EIF[ ]	/* EndIf */
EIF[ ]	/* EndIf */
PUSHB[ ]	/* 1 value pushed */
56 
CALL[ ]	/* CallFunction */";
};
width = 756;
},
{
associatedMasterId = "BF33A826-8254-4501-9165-758AB68FE84B";
layerId = "B4FF3473-ADCA-472E-8E31-2DFB44C61FA2";
name = "1.4";
paths = (
{
closed = 1;
nodes = (
"672 68 LINE",
"413 716 LINE",
"315 716 LINE",
"55 68 LINE",
"15 56 LINE",
"7 54 OFFCURVE",
"2 49 OFFCURVE",
"2 40 CURVE SMOOTH",
"2 0 LINE",
"207 0 LINE",
"207 40 LINE SMOOTH",
"207 49 OFFCURVE",
"203 54 OFFCURVE",
"194 56 CURVE",
"153 68 LINE",
"209 212 LINE",
"518 212 LINE",
"574 68 LINE",
"533 56 LINE",
"524 54 OFFCURVE",
"519 49 OFFCURVE",
"519 40 CURVE SMOOTH",
"519 0 LINE",
"725 0 LINE",
"725 40 LINE SMOOTH",
"725 49 OFFCURVE",
"720 54 OFFCURVE",
"712 56 CURVE"
);
},
{
closed = 1;
nodes = (
"236 282 LINE",
"343 557 LINE SMOOTH",
"350 576 OFFCURVE",
"356 598 OFFCURVE",
"363 625 CURVE",
"371 598 OFFCURVE",
"378 575 OFFCURVE",
"385 557 CURVE",
"491 282 LINE"
);
}
);
userData = {
assembly = "NPUSHB[ ]	/* 12 values pushed */
15 14 13 12 11 9 6 5 2 0 5 7 
CALL[ ]	/* CallFunction */
MPPEM[ ]	/* MeasurePixelPerEm */
PUSHB[ ]	/* 1 value pushed */
95 
LT[ ]	/* LessThan */
IF[ ]	/* If */
NPUSHB[ ]	/* 29 values pushed */
18 1 4 3 1 30 0 4 0 1 0 4 1 0 2 38 0 3 3 11 31 2 1 0 0 12 0 32 4 
ELSE[ ]	/* Else */
MPPEM[ ]	/* MeasurePixelPerEm */
PUSHB[ ]	/* 1 value pushed */
108 
LT[ ]	/* LessThan */
IF[ ]	/* If */
NPUSHB[ ]	/* 29 values pushed */
18 1 4 3 1 30 0 3 4 3 52 0 4 0 1 0 4 1 0 2 38 2 1 0 0 15 0 32 4 
ELSE[ ]	/* Else */
MPPEM[ ]	/* MeasurePixelPerEm */
PUSHB[ ]	/* 1 value pushed */
232 
LT[ ]	/* LessThan */
IF[ ]	/* If */
NPUSHB[ ]	/* 40 values pushed */
18 1 4 3 1 30 0 3 4 3 52 2 1 0 1 0 53 0 4 1 1 4 0 0 35 0 4 4 1 0 2 36 0 1 4 1 0 2 33 6 
ELSE[ ]	/* Else */
NPUSHB[ ]	/* 46 values pushed */
18 1 4 3 1 30 0 3 4 3 52 0 2 1 0 1 2 0 50 0 0 0 51 0 4 1 1 4 0 0 35 0 4 4 1 0 2 36 0 1 4 1 0 2 33 7 
EIF[ ]	/* EndIf */
EIF[ ]	/* EndIf */
EIF[ ]	/* EndIf */
PUSHB[ ]	/* 1 value pushed */
56 
CALL[ ]	/* CallFunction */";
};
width = 725;
},
{
associatedMasterId = "BF33A826-8254-4501-9165-758AB68FE84B";
layerId = "E5DD44B5-C3F5-4E3B-82F7-BE8D4482A099";
name = "Jan 24 23, 21:44";
paths = (
{
closed = 1;
nodes = (
"292 717 LINE",
"5 0 LINE",
"80 0 LINE SMOOTH",
"97.333 0 OFFCURVE",
"109 11 OFFCURVE",
"113 23 CURVE SMOOTH",
"180 196 LINE",
"502 196 LINE",
"569 23 LINE SMOOTH",
"574.333 9.667 OFFCURVE",
"584.667 0 OFFCURVE",
"602 0 CURVE SMOOTH",
"677 0 LINE",
"390 717 LINE",
"390 717 LINE"
);
},
{
closed = 1;
nodes = (
"323.333 565.667 OFFCURVE",
"326.667 575.833 OFFCURVE",
"330 587.5 CURVE SMOOTH",
"333.333 599.167 OFFCURVE",
"337 611.667 OFFCURVE",
"341 625 CURVE",
"347.667 598.333 OFFCURVE",
"354.667 576 OFFCURVE",
"362 558 CURVE SMOOTH",
"475 266 LINE",
"207 266 LINE",
"320 557 LINE",
"320 557 LINE"
);
}
);
userData = {
assembly = "NPUSHB[ ]	/* 12 values pushed */
15 14 13 12 11 9 6 5 2 0 5 7 
CALL[ ]	/* CallFunction */
MPPEM[ ]	/* MeasurePixelPerEm */
PUSHB[ ]	/* 1 value pushed */
95 
LT[ ]	/* LessThan */
IF[ ]	/* If */
NPUSHB[ ]	/* 29 values pushed */
18 1 4 3 1 30 0 4 0 1 0 4 1 0 2 38 0 3 3 11 31 2 1 0 0 12 0 32 4 
ELSE[ ]	/* Else */
MPPEM[ ]	/* MeasurePixelPerEm */
PUSHB[ ]	/* 1 value pushed */
108 
LT[ ]	/* LessThan */
IF[ ]	/* If */
NPUSHB[ ]	/* 29 values pushed */
18 1 4 3 1 30 0 3 4 3 52 0 4 0 1 0 4 1 0 2 38 2 1 0 0 15 0 32 4 
ELSE[ ]	/* Else */
MPPEM[ ]	/* MeasurePixelPerEm */
PUSHB[ ]	/* 1 value pushed */
232 
LT[ ]	/* LessThan */
IF[ ]	/* If */
NPUSHB[ ]	/* 40 values pushed */
18 1 4 3 1 30 0 3 4 3 52 2 1 0 1 0 53 0 4 1 1 4 0 0 35 0 4 4 1 0 2 36 0 1 4 1 0 2 33 6 
ELSE[ ]	/* Else */
NPUSHB[ ]	/* 46 values pushed */
18 1 4 3 1 30 0 3 4 3 52 0 2 1 0 1 2 0 50 0 0 0 51 0 4 1 1 4 0 0 35 0 4 4 1 0 2 36 0 1 4 1 0 2 33 7 
EIF[ ]	/* EndIf */
EIF[ ]	/* EndIf */
EIF[ ]	/* EndIf */
PUSHB[ ]	/* 1 value pushed */
56 
CALL[ ]	/* CallFunction */";
};
width = 680;
}
);
leftKerningGroup = A;
note = A;
rightKerningGroup = A;
unicode = 0041;
},
{
glyphname = "Alpha-latin";
layers = (
{
anchors = (
{
name = bottom;
position = "{370, 0}";
},
{
name = top;
position = "{370, 700}";
}
);
components = (
{
name = SerifBottomRight;
transform = "{1, 0, 0, 1, 616, 0}";
}
);
layerId = "A1468767-BE48-4A45-9F09-053256197B3B";
paths = (
{
closed = 1;
nodes = (
"476 -8 OFFCURVE",
"553 29 OFFCURVE",
"616 89 CURVE",
"612 93 LINE SMOOTH",
"611 94 OFFCURVE",
"610 95 OFFCURVE",
"609 95 CURVE SMOOTH",
"607 95 OFFCURVE",
"606 94 OFFCURVE",
"604 92 CURVE SMOOTH",
"555 42 OFFCURVE",
"478 2 OFFCURVE",
"373 2 CURVE SMOOTH",
"176 2 OFFCURVE",
"55 148 OFFCURVE",
"55 350 CURVE SMOOTH",
"55 553 OFFCURVE",
"175 698 OFFCURVE",
"388 698 CURVE SMOOTH",
"478 698 OFFCURVE",
"560 672 OFFCURVE",
"604 640 CURVE",
"613 639 LINE",
"613 645 LINE",
"571 683 OFFCURVE",
"475 708 OFFCURVE",
"384 708 CURVE SMOOTH",
"276 708 OFFCURVE",
"195 673 OFFCURVE",
"136 610 CURVE SMOOTH",
"77 546 OFFCURVE",
"43 457 OFFCURVE",
"43 350 CURVE SMOOTH",
"43 239 OFFCURVE",
"78 151 OFFCURVE",
"136 89 CURVE SMOOTH",
"194 27 OFFCURVE",
"273 -8 OFFCURVE",
"373 -8 CURVE SMOOTH"
);
},
{
closed = 1;
nodes = (
"616 0 LINE",
"616 700 LINE",
"611 700 LINE SMOOTH",
"609 700 OFFCURVE",
"607 698 OFFCURVE",
"607 696 CURVE SMOOTH",
"604 648 LINE",
"604 85 LINE",
"607 4 LINE SMOOTH",
"607 2 OFFCURVE",
"609 0 OFFCURVE",
"611 0 CURVE SMOOTH"
);
}
);
width = 740;
},
{
anchors = (
{
name = bottom;
position = "{376, 0}";
},
{
name = top;
position = "{370, 717}";
}
);
components = (
{
name = SerifBottomRight;
transform = "{1, 0, 0, 1, 636, 0}";
}
);
layerId = "BF33A826-8254-4501-9165-758AB68FE84B";
paths = (
{
closed = 1;
nodes = (
"495 -8 OFFCURVE",
"554 38 OFFCURVE",
"607 132 CURVE",
"592 142 LINE SMOOTH",
"584 148 OFFCURVE",
"582 148 OFFCURVE",
"578 148 CURVE SMOOTH",
"572 148 OFFCURVE",
"567 146 OFFCURVE",
"561 141 CURVE SMOOTH",
"508 93 OFFCURVE",
"454 76 OFFCURVE",
"390 76 CURVE SMOOTH",
"217 76 OFFCURVE",
"129 198 OFFCURVE",
"129 356 CURVE SMOOTH",
"129 527 OFFCURVE",
"233 641 OFFCURVE",
"393 641 CURVE SMOOTH",
"451 641 OFFCURVE",
"502 626 OFFCURVE",
"544 612 CURVE",
"614 599 LINE",
"604 644 LINE",
"527 695 OFFCURVE",
"467 725 OFFCURVE",
"386 725 CURVE SMOOTH",
"283 725 OFFCURVE",
"194 687 OFFCURVE",
"130 622 CURVE SMOOTH",
"67 558 OFFCURVE",
"30 466 OFFCURVE",
"30 356 CURVE SMOOTH",
"30 261 OFFCURVE",
"58 169 OFFCURVE",
"118 100 CURVE SMOOTH",
"180 29 OFFCURVE",
"269 -8 OFFCURVE",
"376 -8 CURVE SMOOTH"
);
},
{
closed = 1;
nodes = (
"635 0 LINE",
"635 717 LINE",
"579 717 LINE SMOOTH",
"562 717 OFFCURVE",
"550 710 OFFCURVE",
"543 693 CURVE SMOOTH",
"538 681 LINE",
"538 58 LINE",
"547 26 LINE SMOOTH",
"552 9 OFFCURVE",
"563 0 OFFCURVE",
"581 0 CURVE SMOOTH"
);
}
);
width = 741;
},
{
anchors = (
{
name = bottom;
position = "{394, 0}";
},
{
name = top;
position = "{394, 749}";
}
);
components = (
{
name = SerifBottomRight;
transform = "{1, 0, 0, 1, 691, 0}";
}
);
layerId = "2C516476-8145-48E3-8501-3D313ADE77C9";
paths = (
{
closed = 1;
nodes = (
"487 -8 OFFCURVE",
"572 76 OFFCURVE",
"637 159 CURVE",
"570 179 LINE SMOOTH",
"562 181 OFFCURVE",
"555 189 OFFCURVE",
"547 189 CURVE SMOOTH",
"536 189 OFFCURVE",
"526 183 OFFCURVE",
"519 177 CURVE SMOOTH",
"482 145 OFFCURVE",
"438 131 OFFCURVE",
"390 131 CURVE SMOOTH",
"263 131 OFFCURVE",
"188 227 OFFCURVE",
"188 365 CURVE SMOOTH",
"188 504 OFFCURVE",
"265 597 OFFCURVE",
"406 597 CURVE SMOOTH",
"455 597 OFFCURVE",
"525 586 OFFCURVE",
"564 561 CURVE",
"630 578 LINE",
"630 631 LINE",
"577 667 OFFCURVE",
"491 739 OFFCURVE",
"375 739 CURVE SMOOTH",
"290 739 OFFCURVE",
"193 700 OFFCURVE",
"121 631 CURVE SMOOTH",
"54 567 OFFCURVE",
"15 474 OFFCURVE",
"15 363 CURVE SMOOTH",
"15 254 OFFCURVE",
"52 159 OFFCURVE",
"114 94 CURVE SMOOTH",
"173 32 OFFCURVE",
"264 -8 OFFCURVE",
"366 -8 CURVE SMOOTH"
);
},
{
closed = 1;
nodes = (
"691 0 LINE",
"691 729 LINE",
"581 729 LINE SMOOTH",
"560 729 OFFCURVE",
"545 721 OFFCURVE",
"532 705 CURVE SMOOTH",
"521 691 LINE",
"521 56 LINE",
"536 28 LINE SMOOTH",
"546 9 OFFCURVE",
"561 0 OFFCURVE",
"583 0 CURVE SMOOTH"
);
}
);
width = 788;
}
);
leftKerningGroup = C;
leftMetricsKey = C;
rightKerningGroup = I;
rightMetricsKey = I;
unicode = 2C6D;
},
{
glyphname = AE;
layers = (
{
anchors = (
{
name = bottom;
position = "{509, 0}";
},
{
name = top;
position = "{503, 700}";
}
);
components = (
{
name = SerifUpLeftCaps;
transform = "{1, 0, 0, 1, 909, 11}";
},
{
name = SerifUpRightCaps;
transform = "{-1, 0, 0, -1, 908, 689}";
},
{
name = SerifSpurLeft;
transform = "{1, 0, 0, 1, 455, 700}";
},
{
name = SerifBottomLeft;
transform = "{1, 0, 0, 1, 550, 0}";
},
{
name = SerifBottomRight;
transform = "{1, 0, 0, 1, 75, 0}";
},
{
name = SerifBottomLeft;
transform = "{1, 0, 0, 1, 71, 0}";
}
);
layerId = "A1468767-BE48-4A45-9F09-053256197B3B";
paths = (
{
closed = 1;
nodes = (
"63 0 LINE SMOOTH",
"66 0 OFFCURVE",
"68 1 OFFCURVE",
"70 4 CURVE",
"448 663 LINE",
"454 674 OFFCURVE",
"457 680 OFFCURVE",
"461 689 CURVE",
"550 0 LINE",
"908 0 LINE",
"909 11 LINE",
"560 11 LINE",
"516 350 LINE",
"820 350 LINE",
"820 361 LINE",
"514 361 LINE",
"472 689 LINE",
"908 689 LINE",
"908 700 LINE",
"455 700 LINE",
"53 0 LINE"
);
},
{
closed = 1;
nodes = (
"523 250 LINE",
"521 260 LINE",
"207 260 LINE",
"205 250 LINE"
);
}
);
userData = {
assembly = "SVTCA[0]	/* SetFreedomAndProjectionVectorToAxis */
PUSHW[ ]	/* 1 value pushed */
0 
RCVT[ ]	/* ReadCVT */
IF[ ]	/* If */
PUSHW[ ]	/* 1 value pushed */
0 
MDAP[1]	/* MoveDirectAbsPt */
ELSE[ ]	/* Else */
PUSHW[ ]	/* 2 values pushed */
0 11 
MIAP[0]	/* MoveIndirectAbsPt */
EIF[ ]	/* EndIf */
PUSHW[ ]	/* 1 value pushed */
0 
RCVT[ ]	/* ReadCVT */
IF[ ]	/* If */
PUSHW[ ]	/* 1 value pushed */
10 
MDAP[1]	/* MoveDirectAbsPt */
ELSE[ ]	/* Else */
PUSHW[ ]	/* 2 values pushed */
10 5 
MIAP[0]	/* MoveIndirectAbsPt */
EIF[ ]	/* EndIf */
PUSHW[ ]	/* 1 value pushed */
0 
RCVT[ ]	/* ReadCVT */
IF[ ]	/* If */
PUSHW[ ]	/* 1 value pushed */
16 
MDAP[1]	/* MoveDirectAbsPt */
ELSE[ ]	/* Else */
PUSHW[ ]	/* 2 values pushed */
16 5 
MIAP[0]	/* MoveIndirectAbsPt */
EIF[ ]	/* EndIf */
PUSHW[ ]	/* 4 values pushed */
19 1 12 4 
CALL[ ]	/* CallFunction */
PUSHW[ ]	/* 4 values pushed */
5 1 6 4 
CALL[ ]	/* CallFunction */
PUSHW[ ]	/* 1 value pushed */
0 
SRP0[ ]	/* SetRefPoint0 */
PUSHW[ ]	/* 2 values pushed */
2 1 
MIRP[10100]	/* MoveIndirectRelPt */
PUSHW[ ]	/* 1 value pushed */
10 
SRP0[ ]	/* SetRefPoint0 */
PUSHW[ ]	/* 2 values pushed */
8 1 
MIRP[10100]	/* MoveIndirectRelPt */
IUP[0]	/* InterpolateUntPts */
IUP[1]	/* InterpolateUntPts */";
};
width = 957;
},
{
anchors = (
{
name = bottom;
position = "{465, 0}";
},
{
name = top;
position = "{465, 729}";
}
);
components = (
{
name = SerifUpLeftCaps;
transform = "{1, 0, 0, 1, 931, 130}";
},
{
name = SerifUpRightCaps;
transform = "{-1, 0, 0, -1, 931, 599}";
},
{
name = SerifSpurLeft;
transform = "{1, 0, 0, 1, 381, 729}";
},
{
name = SerifBottomLeft;
transform = "{1, 0, 0, 1, 502, 0}";
},
{
name = SerifBottomRight;
transform = "{1, 0, 0, 1, 210, 0}";
},
{
name = SerifBottomLeft;
transform = "{1, 0, 0, 1, 66, 0}";
}
);
layerId = "2C516476-8145-48E3-8501-3D313ADE77C9";
paths = (
{
closed = 1;
nodes = (
"193 0 LINE SMOOTH",
"197 0 OFFCURVE",
"194 15 OFFCURVE",
"204 37 CURVE",
"408 503 LINE SMOOTH",
"420 531 OFFCURVE",
"435 565 OFFCURVE",
"448 605 CURVE",
"521 0 LINE",
"931 0 LINE",
"931 130 LINE",
"665 130 LINE",
"644 304 LINE",
"856 304 LINE",
"856 429 LINE",
"629 429 LINE",
"609 599 LINE",
"931 599 LINE",
"931 729 LINE",
"371 729 LINE",
"13 0 LINE"
);
},
{
closed = 1;
nodes = (
"553 190 LINE",
"543 305 LINE",
"217 305 LINE",
"207 190 LINE"
);
}
);
userData = {
assembly = "NPUSHB[ ]	/* 20 values pushed */
20 19 18 16 13 12 11 10 9 8 7 6 5 4 3 2 1 0 9 7 
CALL[ ]	/* CallFunction */
MPPEM[ ]	/* MeasurePixelPerEm */
PUSHB[ ]	/* 1 value pushed */
94 
LT[ ]	/* LessThan */
IF[ ]	/* If */
NPUSHB[ ]	/* 53 values pushed */
21 1 1 0 1 30 0 2 0 3 8 2 3 0 0 38 0 8 0 6 4 8 6 0 0 38 0 1 1 0 0 0 36 0 0 0 11 31 0 4 4 5 1 0 36 7 1 5 5 12 5 32 7 
ELSE[ ]	/* Else */
MPPEM[ ]	/* MeasurePixelPerEm */
PUSHB[ ]	/* 1 value pushed */
232 
LT[ ]	/* LessThan */
IF[ ]	/* If */
NPUSHB[ ]	/* 60 values pushed */
21 1 1 0 1 30 0 0 0 1 2 0 1 0 0 38 0 2 0 3 8 2 3 0 0 38 0 8 0 6 4 8 6 0 0 38 0 4 5 5 4 0 0 35 0 4 4 5 1 0 36 7 1 5 4 5 1 0 33 7 
ELSE[ ]	/* Else */
NPUSHB[ ]	/* 67 values pushed */
21 1 1 0 1 30 0 7 4 5 4 7 5 50 0 0 0 1 2 0 1 0 0 38 0 2 0 3 8 2 3 0 0 38 0 8 0 6 4 8 6 0 0 38 0 4 7 5 4 0 0 35 0 4 4 5 0 0 36 0 5 4 5 0 0 33 8 
EIF[ ]	/* EndIf */
EIF[ ]	/* EndIf */
PUSHB[ ]	/* 1 value pushed */
56 
CALL[ ]	/* CallFunction */";
};
width = 964;
},
{
anchors = (
{
name = bottom;
position = "{453, 0}";
},
{
name = top;
position = "{453, 717}";
}
);
components = (
{
name = SerifUpLeftCaps;
transform = "{1, 0, 0, 1, 907, 79}";
},
{
name = SerifUpRightCaps;
transform = "{-1, 0, 0, -1, 907, 638}";
},
{
name = SerifSpurLeft;
transform = "{1, 0, 0, 1, 370, 717}";
},
{
name = SerifBottomLeft;
transform = "{1, 0, 0, 1, 521, 0}";
},
{
name = SerifBottomRight;
transform = "{1, 0, 0, 1, 135, 0}";
},
{
name = SerifBottomLeft;
transform = "{1, 0, 0, 1, 61, 0}";
}
);
layerId = "BF33A826-8254-4501-9165-758AB68FE84B";
paths = (
{
closed = 1;
nodes = (
"107 0 LINE SMOOTH",
"109 0 OFFCURVE",
"122 10 OFFCURVE",
"129 23 CURVE",
"413 572 LINE",
"426 597 OFFCURVE",
"435 623 OFFCURVE",
"441 643 CURVE",
"521 0 LINE",
"907 0 LINE",
"907 79 LINE",
"603 79 LINE",
"572 324 LINE",
"827 324 LINE",
"827 400 LINE",
"563 400 LINE",
"533 638 LINE",
"907 638 LINE",
"907 717 LINE",
"397 717 LINE",
"18 0 LINE"
);
},
{
closed = 1;
nodes = (
"529 212 LINE",
"502 282 LINE",
"207 282 LINE",
"180 212 LINE"
);
}
);
userData = {
assembly = "NPUSHB[ ]	/* 20 values pushed */
20 19 18 16 13 12 11 10 9 8 7 6 5 4 3 2 1 0 9 7 
CALL[ ]	/* CallFunction */
MPPEM[ ]	/* MeasurePixelPerEm */
PUSHB[ ]	/* 1 value pushed */
95 
LT[ ]	/* LessThan */
IF[ ]	/* If */
NPUSHB[ ]	/* 53 values pushed */
21 1 1 0 1 30 0 2 0 3 8 2 3 0 0 38 0 8 0 6 4 8 6 0 0 38 0 1 1 0 0 0 36 0 0 0 11 31 0 4 4 5 1 0 36 7 1 5 5 12 5 32 7 
ELSE[ ]	/* Else */
MPPEM[ ]	/* MeasurePixelPerEm */
PUSHB[ ]	/* 1 value pushed */
108 
LT[ ]	/* LessThan */
IF[ ]	/* If */
NPUSHB[ ]	/* 51 values pushed */
21 1 1 0 1 30 0 0 0 1 2 0 1 0 0 38 0 2 0 3 8 2 3 0 0 38 0 8 0 6 4 8 6 0 0 38 0 4 4 5 1 0 36 7 1 5 5 15 5 32 6 
ELSE[ ]	/* Else */
MPPEM[ ]	/* MeasurePixelPerEm */
PUSHB[ ]	/* 1 value pushed */
232 
LT[ ]	/* LessThan */
IF[ ]	/* If */
NPUSHB[ ]	/* 60 values pushed */
21 1 1 0 1 30 0 0 0 1 2 0 1 0 0 38 0 2 0 3 8 2 3 0 0 38 0 8 0 6 4 8 6 0 0 38 0 4 5 5 4 0 0 35 0 4 4 5 1 0 36 7 1 5 4 5 1 0 33 7 
ELSE[ ]	/* Else */
NPUSHB[ ]	/* 67 values pushed */
21 1 1 0 1 30 0 7 4 5 4 7 5 50 0 0 0 1 2 0 1 0 0 38 0 2 0 3 8 2 3 0 0 38 0 8 0 6 4 8 6 0 0 38 0 4 7 5 4 0 0 35 0 4 4 5 0 0 36 0 5 4 5 0 0 33 8 
EIF[ ]	/* EndIf */
EIF[ ]	/* EndIf */
EIF[ ]	/* EndIf */
PUSHB[ ]	/* 1 value pushed */
56 
CALL[ ]	/* CallFunction */";
};
width = 952;
}
);
leftKerningGroup = A;
note = AE;
rightKerningGroup = E;
rightMetricsKey = E;
unicode = 00C6;
},
{
glyphname = B;
layers = (
{
anchors = (
{
name = bottom;
position = "{300, 0}";
},
{
name = top;
position = "{300, 700}";
}
);
components = (
{
name = SerifBottomLeft;
transform = "{1, 0, 0, 1, 124, 0}";
},
{
name = SerifSpurLeft;
transform = "{1, 0, 0, 1, 124, 700}";
}
);
layerId = "A1468767-BE48-4A45-9F09-053256197B3B";
paths = (
{
closed = 1;
nodes = (
"333 0 LINE SMOOTH",
"473 0 OFFCURVE",
"560 62 OFFCURVE",
"560 184 CURVE SMOOTH",
"560 286 OFFCURVE",
"482 349 OFFCURVE",
"367 357 CURVE",
"457 368 OFFCURVE",
"527 441 OFFCURVE",
"527 526 CURVE SMOOTH",
"527 639 OFFCURVE",
"455 700 OFFCURVE",
"306 700 CURVE SMOOTH",
"124 700 LINE",
"124 0 LINE"
);
},
{
closed = 1;
nodes = (
"136 350 LINE",
"334 350 LINE SMOOTH",
"460 350 OFFCURVE",
"548 290 OFFCURVE",
"548 184 CURVE SMOOTH",
"548 67 OFFCURVE",
"465 10 OFFCURVE",
"333 10 CURVE SMOOTH",
"136 10 LINE"
);
},
{
closed = 1;
nodes = (
"136 690 LINE",
"306 690 LINE SMOOTH",
"449 690 OFFCURVE",
"516 630 OFFCURVE",
"516 526 CURVE SMOOTH",
"516 438 OFFCURVE",
"445 360 OFFCURVE",
"311 360 CURVE SMOOTH",
"136 360 LINE"
);
}
);
userData = {
assembly = "PUSHW[ ]	/* 4 values pushed */
22 3 0 4 
CALL[ ]	/* CallFunction */
PUSHW[ ]	/* 4 values pushed */
5 3 40 4 
CALL[ ]	/* CallFunction */
PUSHW[ ]	/* 4 values pushed */
15 3 28 4 
CALL[ ]	/* CallFunction */
PUSHW[ ]	/* 3 values pushed */
10 0 15 
SRP1[ ]	/* SetRefPoint1 */
SRP2[ ]	/* SetRefPoint2 */
IP[ ]	/* InterpolatePts */
PUSHW[ ]	/* 1 value pushed */
22 
SRP0[ ]	/* SetRefPoint0 */
PUSHW[ ]	/* 1 value pushed */
34 
MDRP[10000]	/* MoveDirectRelPt */
PUSHW[ ]	/* 1 value pushed */
15 
SRP0[ ]	/* SetRefPoint0 */
PUSHW[ ]	/* 1 value pushed */
46 
MDRP[11100]	/* MoveDirectRelPt */
SVTCA[0]	/* SetFreedomAndProjectionVectorToAxis */
PUSHW[ ]	/* 1 value pushed */
0 
RCVT[ ]	/* ReadCVT */
IF[ ]	/* If */
PUSHW[ ]	/* 1 value pushed */
1 
MDAP[1]	/* MoveDirectAbsPt */
ELSE[ ]	/* Else */
PUSHW[ ]	/* 2 values pushed */
1 11 
MIAP[0]	/* MoveIndirectAbsPt */
EIF[ ]	/* EndIf */
PUSHW[ ]	/* 1 value pushed */
0 
RCVT[ ]	/* ReadCVT */
IF[ ]	/* If */
PUSHW[ ]	/* 1 value pushed */
0 
MDAP[1]	/* MoveDirectAbsPt */
ELSE[ ]	/* Else */
PUSHW[ ]	/* 2 values pushed */
0 5 
MIAP[0]	/* MoveIndirectAbsPt */
EIF[ ]	/* EndIf */
PUSHW[ ]	/* 4 values pushed */
34 1 21 4 
CALL[ ]	/* CallFunction */
PUSHW[ ]	/* 1 value pushed */
0 
SRP0[ ]	/* SetRefPoint0 */
PUSHW[ ]	/* 2 values pushed */
22 1 
MIRP[10100]	/* MoveIndirectRelPt */
PUSHW[ ]	/* 1 value pushed */
1 
SRP0[ ]	/* SetRefPoint0 */
PUSHW[ ]	/* 2 values pushed */
43 1 
MIRP[10100]	/* MoveIndirectRelPt */
IUP[0]	/* InterpolateUntPts */
IUP[1]	/* InterpolateUntPts */";
};
width = 600;
},
{
anchors = (
{
name = bottom;
position = "{343, 0}";
},
{
name = top;
position = "{343, 749}";
}
);
components = (
{
name = SerifBottomLeft;
transform = "{1, 0, 0, 1, 97, 0}";
},
{
name = SerifSpurLeft;
transform = "{1, 0, 0, 1, 127, 729}";
}
);
layerId = "2C516476-8145-48E3-8501-3D313ADE77C9";
paths = (
{
closed = 1;
nodes = (
"388 0 LINE SMOOTH",
"554 0 OFFCURVE",
"661 87 OFFCURVE",
"661 220 CURVE SMOOTH",
"661 301 OFFCURVE",
"616 354 OFFCURVE",
"520 377 CURVE",
"603 407 OFFCURVE",
"644 462 OFFCURVE",
"644 532 CURVE SMOOTH",
"644 678 OFFCURVE",
"533 729 OFFCURVE",
"365 729 CURVE SMOOTH",
"97 729 LINE",
"97 0 LINE"
);
},
{
closed = 1;
nodes = (
"266 309 LINE",
"384 309 LINE SMOOTH",
"463 309 OFFCURVE",
"494 281 OFFCURVE",
"494 223 CURVE SMOOTH",
"494 169 OFFCURVE",
"466 128 OFFCURVE",
"385 128 CURVE SMOOTH",
"266 128 LINE"
);
},
{
closed = 1;
nodes = (
"266 602 LINE",
"365 602 LINE SMOOTH",
"440 602 OFFCURVE",
"475 581 OFFCURVE",
"475 512 CURVE SMOOTH",
"475 441 OFFCURVE",
"431 422 OFFCURVE",
"354 422 CURVE SMOOTH",
"266 422 LINE"
);
}
);
userData = {
assembly = "NPUSHB[ ]	/* 22 values pushed */
21 21 0 0 46 44 36 34 21 33 21 32 24 22 0 20 0 19 3 1 8 7 
CALL[ ]	/* CallFunction */
MPPEM[ ]	/* MeasurePixelPerEm */
PUSHB[ ]	/* 1 value pushed */
94 
LT[ ]	/* LessThan */
IF[ ]	/* If */
NPUSHB[ ]	/* 44 values pushed */
12 1 3 4 1 30 0 4 7 1 3 2 4 3 1 0 38 0 5 5 0 1 0 36 0 0 0 11 31 0 2 2 1 1 0 36 6 1 1 1 12 1 32 6 
ELSE[ ]	/* Else */
NPUSHB[ ]	/* 51 values pushed */
12 1 3 4 1 30 0 0 0 5 4 0 5 1 0 38 0 4 7 1 3 2 4 3 1 0 38 0 2 1 1 2 1 0 35 0 2 2 1 1 0 36 6 1 1 2 1 1 0 33 6 
EIF[ ]	/* EndIf */
PUSHB[ ]	/* 1 value pushed */
56 
CALL[ ]	/* CallFunction */";
};
width = 685;
},
{
anchors = (
{
name = bottom;
position = "{320, 0}";
},
{
name = top;
position = "{320, 737}";
}
);
components = (
{
name = SerifBottomLeft;
transform = "{1, 0, 0, 1, 105, 0}";
},
{
name = SerifSpurLeft;
transform = "{1, 0, 0, 1, 105, 717}";
}
);
layerId = "BF33A826-8254-4501-9165-758AB68FE84B";
paths = (
{
closed = 1;
nodes = (
"359 0 LINE SMOOTH",
"512 0 OFFCURVE",
"610 78 OFFCURVE",
"610 204 CURVE SMOOTH",
"610 293 OFFCURVE",
"556 348 OFFCURVE",
"452 369 CURVE",
"539 394 OFFCURVE",
"586 456 OFFCURVE",
"586 530 CURVE SMOOTH",
"586 654 OFFCURVE",
"499 717 OFFCURVE",
"334 717 CURVE SMOOTH",
"105 717 LINE",
"105 0 LINE"
);
},
{
closed = 1;
nodes = (
"202 327 LINE",
"357 327 LINE SMOOTH",
"462 327 OFFCURVE",
"515 280 OFFCURVE",
"515 207 CURVE SMOOTH",
"515 125 OFFCURVE",
"461 77 OFFCURVE",
"357 77 CURVE SMOOTH",
"202 77 LINE"
);
},
{
closed = 1;
nodes = (
"202 640 LINE",
"334 640 LINE SMOOTH",
"441 640 OFFCURVE",
"490 602 OFFCURVE",
"490 518 CURVE SMOOTH",
"490 441 OFFCURVE",
"432 396 OFFCURVE",
"330 396 CURVE SMOOTH",
"202 396 LINE"
);
}
);
userData = {
assembly = "NPUSHB[ ]	/* 22 values pushed */
21 21 0 0 42 40 34 32 21 31 21 30 24 22 0 20 0 19 3 1 8 7 
CALL[ ]	/* CallFunction */
MPPEM[ ]	/* MeasurePixelPerEm */
PUSHB[ ]	/* 1 value pushed */
95 
LT[ ]	/* LessThan */
IF[ ]	/* If */
NPUSHB[ ]	/* 44 values pushed */
12 1 3 4 1 30 0 4 7 1 3 2 4 3 1 0 38 0 5 5 0 1 0 36 0 0 0 11 31 0 2 2 1 1 0 36 6 1 1 1 12 1 32 6 
ELSE[ ]	/* Else */
MPPEM[ ]	/* MeasurePixelPerEm */
PUSHB[ ]	/* 1 value pushed */
108 
LT[ ]	/* LessThan */
IF[ ]	/* If */
NPUSHB[ ]	/* 42 values pushed */
12 1 3 4 1 30 0 0 0 5 4 0 5 1 0 38 0 4 7 1 3 2 4 3 1 0 38 0 2 2 1 1 0 36 6 1 1 1 15 1 32 5 
ELSE[ ]	/* Else */
NPUSHB[ ]	/* 51 values pushed */
12 1 3 4 1 30 0 0 0 5 4 0 5 1 0 38 0 4 7 1 3 2 4 3 1 0 38 0 2 1 1 2 1 0 35 0 2 2 1 1 0 36 6 1 1 2 1 1 0 33 6 
EIF[ ]	/* EndIf */
EIF[ ]	/* EndIf */
PUSHB[ ]	/* 1 value pushed */
56 
CALL[ ]	/* CallFunction */";
};
width = 640;
}
);
leftMetricsKey = H;
note = B;
rightKerningGroup = B;
unicode = 0042;
},
{
glyphname = Bhook;
layers = (
{
anchors = (
{
name = bottom;
position = "{412, 0}";
},
{
name = top;
position = "{412, 700}";
}
);
components = (
{
name = SerifBottomLeft;
transform = "{1, 0, 0, 1, 236, 0}";
},
{
name = hookleft_caps_part;
}
);
layerId = "A1468767-BE48-4A45-9F09-053256197B3B";
paths = (
{
closed = 1;
nodes = (
"445 0 LINE SMOOTH",
"585 0 OFFCURVE",
"672 62 OFFCURVE",
"672 184 CURVE SMOOTH",
"672 286 OFFCURVE",
"594 349 OFFCURVE",
"479 357 CURVE",
"569 368 OFFCURVE",
"639 441 OFFCURVE",
"639 526 CURVE SMOOTH",
"639 639 OFFCURVE",
"567 700 OFFCURVE",
"418 700 CURVE SMOOTH",
"236 700 LINE",
"236 0 LINE"
);
},
{
closed = 1;
nodes = (
"248 350 LINE",
"446 350 LINE SMOOTH",
"572 350 OFFCURVE",
"660 290 OFFCURVE",
"660 184 CURVE SMOOTH",
"660 67 OFFCURVE",
"577 10 OFFCURVE",
"445 10 CURVE SMOOTH",
"248 10 LINE"
);
},
{
closed = 1;
nodes = (
"248 690 LINE",
"418 690 LINE SMOOTH",
"561 690 OFFCURVE",
"628 630 OFFCURVE",
"628 526 CURVE SMOOTH",
"628 438 OFFCURVE",
"557 360 OFFCURVE",
"423 360 CURVE SMOOTH",
"248 360 LINE"
);
}
);
width = 712;
},
{
anchors = (
{
name = bottom;
position = "{456, 0}";
},
{
name = top;
position = "{456, 737}";
}
);
components = (
{
name = SerifBottomLeft;
transform = "{1, 0, 0, 1, 241, 0}";
},
{
name = hookleft_caps_part;
}
);
layerId = "BF33A826-8254-4501-9165-758AB68FE84B";
paths = (
{
closed = 1;
nodes = (
"495 0 LINE SMOOTH",
"648 0 OFFCURVE",
"746 78 OFFCURVE",
"746 204 CURVE SMOOTH",
"746 293 OFFCURVE",
"692 348 OFFCURVE",
"588 369 CURVE",
"675 394 OFFCURVE",
"722 456 OFFCURVE",
"722 530 CURVE SMOOTH",
"722 654 OFFCURVE",
"635 717 OFFCURVE",
"470 717 CURVE SMOOTH",
"241 717 LINE",
"241 0 LINE"
);
},
{
closed = 1;
nodes = (
"338 327 LINE",
"493 327 LINE SMOOTH",
"598 327 OFFCURVE",
"651 280 OFFCURVE",
"651 207 CURVE SMOOTH",
"651 125 OFFCURVE",
"597 77 OFFCURVE",
"493 77 CURVE SMOOTH",
"338 77 LINE"
);
},
{
closed = 1;
nodes = (
"338 640 LINE",
"470 640 LINE SMOOTH",
"577 640 OFFCURVE",
"626 602 OFFCURVE",
"626 518 CURVE SMOOTH",
"626 441 OFFCURVE",
"568 396 OFFCURVE",
"466 396 CURVE SMOOTH",
"338 396 LINE"
);
}
);
width = 776;
},
{
anchors = (
{
name = bottom;
position = "{492, 0}";
},
{
name = top;
position = "{492, 749}";
}
);
components = (
{
name = SerifBottomLeft;
transform = "{1, 0, 0, 1, 246, 0}";
},
{
name = hookleft_caps_part;
}
);
layerId = "2C516476-8145-48E3-8501-3D313ADE77C9";
paths = (
{
closed = 1;
nodes = (
"537 0 LINE SMOOTH",
"703 0 OFFCURVE",
"810 87 OFFCURVE",
"810 220 CURVE SMOOTH",
"810 301 OFFCURVE",
"765 354 OFFCURVE",
"669 377 CURVE",
"752 407 OFFCURVE",
"793 462 OFFCURVE",
"793 532 CURVE SMOOTH",
"793 678 OFFCURVE",
"682 729 OFFCURVE",
"514 729 CURVE SMOOTH",
"246 729 LINE",
"246 0 LINE"
);
},
{
closed = 1;
nodes = (
"415 309 LINE",
"533 309 LINE SMOOTH",
"612 309 OFFCURVE",
"643 281 OFFCURVE",
"643 223 CURVE SMOOTH",
"643 169 OFFCURVE",
"615 128 OFFCURVE",
"534 128 CURVE SMOOTH",
"415 128 LINE"
);
},
{
closed = 1;
nodes = (
"415 602 LINE",
"514 602 LINE SMOOTH",
"589 602 OFFCURVE",
"624 581 OFFCURVE",
"624 512 CURVE SMOOTH",
"624 441 OFFCURVE",
"580 422 OFFCURVE",
"503 422 CURVE SMOOTH",
"415 422 LINE"
);
}
);
width = 834;
}
);
rightMetricsKey = B;
unicode = 0181;
},
{
glyphname = C;
layers = (
{
anchors = (
{
name = bottom;
position = "{373, 0}";
},
{
name = top;
position = "{373, 700}";
}
);
components = (
{
name = SerifUpRightCaps;
transform = "{-1, 0, 0, -1, 613, 639}";
}
);
layerId = "A1468767-BE48-4A45-9F09-053256197B3B";
paths = (
{
closed = 1;
nodes = (
"476 -8 OFFCURVE",
"553 29 OFFCURVE",
"616 89 CURVE",
"612 93 LINE SMOOTH",
"611 94 OFFCURVE",
"610 95 OFFCURVE",
"609 95 CURVE SMOOTH",
"607 95 OFFCURVE",
"606 94 OFFCURVE",
"604 92 CURVE SMOOTH",
"555 43 OFFCURVE",
"478 2 OFFCURVE",
"373 2 CURVE SMOOTH",
"176 2 OFFCURVE",
"55 148 OFFCURVE",
"55 350 CURVE SMOOTH",
"55 553 OFFCURVE",
"175 698 OFFCURVE",
"388 698 CURVE SMOOTH",
"478 698 OFFCURVE",
"560 672 OFFCURVE",
"604 640 CURVE",
"613 639 LINE",
"613 645 LINE",
"571 683 OFFCURVE",
"475 708 OFFCURVE",
"384 708 CURVE SMOOTH",
"276 708 OFFCURVE",
"195 673 OFFCURVE",
"136 610 CURVE SMOOTH",
"77 546 OFFCURVE",
"43 457 OFFCURVE",
"43 350 CURVE SMOOTH",
"43 239 OFFCURVE",
"78 151 OFFCURVE",
"136 89 CURVE SMOOTH",
"194 27 OFFCURVE",
"273 -8 OFFCURVE",
"373 -8 CURVE SMOOTH"
);
}
);
userData = {
assembly = "PUSHW[ ]	/* 4 values pushed */
38 3 13 4 
CALL[ ]	/* CallFunction */
SVTCA[0]	/* SetFreedomAndProjectionVectorToAxis */
PUSHW[ ]	/* 1 value pushed */
0 
RCVT[ ]	/* ReadCVT */
IF[ ]	/* If */
PUSHW[ ]	/* 1 value pushed */
18 
MDAP[1]	/* MoveDirectAbsPt */
ELSE[ ]	/* Else */
PUSHW[ ]	/* 2 values pushed */
18 11 
MIAP[0]	/* MoveIndirectAbsPt */
EIF[ ]	/* EndIf */
PUSHW[ ]	/* 1 value pushed */
0 
RCVT[ ]	/* ReadCVT */
IF[ ]	/* If */
PUSHW[ ]	/* 1 value pushed */
8 
MDAP[1]	/* MoveDirectAbsPt */
ELSE[ ]	/* Else */
PUSHW[ ]	/* 2 values pushed */
8 5 
MIAP[0]	/* MoveIndirectAbsPt */
EIF[ ]	/* EndIf */
PUSHW[ ]	/* 4 values pushed */
23 2 26 4 
CALL[ ]	/* CallFunction */
PUSHW[ ]	/* 1 value pushed */
18 
SRP0[ ]	/* SetRefPoint0 */
PUSHW[ ]	/* 2 values pushed */
33 1 
MIRP[10100]	/* MoveIndirectRelPt */
PUSHW[ ]	/* 1 value pushed */
8 
SRP0[ ]	/* SetRefPoint0 */
PUSHW[ ]	/* 2 values pushed */
43 1 
MIRP[10100]	/* MoveIndirectRelPt */
IUP[0]	/* InterpolateUntPts */
IUP[1]	/* InterpolateUntPts */";
};
width = 658;
},
{
anchors = (
{
name = bottom;
position = "{379, 0}";
},
{
name = top;
position = "{369, 729}";
}
);
components = (
{
name = SerifUpRightCaps;
transform = "{-1, 0, 0, -1, 630, 578}";
}
);
layerId = "2C516476-8145-48E3-8501-3D313ADE77C9";
paths = (
{
closed = 1;
nodes = (
"487 -8 OFFCURVE",
"578 31 OFFCURVE",
"637 108 CURVE",
"570 179 LINE SMOOTH",
"563 186 OFFCURVE",
"555 189 OFFCURVE",
"547 189 CURVE SMOOTH",
"536 189 OFFCURVE",
"526 183 OFFCURVE",
"519 177 CURVE SMOOTH",
"482 145 OFFCURVE",
"438 131 OFFCURVE",
"390 131 CURVE SMOOTH",
"263 131 OFFCURVE",
"188 227 OFFCURVE",
"188 365 CURVE SMOOTH",
"188 504 OFFCURVE",
"265 597 OFFCURVE",
"406 597 CURVE SMOOTH",
"455 597 OFFCURVE",
"525 586 OFFCURVE",
"564 561 CURVE",
"630 578 LINE",
"630 679 LINE",
"577 707 OFFCURVE",
"496 738 OFFCURVE",
"398 738 CURVE SMOOTH",
"289 738 OFFCURVE",
"189 699 OFFCURVE",
"121 632 CURVE SMOOTH",
"54 567 OFFCURVE",
"15 473 OFFCURVE",
"15 362 CURVE SMOOTH",
"15 254 OFFCURVE",
"52 159 OFFCURVE",
"114 94 CURVE SMOOTH",
"173 32 OFFCURVE",
"260 -8 OFFCURVE",
"374 -8 CURVE SMOOTH"
);
}
);
userData = {
assembly = "NPUSHB[ ]	/* 18 values pushed */
1 0 44 42 34 32 27 25 18 16 8 6 0 50 1 50 7 7 
CALL[ ]	/* CallFunction */
MPPEM[ ]	/* MeasurePixelPerEm */
PUSHB[ ]	/* 1 value pushed */
94 
LT[ ]	/* LessThan */
IF[ ]	/* If */
NPUSHB[ ]	/* 52 values pushed */
22 1 4 2 4 1 1 5 2 30 0 3 4 0 4 3 0 50 6 1 0 5 4 0 5 48 0 4 4 2 1 0 36 0 2 2 17 31 0 5 5 1 1 0 36 0 1 1 18 1 32 7 
ELSE[ ]	/* Else */
NPUSHB[ ]	/* 59 values pushed */
22 1 4 2 4 1 1 5 2 30 0 3 4 0 4 3 0 50 6 1 0 5 4 0 5 48 0 2 0 4 3 2 4 1 0 38 0 5 1 1 5 1 0 35 0 5 5 1 1 0 36 0 1 5 1 1 0 33 7 
EIF[ ]	/* EndIf */
PUSHB[ ]	/* 1 value pushed */
56 
CALL[ ]	/* CallFunction */";
};
width = 668;
},
{
anchors = (
{
name = bottom;
position = "{376, 0}";
},
{
name = top;
position = "{370, 717}";
}
);
components = (
{
name = SerifUpRightCaps;
transform = "{-1, 0, 0, -1, 614, 599}";
}
);
layerId = "BF33A826-8254-4501-9165-758AB68FE84B";
paths = (
{
closed = 1;
nodes = (
"495 -8 OFFCURVE",
"577 38 OFFCURVE",
"630 100 CURVE",
"592 142 LINE SMOOTH",
"587 147 OFFCURVE",
"582 148 OFFCURVE",
"578 148 CURVE SMOOTH",
"572 148 OFFCURVE",
"567 146 OFFCURVE",
"561 141 CURVE SMOOTH",
"508 93 OFFCURVE",
"454 76 OFFCURVE",
"390 76 CURVE SMOOTH",
"217 76 OFFCURVE",
"129 198 OFFCURVE",
"129 356 CURVE SMOOTH",
"129 527 OFFCURVE",
"233 641 OFFCURVE",
"393 641 CURVE SMOOTH",
"451 641 OFFCURVE",
"502 626 OFFCURVE",
"544 612 CURVE",
"614 599 LINE",
"614 672 LINE",
"537 701 OFFCURVE",
"467 725 OFFCURVE",
"386 725 CURVE SMOOTH",
"283 725 OFFCURVE",
"194 687 OFFCURVE",
"130 622 CURVE SMOOTH",
"67 558 OFFCURVE",
"30 466 OFFCURVE",
"30 356 CURVE SMOOTH",
"30 261 OFFCURVE",
"58 169 OFFCURVE",
"118 100 CURVE SMOOTH",
"180 29 OFFCURVE",
"269 -8 OFFCURVE",
"376 -8 CURVE SMOOTH"
);
}
);
userData = {
assembly = "NPUSHB[ ]	/* 18 values pushed */
1 0 41 39 31 29 24 22 17 15 7 5 0 46 1 46 7 7 
CALL[ ]	/* CallFunction */
MPPEM[ ]	/* MeasurePixelPerEm */
PUSHB[ ]	/* 1 value pushed */
95 
LT[ ]	/* LessThan */
IF[ ]	/* If */
NPUSHB[ ]	/* 52 values pushed */
19 1 3 4 3 1 5 0 2 30 0 3 4 0 4 3 0 50 6 1 0 5 4 0 5 48 0 4 4 2 1 0 36 0 2 2 17 31 0 5 5 1 1 0 36 0 1 1 18 1 32 7 
ELSE[ ]	/* Else */
MPPEM[ ]	/* MeasurePixelPerEm */
PUSHB[ ]	/* 1 value pushed */
108 
LT[ ]	/* LessThan */
IF[ ]	/* If */
NPUSHB[ ]	/* 50 values pushed */
19 1 3 4 3 1 5 0 2 30 0 3 4 0 4 3 0 50 6 1 0 5 4 0 5 48 0 2 0 4 3 2 4 1 0 38 0 5 5 1 1 0 36 0 1 1 21 1 32 6 
ELSE[ ]	/* Else */
NPUSHB[ ]	/* 59 values pushed */
19 1 3 4 3 1 5 0 2 30 0 3 4 0 4 3 0 50 6 1 0 5 4 0 5 48 0 2 0 4 3 2 4 1 0 38 0 5 1 1 5 1 0 35 0 5 5 1 1 0 36 0 1 5 1 1 0 33 7 
EIF[ ]	/* EndIf */
EIF[ ]	/* EndIf */
PUSHB[ ]	/* 1 value pushed */
56 
CALL[ ]	/* CallFunction */";
};
width = 669;
},
{
associatedMasterId = "A1468767-BE48-4A45-9F09-053256197B3B";
layerId = "F1F24019-78CA-4986-A76E-5F267CDC180B";
name = "Jan 15 23, 17:19";
paths = (
{
closed = 1;
nodes = (
"536 699 OFFCURVE",
"460 715 OFFCURVE",
"394 715 CURVE SMOOTH",
"188 715 OFFCURVE",
"48 569 OFFCURVE",
"48 354 CURVE SMOOTH",
"48 146 OFFCURVE",
"177 -8 OFFCURVE",
"380 -8 CURVE SMOOTH",
"479 -8 OFFCURVE",
"566 24 OFFCURVE",
"633 94 CURVE",
"613 115 LINE SMOOTH",
"607 121 OFFCURVE",
"601 119 OFFCURVE",
"595 114 CURVE",
"534 58 OFFCURVE",
"469 36 OFFCURVE",
"384 36 CURVE SMOOTH",
"211 36 OFFCURVE",
"101 166 OFFCURVE",
"101 354 CURVE SMOOTH",
"101 539 OFFCURVE",
"213 671 OFFCURVE",
"394 671 CURVE SMOOTH",
"460 671 OFFCURVE",
"523 657 OFFCURVE",
"603 624 CURVE",
"620 665 LINE"
);
},
{
closed = 1;
nodes = (
"569 641 LINE",
"574 531 LINE",
"575 515 OFFCURVE",
"582 507 OFFCURVE",
"596 507 CURVE SMOOTH",
"620 507 LINE",
"620 665 LINE"
);
}
);
userData = {
assembly = "PUSHW[ ]	/* 4 values pushed */
38 3 13 4 
CALL[ ]	/* CallFunction */
SVTCA[0]	/* SetFreedomAndProjectionVectorToAxis */
PUSHW[ ]	/* 1 value pushed */
0 
RCVT[ ]	/* ReadCVT */
IF[ ]	/* If */
PUSHW[ ]	/* 1 value pushed */
18 
MDAP[1]	/* MoveDirectAbsPt */
ELSE[ ]	/* Else */
PUSHW[ ]	/* 2 values pushed */
18 11 
MIAP[0]	/* MoveIndirectAbsPt */
EIF[ ]	/* EndIf */
PUSHW[ ]	/* 1 value pushed */
0 
RCVT[ ]	/* ReadCVT */
IF[ ]	/* If */
PUSHW[ ]	/* 1 value pushed */
8 
MDAP[1]	/* MoveDirectAbsPt */
ELSE[ ]	/* Else */
PUSHW[ ]	/* 2 values pushed */
8 5 
MIAP[0]	/* MoveIndirectAbsPt */
EIF[ ]	/* EndIf */
PUSHW[ ]	/* 4 values pushed */
23 2 26 4 
CALL[ ]	/* CallFunction */
PUSHW[ ]	/* 1 value pushed */
18 
SRP0[ ]	/* SetRefPoint0 */
PUSHW[ ]	/* 2 values pushed */
33 1 
MIRP[10100]	/* MoveIndirectRelPt */
PUSHW[ ]	/* 1 value pushed */
8 
SRP0[ ]	/* SetRefPoint0 */
PUSHW[ ]	/* 2 values pushed */
43 1 
MIRP[10100]	/* MoveIndirectRelPt */
IUP[0]	/* InterpolateUntPts */
IUP[1]	/* InterpolateUntPts */";
};
width = 719;
},
{
associatedMasterId = "BF33A826-8254-4501-9165-758AB68FE84B";
layerId = "A1B57D67-26C3-497C-94A8-57CB27341161";
name = "Jan 15 23, 17:20";
paths = (
{
closed = 1;
nodes = (
"537 708 OFFCURVE",
"464 725 OFFCURVE",
"409 724 CURVE",
"299 724 OFFCURVE",
"209 690 OFFCURVE",
"143 622 CURVE SMOOTH",
"77 554 OFFCURVE",
"43 466 OFFCURVE",
"43 358 CURVE SMOOTH",
"43 149 OFFCURVE",
"172 -8 OFFCURVE",
"385 -8 CURVE SMOOTH",
"495 -8 OFFCURVE",
"581 28 OFFCURVE",
"643 100 CURVE",
"605 142 LINE",
"598 149 OFFCURVE",
"587 152 OFFCURVE",
"573 140 CURVE",
"520 91 OFFCURVE",
"464 76 OFFCURVE",
"390 76 CURVE SMOOTH",
"238 76 OFFCURVE",
"141 192 OFFCURVE",
"141 358 CURVE SMOOTH",
"141 444 OFFCURVE",
"166 513 OFFCURVE",
"214 565 CURVE SMOOTH",
"290 645 OFFCURVE",
"401 662 OFFCURVE",
"551 614 CURVE",
"559 524 LINE",
"561 512 OFFCURVE",
"569 506 OFFCURVE",
"581 506 CURVE SMOOTH",
"629 506 LINE",
"629 674 LINE"
);
}
);
userData = {
assembly = "NPUSHB[ ]	/* 18 values pushed */
1 0 41 39 31 29 24 22 17 15 7 5 0 46 1 46 7 7 
CALL[ ]	/* CallFunction */
MPPEM[ ]	/* MeasurePixelPerEm */
PUSHB[ ]	/* 1 value pushed */
95 
LT[ ]	/* LessThan */
IF[ ]	/* If */
NPUSHB[ ]	/* 52 values pushed */
19 1 3 4 3 1 5 0 2 30 0 3 4 0 4 3 0 50 6 1 0 5 4 0 5 48 0 4 4 2 1 0 36 0 2 2 17 31 0 5 5 1 1 0 36 0 1 1 18 1 32 7 
ELSE[ ]	/* Else */
MPPEM[ ]	/* MeasurePixelPerEm */
PUSHB[ ]	/* 1 value pushed */
108 
LT[ ]	/* LessThan */
IF[ ]	/* If */
NPUSHB[ ]	/* 50 values pushed */
19 1 3 4 3 1 5 0 2 30 0 3 4 0 4 3 0 50 6 1 0 5 4 0 5 48 0 2 0 4 3 2 4 1 0 38 0 5 5 1 1 0 36 0 1 1 21 1 32 6 
ELSE[ ]	/* Else */
NPUSHB[ ]	/* 59 values pushed */
19 1 3 4 3 1 5 0 2 30 0 3 4 0 4 3 0 50 6 1 0 5 4 0 5 48 0 2 0 4 3 2 4 1 0 38 0 5 1 1 5 1 0 35 0 5 5 1 1 0 36 0 1 5 1 1 0 33 7 
EIF[ ]	/* EndIf */
EIF[ ]	/* EndIf */
PUSHB[ ]	/* 1 value pushed */
56 
CALL[ ]	/* CallFunction */";
};
width = 685;
},
{
associatedMasterId = "2C516476-8145-48E3-8501-3D313ADE77C9";
layerId = "582078F1-09D5-4BB3-9817-96B77313C293";
name = "Jan 15 23, 17:20";
paths = (
{
closed = 1;
nodes = (
"633 495 LINE",
"633 679 LINE",
"542 714 OFFCURVE",
"466 731 OFFCURVE",
"406 731 CURVE SMOOTH",
"351 731 OFFCURVE",
"300 722 OFFCURVE",
"255 704 CURVE SMOOTH",
"209 686 OFFCURVE",
"171 660 OFFCURVE",
"138 627 CURVE SMOOTH",
"105 594 OFFCURVE",
"80 556 OFFCURVE",
"62 511 CURVE SMOOTH",
"44 466 OFFCURVE",
"35 415 OFFCURVE",
"35 361 CURVE SMOOTH",
"35 307 OFFCURVE",
"43 258 OFFCURVE",
"59 213 CURVE SMOOTH",
"75 168 OFFCURVE",
"99 129 OFFCURVE",
"129 96 CURVE SMOOTH",
"159 63 OFFCURVE",
"196 38 OFFCURVE",
"239 20 CURVE SMOOTH",
"282 2 OFFCURVE",
"329 -8 OFFCURVE",
"383 -8 CURVE SMOOTH",
"443 -8 OFFCURVE",
"495 2 OFFCURVE",
"538 21 CURVE SMOOTH",
"581 40 OFFCURVE",
"617 68 OFFCURVE",
"646 104 CURVE",
"593 162 LINE",
"588 168 OFFCURVE",
"581 170 OFFCURVE",
"574 170 CURVE SMOOTH",
"570 170 OFFCURVE",
"566 170 OFFCURVE",
"562 168 CURVE SMOOTH",
"558 166 OFFCURVE",
"554 164 OFFCURVE",
"551 161 CURVE",
"540 151 OFFCURVE",
"529 142 OFFCURVE",
"518 135 CURVE SMOOTH",
"507 128 OFFCURVE",
"495 122 OFFCURVE",
"483 118 CURVE SMOOTH",
"471 114 OFFCURVE",
"457 111 OFFCURVE",
"442 109 CURVE SMOOTH",
"427 107 OFFCURVE",
"410 106 OFFCURVE",
"392 106 CURVE SMOOTH",
"361 106 OFFCURVE",
"333 111 OFFCURVE",
"306 123 CURVE SMOOTH",
"279 135 OFFCURVE",
"256 151 OFFCURVE",
"236 173 CURVE SMOOTH",
"216 195 OFFCURVE",
"202 221 OFFCURVE",
"190 253 CURVE SMOOTH",
"178 285 OFFCURVE",
"172 320 OFFCURVE",
"172 361 CURVE SMOOTH",
"172 400 OFFCURVE",
"178 436 OFFCURVE",
"190 468 CURVE SMOOTH",
"202 500 OFFCURVE",
"218 526 OFFCURVE",
"238 548 CURVE SMOOTH",
"258 570 OFFCURVE",
"282 587 OFFCURVE",
"311 599 CURVE SMOOTH",
"340 611 OFFCURVE",
"371 616 OFFCURVE",
"405 616 CURVE SMOOTH",
"443 616 OFFCURVE",
"488 609 OFFCURVE",
"543 593 CURVE",
"547 549 OFFCURVE",
"550 522 OFFCURVE",
"552 513 CURVE SMOOTH",
"555 501 OFFCURVE",
"562 495 OFFCURVE",
"575 495 CURVE SMOOTH"
);
}
);
userData = {
assembly = "NPUSHB[ ]	/* 18 values pushed */
1 0 44 42 34 32 27 25 18 16 8 6 0 50 1 50 7 7 
CALL[ ]	/* CallFunction */
MPPEM[ ]	/* MeasurePixelPerEm */
PUSHB[ ]	/* 1 value pushed */
94 
LT[ ]	/* LessThan */
IF[ ]	/* If */
NPUSHB[ ]	/* 52 values pushed */
22 1 4 2 4 1 1 5 2 30 0 3 4 0 4 3 0 50 6 1 0 5 4 0 5 48 0 4 4 2 1 0 36 0 2 2 17 31 0 5 5 1 1 0 36 0 1 1 18 1 32 7 
ELSE[ ]	/* Else */
NPUSHB[ ]	/* 59 values pushed */
22 1 4 2 4 1 1 5 2 30 0 3 4 0 4 3 0 50 6 1 0 5 4 0 5 48 0 2 0 4 3 2 4 1 0 38 0 5 1 1 5 1 0 35 0 5 5 1 1 0 36 0 1 5 1 1 0 33 7 
EIF[ ]	/* EndIf */
PUSHB[ ]	/* 1 value pushed */
56 
CALL[ ]	/* CallFunction */";
};
width = 657;
},
{
associatedMasterId = "BF33A826-8254-4501-9165-758AB68FE84B";
layerId = "E754C961-89D5-4BBE-92D0-87FCBAB8F6B7";
name = "Jan 24 23, 22:46";
paths = (
{
closed = 1;
nodes = (
"592 148 LINE",
"586.667 148 OFFCURVE",
"581.333 145.667 OFFCURVE",
"576 141 CURVE SMOOTH",
"522.645 93.262 OFFCURVE",
"475.134 76 OFFCURVE",
"393 76 CURVE SMOOTH",
"246.728 76 OFFCURVE",
"144 186.48 OFFCURVE",
"144 358 CURVE SMOOTH",
"144 526.647 OFFCURVE",
"249.163 641 OFFCURVE",
"405 641 CURVE SMOOTH",
"458.934 641 OFFCURVE",
"508.501 625.592 OFFCURVE",
"536.5 609 CURVE SMOOTH",
"556.051 597.414 OFFCURVE",
"579.765 578 OFFCURVE",
"591 578 CURVE SMOOTH",
"601.667 578 OFFCURVE",
"606.667 582.333 OFFCURVE",
"612 589 CURVE SMOOTH",
"643 634 LINE",
"584.333 690 OFFCURVE",
"510.333 725 OFFCURVE",
"405 725 CURVE SMOOTH",
"298.333 725 OFFCURVE",
"208.833 687.167 OFFCURVE",
"145.5 622.5 CURVE SMOOTH",
"82.167 557.833 OFFCURVE",
"45 466 OFFCURVE",
"45 358 CURVE SMOOTH",
"45 250 OFFCURVE",
"79.167 158 OFFCURVE",
"138.5 94 CURVE SMOOTH",
"197.833 30 OFFCURVE",
"283 -8 OFFCURVE",
"387 -8 CURVE SMOOTH",
"504.333 -8 OFFCURVE",
"586.333 32 OFFCURVE",
"645 100 CURVE",
"607 142 LINE",
"602.333 146 OFFCURVE",
"597.333 148 OFFCURVE",
"592 148 CURVE"
);
}
);
userData = {
assembly = "NPUSHB[ ]	/* 18 values pushed */
1 0 41 39 31 29 24 22 17 15 7 5 0 46 1 46 7 7 
CALL[ ]	/* CallFunction */
MPPEM[ ]	/* MeasurePixelPerEm */
PUSHB[ ]	/* 1 value pushed */
95 
LT[ ]	/* LessThan */
IF[ ]	/* If */
NPUSHB[ ]	/* 52 values pushed */
19 1 3 4 3 1 5 0 2 30 0 3 4 0 4 3 0 50 6 1 0 5 4 0 5 48 0 4 4 2 1 0 36 0 2 2 17 31 0 5 5 1 1 0 36 0 1 1 18 1 32 7 
ELSE[ ]	/* Else */
MPPEM[ ]	/* MeasurePixelPerEm */
PUSHB[ ]	/* 1 value pushed */
108 
LT[ ]	/* LessThan */
IF[ ]	/* If */
NPUSHB[ ]	/* 50 values pushed */
19 1 3 4 3 1 5 0 2 30 0 3 4 0 4 3 0 50 6 1 0 5 4 0 5 48 0 2 0 4 3 2 4 1 0 38 0 5 5 1 1 0 36 0 1 1 21 1 32 6 
ELSE[ ]	/* Else */
NPUSHB[ ]	/* 59 values pushed */
19 1 3 4 3 1 5 0 2 30 0 3 4 0 4 3 0 50 6 1 0 5 4 0 5 48 0 2 0 4 3 2 4 1 0 38 0 5 1 1 5 1 0 35 0 5 5 1 1 0 36 0 1 5 1 1 0 33 7 
EIF[ ]	/* EndIf */
EIF[ ]	/* EndIf */
PUSHB[ ]	/* 1 value pushed */
56 
CALL[ ]	/* CallFunction */";
};
width = 685;
},
{
associatedMasterId = "A1468767-BE48-4A45-9F09-053256197B3B";
layerId = "847439AD-413B-4905-8205-AB3F5B3316E8";
name = "Jan 24 23, 22:51";
paths = (
{
closed = 1;
nodes = (
"642 95 LINE",
"641.333 95 OFFCURVE",
"640 94 OFFCURVE",
"638 92 CURVE SMOOTH",
"571.748 31.509 OFFCURVE",
"510.086 2 OFFCURVE",
"402 2 CURVE SMOOTH",
"312.667 2 OFFCURVE",
"235 35 OFFCURVE",
"179 95 CURVE SMOOTH",
"123 155 OFFCURVE",
"89 242 OFFCURVE",
"89 350 CURVE SMOOTH",
"89 456.667 OFFCURVE",
"122.667 543.833 OFFCURVE",
"180 604.5 CURVE SMOOTH",
"237.333 665.167 OFFCURVE",
"317.333 698 OFFCURVE",
"412 698 CURVE SMOOTH",
"478.457 698 OFFCURVE",
"538.003 681.513 OFFCURVE",
"573.5 660 CURVE SMOOTH",
"587.761 651.357 OFFCURVE",
"627.652 621 OFFCURVE",
"630 621 CURVE SMOOTH",
"632 621 OFFCURVE",
"633.667 622 OFFCURVE",
"635 624 CURVE SMOOTH",
"636 626 LINE",
"571.038 682.842 OFFCURVE",
"507.85 708 OFFCURVE",
"412 708 CURVE SMOOTH",
"313.333 708 OFFCURVE",
"228.667 672.833 OFFCURVE",
"170 609.5 CURVE SMOOTH",
"111.333 546.167 OFFCURVE",
"77 456.667 OFFCURVE",
"77 350 CURVE SMOOTH",
"77 239.333 OFFCURVE",
"111.5 150.5 OFFCURVE",
"169.5 88.5 CURVE SMOOTH",
"227.5 26.5 OFFCURVE",
"308.667 -8 OFFCURVE",
"402 -8 CURVE SMOOTH",
"512.443 -8 OFFCURVE",
"587.224 29.077 OFFCURVE",
"650 89 CURVE",
"646 93 LINE SMOOTH",
"644.667 94.333 OFFCURVE",
"643.333 95 OFFCURVE",
"642 95 CURVE"
);
}
);
userData = {
assembly = "PUSHW[ ]	/* 4 values pushed */
38 3 13 4 
CALL[ ]	/* CallFunction */
SVTCA[0]	/* SetFreedomAndProjectionVectorToAxis */
PUSHW[ ]	/* 1 value pushed */
0 
RCVT[ ]	/* ReadCVT */
IF[ ]	/* If */
PUSHW[ ]	/* 1 value pushed */
18 
MDAP[1]	/* MoveDirectAbsPt */
ELSE[ ]	/* Else */
PUSHW[ ]	/* 2 values pushed */
18 11 
MIAP[0]	/* MoveIndirectAbsPt */
EIF[ ]	/* EndIf */
PUSHW[ ]	/* 1 value pushed */
0 
RCVT[ ]	/* ReadCVT */
IF[ ]	/* If */
PUSHW[ ]	/* 1 value pushed */
8 
MDAP[1]	/* MoveDirectAbsPt */
ELSE[ ]	/* Else */
PUSHW[ ]	/* 2 values pushed */
8 5 
MIAP[0]	/* MoveIndirectAbsPt */
EIF[ ]	/* EndIf */
PUSHW[ ]	/* 4 values pushed */
23 2 26 4 
CALL[ ]	/* CallFunction */
PUSHW[ ]	/* 1 value pushed */
18 
SRP0[ ]	/* SetRefPoint0 */
PUSHW[ ]	/* 2 values pushed */
33 1 
MIRP[10100]	/* MoveIndirectRelPt */
PUSHW[ ]	/* 1 value pushed */
8 
SRP0[ ]	/* SetRefPoint0 */
PUSHW[ ]	/* 2 values pushed */
43 1 
MIRP[10100]	/* MoveIndirectRelPt */
IUP[0]	/* InterpolateUntPts */
IUP[1]	/* InterpolateUntPts */";
};
width = 719;
},
{
associatedMasterId = "2C516476-8145-48E3-8501-3D313ADE77C9";
components = (
{
name = SerifUpRightCaps;
transform = "{-1, 0, 0, -1, 633, 578}";
}
);
layerId = "91981851-6241-45DD-800B-49B28A572A29";
name = "Jan 24 23, 22:54";
paths = (
{
closed = 1;
nodes = (
"550 189 LINE",
"539.333 189 OFFCURVE",
"530 183.667 OFFCURVE",
"522 177 CURVE SMOOTH",
"483.392 143.539 OFFCURVE",
"442.092 131 OFFCURVE",
"384 131 CURVE SMOOTH",
"272.091 131 OFFCURVE",
"191 224.135 OFFCURVE",
"191 365 CURVE SMOOTH",
"191 504.614 OFFCURVE",
"273.698 597 OFFCURVE",
"398 597 CURVE SMOOTH",
"440.991 597 OFFCURVE",
"483.498 585.001 OFFCURVE",
"504.5 571 CURVE SMOOTH",
"520.732 560.179 OFFCURVE",
"543.938 545 OFFCURVE",
"558 545 CURVE SMOOTH",
"576.667 545 OFFCURVE",
"585 554 OFFCURVE",
"592 563 CURVE SMOOTH",
"649 640 LINE",
"593.072 698.725 OFFCURVE",
"500.428 737 OFFCURVE",
"399 737 CURVE SMOOTH",
"287 737 OFFCURVE",
"191.833 698.5 OFFCURVE",
"124.5 632.5 CURVE SMOOTH",
"57.167 566.5 OFFCURVE",
"18 473 OFFCURVE",
"18 365 CURVE SMOOTH",
"18 258.333 OFFCURVE",
"51.667 164.5 OFFCURVE",
"113 98.5 CURVE SMOOTH",
"174.333 32.5 OFFCURVE",
"262.333 -8 OFFCURVE",
"373 -8 CURVE SMOOTH",
"494.333 -8 OFFCURVE",
"581.333 32 OFFCURVE",
"640 108 CURVE",
"573 179 LINE SMOOTH",
"567 186 OFFCURVE",
"558 189 OFFCURVE",
"550 189 CURVE"
);
}
);
userData = {
assembly = "NPUSHB[ ]	/* 18 values pushed */
1 0 44 42 34 32 27 25 18 16 8 6 0 50 1 50 7 7 
CALL[ ]	/* CallFunction */
MPPEM[ ]	/* MeasurePixelPerEm */
PUSHB[ ]	/* 1 value pushed */
94 
LT[ ]	/* LessThan */
IF[ ]	/* If */
NPUSHB[ ]	/* 52 values pushed */
22 1 4 2 4 1 1 5 2 30 0 3 4 0 4 3 0 50 6 1 0 5 4 0 5 48 0 4 4 2 1 0 36 0 2 2 17 31 0 5 5 1 1 0 36 0 1 1 18 1 32 7 
ELSE[ ]	/* Else */
NPUSHB[ ]	/* 59 values pushed */
22 1 4 2 4 1 1 5 2 30 0 3 4 0 4 3 0 50 6 1 0 5 4 0 5 48 0 2 0 4 3 2 4 1 0 38 0 5 1 1 5 1 0 35 0 5 5 1 1 0 36 0 1 5 1 1 0 33 7 
EIF[ ]	/* EndIf */
PUSHB[ ]	/* 1 value pushed */
56 
CALL[ ]	/* CallFunction */";
};
width = 657;
}
);
leftKerningGroup = C;
leftMetricsKey = O;
note = C;
unicode = 0043;
},
{
glyphname = Chook;
layers = (
{
components = (
{
name = C;
}
);
layerId = "A1468767-BE48-4A45-9F09-053256197B3B";
paths = (
{
closed = 1;
nodes = (
"613 687 LINE SMOOTH",
"613 774 OFFCURVE",
"645 827 OFFCURVE",
"710 827 CURVE SMOOTH",
"727 827 OFFCURVE",
"746 825 OFFCURVE",
"766 818 CURVE SMOOTH",
"771 817 OFFCURVE",
"775 815 OFFCURVE",
"776 820 CURVE SMOOTH",
"777 824 LINE",
"753 833 OFFCURVE",
"731 837 OFFCURVE",
"710 837 CURVE SMOOTH",
"638 837 OFFCURVE",
"603 777 OFFCURVE",
"603 687 CURVE SMOOTH",
"603 678 OFFCURVE",
"603 670 OFFCURVE",
"603 661 CURVE SMOOTH",
"603 652 OFFCURVE",
"603 643 OFFCURVE",
"604 633 CURVE",
"613 626 LINE"
);
}
);
width = 658;
},
{
components = (
{
name = C;
}
);
layerId = "BF33A826-8254-4501-9165-758AB68FE84B";
paths = (
{
closed = 1;
nodes = (
"614 688 LINE SMOOTH",
"614 756 OFFCURVE",
"637 794 OFFCURVE",
"688 794 CURVE SMOOTH",
"703 794 OFFCURVE",
"718 792 OFFCURVE",
"731 788 CURVE SMOOTH",
"747 785 OFFCURVE",
"757 789 OFFCURVE",
"762 805 CURVE SMOOTH",
"774 855 LINE",
"743 866 OFFCURVE",
"718 873 OFFCURVE",
"679 873 CURVE SMOOTH",
"578 873 OFFCURVE",
"534 801 OFFCURVE",
"534 709 CURVE SMOOTH",
"534 706 OFFCURVE",
"534 702 OFFCURVE",
"534 699 CURVE SMOOTH",
"534 696 OFFCURVE",
"534 692 OFFCURVE",
"535 689 CURVE",
"614 634 LINE"
);
}
);
width = 669;
},
{
components = (
{
name = C;
}
);
layerId = "2C516476-8145-48E3-8501-3D313ADE77C9";
paths = (
{
closed = 1;
nodes = (
"630 688 LINE SMOOTH",
"630 743 OFFCURVE",
"645 770 OFFCURVE",
"685 770 CURVE SMOOTH",
"697 770 OFFCURVE",
"709 767 OFFCURVE",
"716 766 CURVE SMOOTH",
"739 763 OFFCURVE",
"758 766 OFFCURVE",
"765 793 CURVE SMOOTH",
"787 878 LINE",
"751 891 OFFCURVE",
"715 899 OFFCURVE",
"668 899 CURVE SMOOTH",
"540 899 OFFCURVE",
"491 822 OFFCURVE",
"491 726 CURVE SMOOTH",
"491 725 OFFCURVE",
"491 725 OFFCURVE",
"491 724 CURVE SMOOTH",
"491 723 OFFCURVE",
"491 722 OFFCURVE",
"491 721 CURVE",
"630 640 LINE"
);
}
);
width = 668;
}
);
unicode = 0187;
},
{
glyphname = D;
layers = (
{
anchors = (
{
name = bottom;
position = "{347, 0}";
},
{
name = center;
position = "{130, 357}";
},
{
name = top;
position = "{361, 700}";
}
);
components = (
{
name = SerifBottomLeft;
transform = "{1, 0, 0, 1, 124, 0}";
},
{
name = SerifSpurLeft;
transform = "{1, 0, 0, 1, 124, 700}";
}
);
layerId = "A1468767-BE48-4A45-9F09-053256197B3B";
paths = (
{
closed = 1;
nodes = (
"374 0 LINE SMOOTH",
"470 0 OFFCURVE",
"551 32 OFFCURVE",
"608 92 CURVE SMOOTH",
"665 152 OFFCURVE",
"698 239 OFFCURVE",
"698 350 CURVE SMOOTH",
"698 461 OFFCURVE",
"665 548 OFFCURVE",
"608 608 CURVE SMOOTH",
"551 668 OFFCURVE",
"470 700 OFFCURVE",
"374 700 CURVE SMOOTH",
"124 700 LINE",
"124 0 LINE"
);
},
{
closed = 1;
nodes = (
"136 690 LINE",
"374 690 LINE SMOOTH",
"569 690 OFFCURVE",
"685 557 OFFCURVE",
"685 350 CURVE SMOOTH",
"685 146 OFFCURVE",
"572 10 OFFCURVE",
"374 10 CURVE SMOOTH",
"136 10 LINE"
);
}
);
userData = {
assembly = "PUSHW[ ]	/* 1 value pushed */
26 
MDAP[1]	/* MoveDirectAbsPt */
PUSHW[ ]	/* 1 value pushed */
27 
MDAP[1]	/* MoveDirectAbsPt */
PUSHW[ ]	/* 1 value pushed */
0 
MDRP[11100]	/* MoveDirectRelPt */
PUSHW[ ]	/* 1 value pushed */
26 
SRP0[ ]	/* SetRefPoint0 */
PUSHW[ ]	/* 1 value pushed */
6 
MDRP[10000]	/* MoveDirectRelPt */
PUSHW[ ]	/* 1 value pushed */
6 
MDAP[1]	/* MoveDirectAbsPt */
PUSHW[ ]	/* 1 value pushed */
0 
SRP0[ ]	/* SetRefPoint0 */
PUSHW[ ]	/* 2 values pushed */
13 3 
MIRP[10100]	/* MoveIndirectRelPt */
PUSHW[ ]	/* 1 value pushed */
6 
SRP0[ ]	/* SetRefPoint0 */
PUSHW[ ]	/* 2 values pushed */
20 3 
MIRP[10100]	/* MoveIndirectRelPt */
SVTCA[0]	/* SetFreedomAndProjectionVectorToAxis */
PUSHW[ ]	/* 1 value pushed */
0 
RCVT[ ]	/* ReadCVT */
IF[ ]	/* If */
PUSHW[ ]	/* 1 value pushed */
7 
MDAP[1]	/* MoveDirectAbsPt */
ELSE[ ]	/* Else */
PUSHW[ ]	/* 2 values pushed */
7 11 
MIAP[0]	/* MoveIndirectAbsPt */
EIF[ ]	/* EndIf */
PUSHW[ ]	/* 1 value pushed */
0 
RCVT[ ]	/* ReadCVT */
IF[ ]	/* If */
PUSHW[ ]	/* 1 value pushed */
5 
MDAP[1]	/* MoveDirectAbsPt */
ELSE[ ]	/* Else */
PUSHW[ ]	/* 2 values pushed */
5 5 
MIAP[0]	/* MoveIndirectAbsPt */
EIF[ ]	/* EndIf */
PUSHW[ ]	/* 1 value pushed */
7 
SRP0[ ]	/* SetRefPoint0 */
PUSHW[ ]	/* 2 values pushed */
18 1 
MIRP[10100]	/* MoveIndirectRelPt */
PUSHW[ ]	/* 1 value pushed */
5 
SRP0[ ]	/* SetRefPoint0 */
PUSHW[ ]	/* 2 values pushed */
20 1 
MIRP[10100]	/* MoveIndirectRelPt */
IUP[0]	/* InterpolateUntPts */
IUP[1]	/* InterpolateUntPts */";
};
width = 741;
},
{
anchors = (
{
name = bottom;
position = "{353, 0}";
},
{
name = center;
position = "{184, 364}";
},
{
name = top;
position = "{367, 729}";
}
);
components = (
{
name = SerifBottomLeft;
transform = "{1, 0, 0, 1, 97, 0}";
},
{
name = SerifSpurLeft;
transform = "{1, 0, 0, 1, 127, 729}";
}
);
layerId = "2C516476-8145-48E3-8501-3D313ADE77C9";
paths = (
{
closed = 1;
nodes = (
"380 0 LINE SMOOTH",
"493 0 OFFCURVE",
"589 39 OFFCURVE",
"655 104 CURVE SMOOTH",
"721 168 OFFCURVE",
"758 260 OFFCURVE",
"758 365 CURVE SMOOTH",
"758 469 OFFCURVE",
"721 561 OFFCURVE",
"655 626 CURVE SMOOTH",
"589 690 OFFCURVE",
"493 729 OFFCURVE",
"380 729 CURVE SMOOTH",
"97 729 LINE",
"97 0 LINE"
);
},
{
closed = 1;
nodes = (
"267 599 LINE",
"380 599 LINE SMOOTH",
"511 599 OFFCURVE",
"585 506 OFFCURVE",
"585 365 CURVE SMOOTH",
"585 223 OFFCURVE",
"511 130 OFFCURVE",
"380 130 CURVE SMOOTH",
"267 130 LINE"
);
}
);
userData = {
assembly = "NPUSHB[ ]	/* 10 values pushed */
22 20 19 17 9 7 6 4 4 7 
CALL[ ]	/* CallFunction */
MPPEM[ ]	/* MeasurePixelPerEm */
PUSHB[ ]	/* 1 value pushed */
94 
LT[ ]	/* LessThan */
IF[ ]	/* If */
NPUSHB[ ]	/* 26 values pushed */
0 2 2 1 1 0 36 0 1 1 11 31 0 3 3 0 1 0 36 0 0 0 12 0 32 4 
ELSE[ ]	/* Else */
NPUSHB[ ]	/* 33 values pushed */
0 1 0 2 3 1 2 1 0 38 0 3 0 0 3 1 0 35 0 3 3 0 1 0 36 0 0 3 0 1 0 33 4 
EIF[ ]	/* EndIf */
PUSHB[ ]	/* 1 value pushed */
56 
CALL[ ]	/* CallFunction */";
};
width = 773;
},
{
anchors = (
{
name = bottom;
position = "{361, 0}";
},
{
name = center;
position = "{152, 357}";
},
{
name = top;
position = "{373, 717}";
}
);
components = (
{
name = SerifBottomLeft;
transform = "{1, 0, 0, 1, 105, 0}";
},
{
name = SerifSpurLeft;
transform = "{1, 0, 0, 1, 105, 717}";
}
);
layerId = "BF33A826-8254-4501-9165-758AB68FE84B";
paths = (
{
closed = 1;
nodes = (
"373 0 LINE SMOOTH",
"478 0 OFFCURVE",
"567 36 OFFCURVE",
"629 99 CURVE SMOOTH",
"691 162 OFFCURVE",
"726 251 OFFCURVE",
"726 358 CURVE SMOOTH",
"726 466 OFFCURVE",
"691 555 OFFCURVE",
"629 618 CURVE SMOOTH",
"567 681 OFFCURVE",
"478 717 OFFCURVE",
"373 717 CURVE SMOOTH",
"105 717 LINE",
"105 0 LINE"
);
},
{
closed = 1;
nodes = (
"203 638 LINE",
"373 638 LINE SMOOTH",
"531 638 OFFCURVE",
"627 530 OFFCURVE",
"627 358 CURVE SMOOTH",
"627 186 OFFCURVE",
"531 79 OFFCURVE",
"373 79 CURVE SMOOTH",
"203 79 LINE"
);
}
);
userData = {
assembly = "NPUSHB[ ]	/* 10 values pushed */
22 20 19 17 9 7 6 4 4 7 
CALL[ ]	/* CallFunction */
MPPEM[ ]	/* MeasurePixelPerEm */
PUSHB[ ]	/* 1 value pushed */
95 
LT[ ]	/* LessThan */
IF[ ]	/* If */
NPUSHB[ ]	/* 26 values pushed */
0 2 2 1 1 0 36 0 1 1 11 31 0 3 3 0 1 0 36 0 0 0 12 0 32 4 
ELSE[ ]	/* Else */
MPPEM[ ]	/* MeasurePixelPerEm */
PUSHB[ ]	/* 1 value pushed */
108 
LT[ ]	/* LessThan */
IF[ ]	/* If */
NPUSHB[ ]	/* 24 values pushed */
0 1 0 2 3 1 2 1 0 38 0 3 3 0 1 0 36 0 0 0 15 0 32 3 
ELSE[ ]	/* Else */
NPUSHB[ ]	/* 33 values pushed */
0 1 0 2 3 1 2 1 0 38 0 3 0 0 3 1 0 35 0 3 3 0 1 0 36 0 0 3 0 1 0 33 4 
EIF[ ]	/* EndIf */
EIF[ ]	/* EndIf */
PUSHB[ ]	/* 1 value pushed */
56 
CALL[ ]	/* CallFunction */";
};
width = 756;
}
);
leftMetricsKey = H;
note = D;
rightKerningGroup = D;
rightMetricsKey = O;
unicode = 0044;
},
{
glyphname = Eth;
layers = (
{
components = (
{
name = D;
},
{
alignment = -1;
name = macroncomb;
transform = "{1, 0, 0, 1, 36, -284}";
}
);
layerId = "A1468767-BE48-4A45-9F09-053256197B3B";
userData = {
assembly = "PUSHW[ ]	/* 1 value pushed */
34 
MDAP[1]	/* MoveDirectAbsPt */
PUSHW[ ]	/* 1 value pushed */
35 
MDAP[1]	/* MoveDirectAbsPt */
PUSHW[ ]	/* 1 value pushed */
34 
SRP0[ ]	/* SetRefPoint0 */
PUSHW[ ]	/* 1 value pushed */
1 
MDRP[10000]	/* MoveDirectRelPt */
PUSHW[ ]	/* 1 value pushed */
1 
MDAP[1]	/* MoveDirectAbsPt */
PUSHW[ ]	/* 1 value pushed */
35 
SRP0[ ]	/* SetRefPoint0 */
PUSHW[ ]	/* 1 value pushed */
8 
MDRP[11100]	/* MoveDirectRelPt */
PUSHW[ ]	/* 1 value pushed */
1 
SRP0[ ]	/* SetRefPoint0 */
PUSHW[ ]	/* 1 value pushed */
14 
MDRP[10000]	/* MoveDirectRelPt */
PUSHW[ ]	/* 1 value pushed */
8 
SRP0[ ]	/* SetRefPoint0 */
PUSHW[ ]	/* 2 values pushed */
17 3 
MIRP[10100]	/* MoveIndirectRelPt */
PUSHW[ ]	/* 1 value pushed */
1 
SRP0[ ]	/* SetRefPoint0 */
PUSHW[ ]	/* 2 values pushed */
24 3 
MIRP[10100]	/* MoveIndirectRelPt */
PUSHW[ ]	/* 1 value pushed */
27 
MDRP[10000]	/* MoveDirectRelPt */
SVTCA[0]	/* SetFreedomAndProjectionVectorToAxis */
PUSHW[ ]	/* 1 value pushed */
0 
RCVT[ ]	/* ReadCVT */
IF[ ]	/* If */
PUSHW[ ]	/* 1 value pushed */
2 
MDAP[1]	/* MoveDirectAbsPt */
ELSE[ ]	/* Else */
PUSHW[ ]	/* 2 values pushed */
2 11 
MIAP[0]	/* MoveIndirectAbsPt */
EIF[ ]	/* EndIf */
PUSHW[ ]	/* 1 value pushed */
0 
RCVT[ ]	/* ReadCVT */
IF[ ]	/* If */
PUSHW[ ]	/* 1 value pushed */
13 
MDAP[1]	/* MoveDirectAbsPt */
ELSE[ ]	/* Else */
PUSHW[ ]	/* 2 values pushed */
13 5 
MIAP[0]	/* MoveIndirectAbsPt */
EIF[ ]	/* EndIf */
PUSHW[ ]	/* 4 values pushed */
1 1 15 4 
CALL[ ]	/* CallFunction */
PUSHW[ ]	/* 1 value pushed */
2 
SRP0[ ]	/* SetRefPoint0 */
PUSHW[ ]	/* 2 values pushed */
22 1 
MIRP[10100]	/* MoveIndirectRelPt */
PUSHW[ ]	/* 1 value pushed */
1 
SRP0[ ]	/* SetRefPoint0 */
PUSHW[ ]	/* 1 value pushed */
24 
MDRP[10000]	/* MoveDirectRelPt */
PUSHW[ ]	/* 1 value pushed */
15 
SRP0[ ]	/* SetRefPoint0 */
PUSHW[ ]	/* 1 value pushed */
26 
MDRP[10000]	/* MoveDirectRelPt */
PUSHW[ ]	/* 1 value pushed */
13 
SRP0[ ]	/* SetRefPoint0 */
PUSHW[ ]	/* 2 values pushed */
28 1 
MIRP[10100]	/* MoveIndirectRelPt */
IUP[0]	/* InterpolateUntPts */
IUP[1]	/* InterpolateUntPts */";
};
width = 741;
},
{
components = (
{
name = D;
},
{
alignment = -1;
name = macroncomb;
transform = "{1, 0, 0, 1, 51, -282}";
}
);
layerId = "2C516476-8145-48E3-8501-3D313ADE77C9";
userData = {
assembly = "NPUSHB[ ]	/* 18 values pushed */
30 28 27 26 25 24 23 21 16 15 14 12 4 2 1 0 8 7 
CALL[ ]	/* CallFunction */
MPPEM[ ]	/* MeasurePixelPerEm */
PUSHB[ ]	/* 1 value pushed */
94 
LT[ ]	/* LessThan */
IF[ ]	/* If */
NPUSHB[ ]	/* 38 values pushed */
5 1 0 6 1 3 7 0 3 0 0 38 0 4 4 1 1 0 36 0 1 1 11 31 0 7 7 2 1 0 36 0 2 2 12 2 32 5 
ELSE[ ]	/* Else */
MPPEM[ ]	/* MeasurePixelPerEm */
PUSHB[ ]	/* 1 value pushed */
232 
LT[ ]	/* LessThan */
IF[ ]	/* If */
NPUSHB[ ]	/* 45 values pushed */
0 1 0 4 0 1 4 1 0 38 5 1 0 6 1 3 7 0 3 0 0 38 0 7 2 2 7 1 0 35 0 7 7 2 1 0 36 0 2 7 2 1 0 33 5 
ELSE[ ]	/* Else */
NPUSHB[ ]	/* 53 values pushed */
0 1 0 4 0 1 4 1 0 38 0 5 0 6 3 5 6 0 0 38 0 0 0 3 7 0 3 0 0 38 0 7 2 2 7 1 0 35 0 7 7 2 1 0 36 0 2 7 2 1 0 33 6 
EIF[ ]	/* EndIf */
EIF[ ]	/* EndIf */
PUSHB[ ]	/* 1 value pushed */
56 
CALL[ ]	/* CallFunction */";
};
width = 773;
},
{
components = (
{
name = D;
},
{
alignment = -1;
name = macroncomb;
transform = "{1, 0, 0, 1, 8, -283}";
}
);
layerId = "BF33A826-8254-4501-9165-758AB68FE84B";
userData = {
assembly = "NPUSHB[ ]	/* 18 values pushed */
30 28 27 26 25 24 23 21 16 15 14 12 4 2 1 0 8 7 
CALL[ ]	/* CallFunction */
MPPEM[ ]	/* MeasurePixelPerEm */
PUSHB[ ]	/* 1 value pushed */
95 
LT[ ]	/* LessThan */
IF[ ]	/* If */
NPUSHB[ ]	/* 38 values pushed */
5 1 0 6 1 3 7 0 3 0 0 38 0 4 4 1 1 0 36 0 1 1 11 31 0 7 7 2 1 0 36 0 2 2 12 2 32 5 
ELSE[ ]	/* Else */
MPPEM[ ]	/* MeasurePixelPerEm */
PUSHB[ ]	/* 1 value pushed */
108 
LT[ ]	/* LessThan */
IF[ ]	/* If */
NPUSHB[ ]	/* 36 values pushed */
0 1 0 4 0 1 4 1 0 38 5 1 0 6 1 3 7 0 3 0 0 38 0 7 7 2 1 0 36 0 2 2 15 2 32 4 
ELSE[ ]	/* Else */
MPPEM[ ]	/* MeasurePixelPerEm */
PUSHB[ ]	/* 1 value pushed */
232 
LT[ ]	/* LessThan */
IF[ ]	/* If */
NPUSHB[ ]	/* 45 values pushed */
0 1 0 4 0 1 4 1 0 38 5 1 0 6 1 3 7 0 3 0 0 38 0 7 2 2 7 1 0 35 0 7 7 2 1 0 36 0 2 7 2 1 0 33 5 
ELSE[ ]	/* Else */
NPUSHB[ ]	/* 53 values pushed */
0 1 0 4 0 1 4 1 0 38 0 5 0 6 3 5 6 0 0 38 0 0 0 3 7 0 3 0 0 38 0 7 2 2 7 1 0 35 0 7 7 2 1 0 36 0 2 7 2 1 0 33 6 
EIF[ ]	/* EndIf */
EIF[ ]	/* EndIf */
EIF[ ]	/* EndIf */
PUSHB[ ]	/* 1 value pushed */
56 
CALL[ ]	/* CallFunction */";
};
width = 756;
},
{
associatedMasterId = "2C516476-8145-48E3-8501-3D313ADE77C9";
layerId = "EF1A8062-75FF-4078-BD3F-A3703F48EEF5";
name = "Jan 25 23, 14:55";
paths = (
{
closed = 1;
nodes = (
"110 320 LINE",
"110 0 LINE",
"393 0 LINE SMOOTH",
"506 0 OFFCURVE",
"602 39 OFFCURVE",
"668 104 CURVE SMOOTH",
"734 168 OFFCURVE",
"771 260 OFFCURVE",
"771 365 CURVE SMOOTH",
"771 469 OFFCURVE",
"734 561 OFFCURVE",
"668 626 CURVE SMOOTH",
"602 690 OFFCURVE",
"506 729 OFFCURVE",
"393 729 CURVE SMOOTH",
"110 729 LINE",
"110 412 LINE",
"27 412 LINE",
"27 320 LINE",
"27 320 LINE"
);
},
{
closed = 1;
nodes = (
"598 365 LINE",
"598 223 OFFCURVE",
"524 130 OFFCURVE",
"393 130 CURVE SMOOTH",
"280 130 LINE",
"280 320 LINE",
"452 320 LINE",
"452 412 LINE",
"280 412 LINE",
"280 599 LINE",
"393 599 LINE SMOOTH",
"524 599 OFFCURVE",
"598 506 OFFCURVE",
"598 365 CURVE"
);
}
);
userData = {
assembly = "NPUSHB[ ]	/* 18 values pushed */
30 28 27 26 25 24 23 21 16 15 14 12 4 2 1 0 8 7 
CALL[ ]	/* CallFunction */
MPPEM[ ]	/* MeasurePixelPerEm */
PUSHB[ ]	/* 1 value pushed */
94 
LT[ ]	/* LessThan */
IF[ ]	/* If */
NPUSHB[ ]	/* 38 values pushed */
5 1 0 6 1 3 7 0 3 0 0 38 0 4 4 1 1 0 36 0 1 1 11 31 0 7 7 2 1 0 36 0 2 2 12 2 32 5 
ELSE[ ]	/* Else */
MPPEM[ ]	/* MeasurePixelPerEm */
PUSHB[ ]	/* 1 value pushed */
232 
LT[ ]	/* LessThan */
IF[ ]	/* If */
NPUSHB[ ]	/* 45 values pushed */
0 1 0 4 0 1 4 1 0 38 5 1 0 6 1 3 7 0 3 0 0 38 0 7 2 2 7 1 0 35 0 7 7 2 1 0 36 0 2 7 2 1 0 33 5 
ELSE[ ]	/* Else */
NPUSHB[ ]	/* 53 values pushed */
0 1 0 4 0 1 4 1 0 38 0 5 0 6 3 5 6 0 0 38 0 0 0 3 7 0 3 0 0 38 0 7 2 2 7 1 0 35 0 7 7 2 1 0 36 0 2 7 2 1 0 33 6 
EIF[ ]	/* EndIf */
EIF[ ]	/* EndIf */
PUSHB[ ]	/* 1 value pushed */
56 
CALL[ ]	/* CallFunction */";
};
width = 792;
},
{
associatedMasterId = "A1468767-BE48-4A45-9F09-053256197B3B";
layerId = "D9A66E44-CAC9-4B27-8B25-9A81882E5E4C";
name = "Jan 25 23, 14:58";
paths = (
{
closed = 1;
nodes = (
"140 351 LINE",
"140 0 LINE",
"390 0 LINE SMOOTH",
"486 0 OFFCURVE",
"566.667 32 OFFCURVE",
"624 92 CURVE SMOOTH",
"681.333 152 OFFCURVE",
"714 239.333 OFFCURVE",
"714 350 CURVE SMOOTH",
"714 460.667 OFFCURVE",
"681.333 548 OFFCURVE",
"624 608 CURVE SMOOTH",
"566.667 668 OFFCURVE",
"486 700 OFFCURVE",
"390 700 CURVE SMOOTH",
"140 700 LINE",
"140 361 LINE",
"24 361 LINE",
"24 351 LINE",
"24 351 LINE"
);
},
{
closed = 1;
nodes = (
"701 350 LINE",
"701 242 OFFCURVE",
"669.667 156.5 OFFCURVE",
"615 98.5 CURVE SMOOTH",
"560.333 40.5 OFFCURVE",
"482 10 OFFCURVE",
"390 10 CURVE SMOOTH",
"152 10 LINE",
"152 351 LINE",
"364 351 LINE",
"364 361 LINE",
"152 361 LINE",
"152 690 LINE",
"390 690 LINE SMOOTH",
"482 690 OFFCURVE",
"560.333 659.5 OFFCURVE",
"615 601.5 CURVE SMOOTH",
"669.667 543.5 OFFCURVE",
"701 459.333 OFFCURVE",
"701 350 CURVE"
);
}
);
userData = {
assembly = "PUSHW[ ]	/* 1 value pushed */
34 
MDAP[1]	/* MoveDirectAbsPt */
PUSHW[ ]	/* 1 value pushed */
35 
MDAP[1]	/* MoveDirectAbsPt */
PUSHW[ ]	/* 1 value pushed */
34 
SRP0[ ]	/* SetRefPoint0 */
PUSHW[ ]	/* 1 value pushed */
1 
MDRP[10000]	/* MoveDirectRelPt */
PUSHW[ ]	/* 1 value pushed */
1 
MDAP[1]	/* MoveDirectAbsPt */
PUSHW[ ]	/* 1 value pushed */
35 
SRP0[ ]	/* SetRefPoint0 */
PUSHW[ ]	/* 1 value pushed */
8 
MDRP[11100]	/* MoveDirectRelPt */
PUSHW[ ]	/* 1 value pushed */
1 
SRP0[ ]	/* SetRefPoint0 */
PUSHW[ ]	/* 1 value pushed */
14 
MDRP[10000]	/* MoveDirectRelPt */
PUSHW[ ]	/* 1 value pushed */
8 
SRP0[ ]	/* SetRefPoint0 */
PUSHW[ ]	/* 2 values pushed */
17 3 
MIRP[10100]	/* MoveIndirectRelPt */
PUSHW[ ]	/* 1 value pushed */
1 
SRP0[ ]	/* SetRefPoint0 */
PUSHW[ ]	/* 2 values pushed */
24 3 
MIRP[10100]	/* MoveIndirectRelPt */
PUSHW[ ]	/* 1 value pushed */
27 
MDRP[10000]	/* MoveDirectRelPt */
SVTCA[0]	/* SetFreedomAndProjectionVectorToAxis */
PUSHW[ ]	/* 1 value pushed */
0 
RCVT[ ]	/* ReadCVT */
IF[ ]	/* If */
PUSHW[ ]	/* 1 value pushed */
2 
MDAP[1]	/* MoveDirectAbsPt */
ELSE[ ]	/* Else */
PUSHW[ ]	/* 2 values pushed */
2 11 
MIAP[0]	/* MoveIndirectAbsPt */
EIF[ ]	/* EndIf */
PUSHW[ ]	/* 1 value pushed */
0 
RCVT[ ]	/* ReadCVT */
IF[ ]	/* If */
PUSHW[ ]	/* 1 value pushed */
13 
MDAP[1]	/* MoveDirectAbsPt */
ELSE[ ]	/* Else */
PUSHW[ ]	/* 2 values pushed */
13 5 
MIAP[0]	/* MoveIndirectAbsPt */
EIF[ ]	/* EndIf */
PUSHW[ ]	/* 4 values pushed */
1 1 15 4 
CALL[ ]	/* CallFunction */
PUSHW[ ]	/* 1 value pushed */
2 
SRP0[ ]	/* SetRefPoint0 */
PUSHW[ ]	/* 2 values pushed */
22 1 
MIRP[10100]	/* MoveIndirectRelPt */
PUSHW[ ]	/* 1 value pushed */
1 
SRP0[ ]	/* SetRefPoint0 */
PUSHW[ ]	/* 1 value pushed */
24 
MDRP[10000]	/* MoveDirectRelPt */
PUSHW[ ]	/* 1 value pushed */
15 
SRP0[ ]	/* SetRefPoint0 */
PUSHW[ ]	/* 1 value pushed */
26 
MDRP[10000]	/* MoveDirectRelPt */
PUSHW[ ]	/* 1 value pushed */
13 
SRP0[ ]	/* SetRefPoint0 */
PUSHW[ ]	/* 2 values pushed */
28 1 
MIRP[10100]	/* MoveIndirectRelPt */
IUP[0]	/* InterpolateUntPts */
IUP[1]	/* InterpolateUntPts */";
};
visible = 1;
width = 786;
},
{
associatedMasterId = "BF33A826-8254-4501-9165-758AB68FE84B";
layerId = "260B5F24-B353-4D97-B526-706AD2B98008";
name = "Jan 25 23, 14:59";
paths = (
{
closed = 1;
nodes = (
"124 333 LINE",
"124 0 LINE",
"391 0 LINE SMOOTH",
"496.333 0 OFFCURVE",
"585.5 36.333 OFFCURVE",
"647.5 99 CURVE SMOOTH",
"709.5 161.667 OFFCURVE",
"745 251.333 OFFCURVE",
"745 358 CURVE SMOOTH",
"745 466 OFFCURVE",
"709.5 555.333 OFFCURVE",
"647.5 618 CURVE SMOOTH",
"585.5 680.667 OFFCURVE",
"496.333 717 OFFCURVE",
"391 717 CURVE SMOOTH",
"124 717 LINE",
"124 390 LINE",
"25 390 LINE",
"25 333 LINE",
"25 333 LINE"
);
},
{
closed = 1;
nodes = (
"645 358 LINE",
"645 186.371 OFFCURVE",
"549.139 79 OFFCURVE",
"391 79 CURVE SMOOTH",
"221 79 LINE",
"221 333 LINE",
"411 333 LINE",
"411 390 LINE",
"221 390 LINE",
"221 638 LINE",
"391 638 LINE SMOOTH",
"548.597 638 OFFCURVE",
"645 529.973 OFFCURVE",
"645 358 CURVE"
);
}
);
userData = {
assembly = "NPUSHB[ ]	/* 18 values pushed */
30 28 27 26 25 24 23 21 16 15 14 12 4 2 1 0 8 7 
CALL[ ]	/* CallFunction */
MPPEM[ ]	/* MeasurePixelPerEm */
PUSHB[ ]	/* 1 value pushed */
95 
LT[ ]	/* LessThan */
IF[ ]	/* If */
NPUSHB[ ]	/* 38 values pushed */
5 1 0 6 1 3 7 0 3 0 0 38 0 4 4 1 1 0 36 0 1 1 11 31 0 7 7 2 1 0 36 0 2 2 12 2 32 5 
ELSE[ ]	/* Else */
MPPEM[ ]	/* MeasurePixelPerEm */
PUSHB[ ]	/* 1 value pushed */
108 
LT[ ]	/* LessThan */
IF[ ]	/* If */
NPUSHB[ ]	/* 36 values pushed */
0 1 0 4 0 1 4 1 0 38 5 1 0 6 1 3 7 0 3 0 0 38 0 7 7 2 1 0 36 0 2 2 15 2 32 4 
ELSE[ ]	/* Else */
MPPEM[ ]	/* MeasurePixelPerEm */
PUSHB[ ]	/* 1 value pushed */
232 
LT[ ]	/* LessThan */
IF[ ]	/* If */
NPUSHB[ ]	/* 45 values pushed */
0 1 0 4 0 1 4 1 0 38 5 1 0 6 1 3 7 0 3 0 0 38 0 7 2 2 7 1 0 35 0 7 7 2 1 0 36 0 2 7 2 1 0 33 5 
ELSE[ ]	/* Else */
NPUSHB[ ]	/* 53 values pushed */
0 1 0 4 0 1 4 1 0 38 0 5 0 6 3 5 6 0 0 38 0 0 0 3 7 0 3 0 0 38 0 7 2 2 7 1 0 35 0 7 7 2 1 0 36 0 2 7 2 1 0 33 6 
EIF[ ]	/* EndIf */
EIF[ ]	/* EndIf */
EIF[ ]	/* EndIf */
PUSHB[ ]	/* 1 value pushed */
56 
CALL[ ]	/* CallFunction */";
};
width = 789;
}
);
note = Eth;
rightKerningGroup = D;
unicode = 00D0;
},
{
glyphname = Dhook;
layers = (
{
anchors = (
{
name = bottom;
position = "{459, 0}";
},
{
name = center;
position = "{242, 357}";
},
{
name = top;
position = "{473, 700}";
}
);
components = (
{
name = SerifBottomLeft;
transform = "{1, 0, 0, 1, 236, 0}";
},
{
name = hookleft_caps_part;
}
);
layerId = "A1468767-BE48-4A45-9F09-053256197B3B";
paths = (
{
closed = 1;
nodes = (
"486 0 LINE SMOOTH",
"582 0 OFFCURVE",
"663 32 OFFCURVE",
"720 92 CURVE SMOOTH",
"777 152 OFFCURVE",
"810 239 OFFCURVE",
"810 350 CURVE SMOOTH",
"810 461 OFFCURVE",
"777 548 OFFCURVE",
"720 608 CURVE SMOOTH",
"663 668 OFFCURVE",
"582 700 OFFCURVE",
"486 700 CURVE SMOOTH",
"236 700 LINE",
"236 0 LINE"
);
},
{
closed = 1;
nodes = (
"248 690 LINE",
"486 690 LINE SMOOTH",
"681 690 OFFCURVE",
"797 557 OFFCURVE",
"797 350 CURVE SMOOTH",
"797 146 OFFCURVE",
"684 10 OFFCURVE",
"486 10 CURVE SMOOTH",
"248 10 LINE"
);
}
);
width = 853;
},
{
anchors = (
{
name = bottom;
position = "{497, 0}";
},
{
name = center;
position = "{288, 357}";
},
{
name = top;
position = "{509, 717}";
}
);
components = (
{
name = SerifBottomLeft;
transform = "{1, 0, 0, 1, 241, 0}";
},
{
name = hookleft_caps_part;
}
);
layerId = "BF33A826-8254-4501-9165-758AB68FE84B";
paths = (
{
closed = 1;
nodes = (
"509 0 LINE SMOOTH",
"614 0 OFFCURVE",
"703 36 OFFCURVE",
"765 99 CURVE SMOOTH",
"827 162 OFFCURVE",
"862 251 OFFCURVE",
"862 358 CURVE SMOOTH",
"862 466 OFFCURVE",
"827 555 OFFCURVE",
"765 618 CURVE SMOOTH",
"703 681 OFFCURVE",
"614 717 OFFCURVE",
"509 717 CURVE SMOOTH",
"241 717 LINE",
"241 0 LINE"
);
},
{
closed = 1;
nodes = (
"339 638 LINE",
"509 638 LINE SMOOTH",
"667 638 OFFCURVE",
"763 530 OFFCURVE",
"763 358 CURVE SMOOTH",
"763 186 OFFCURVE",
"667 79 OFFCURVE",
"509 79 CURVE SMOOTH",
"339 79 LINE"
);
}
);
width = 892;
},
{
anchors = (
{
name = bottom;
position = "{502, 0}";
},
{
name = center;
position = "{333, 364}";
},
{
name = top;
position = "{516, 729}";
}
);
components = (
{
name = SerifBottomLeft;
transform = "{1, 0, 0, 1, 246, 0}";
},
{
name = hookleft_caps_part;
}
);
layerId = "2C516476-8145-48E3-8501-3D313ADE77C9";
paths = (
{
closed = 1;
nodes = (
"529 0 LINE SMOOTH",
"642 0 OFFCURVE",
"738 39 OFFCURVE",
"804 104 CURVE SMOOTH",
"870 168 OFFCURVE",
"907 260 OFFCURVE",
"907 365 CURVE SMOOTH",
"907 469 OFFCURVE",
"870 561 OFFCURVE",
"804 626 CURVE SMOOTH",
"738 690 OFFCURVE",
"642 729 OFFCURVE",
"529 729 CURVE SMOOTH",
"246 729 LINE",
"246 0 LINE"
);
},
{
closed = 1;
nodes = (
"416 599 LINE",
"529 599 LINE SMOOTH",
"660 599 OFFCURVE",
"734 506 OFFCURVE",
"734 365 CURVE SMOOTH",
"734 223 OFFCURVE",
"660 130 OFFCURVE",
"529 130 CURVE SMOOTH",
"416 130 LINE"
);
}
);
width = 922;
}
);
leftMetricsKey = Bhook;
rightMetricsKey = D;
unicode = 018A;
},
{
glyphname = E;
layers = (
{
anchors = (
{
name = bottom;
position = "{315, 0}";
},
{
name = ogonek;
position = "{417, 3}";
},
{
name = top;
position = "{315, 700}";
}
);
components = (
{
name = SerifUpLeftCaps;
transform = "{1, 0, 0, 1, 534, 11}";
},
{
name = SerifUpRightCaps;
transform = "{-1, 0, 0, -1, 533, 689}";
},
{
name = SerifSpurLeft;
transform = "{1, 0, 0, 1, 124, 700}";
},
{
name = SerifBottomLeft;
transform = "{1, 0, 0, 1, 124, 0}";
}
);
layerId = "A1468767-BE48-4A45-9F09-053256197B3B";
paths = (
{
closed = 1;
nodes = (
"534 0 LINE",
"534 11 LINE",
"136 11 LINE",
"136 350 LINE",
"445 350 LINE",
"445 361 LINE",
"136 361 LINE",
"136 689 LINE",
"533 689 LINE",
"533 700 LINE",
"124 700 LINE",
"124 0 LINE"
);
}
);
userData = {
assembly = "PUSHW[ ]	/* 4 values pushed */
7 3 10 4 
CALL[ ]	/* CallFunction */
PUSHW[ ]	/* 1 value pushed */
7 
SRP0[ ]	/* SetRefPoint0 */
PUSHW[ ]	/* 1 value pushed */
2 
MDRP[10000]	/* MoveDirectRelPt */
SVTCA[0]	/* SetFreedomAndProjectionVectorToAxis */
PUSHW[ ]	/* 1 value pushed */
0 
RCVT[ ]	/* ReadCVT */
IF[ ]	/* If */
PUSHW[ ]	/* 1 value pushed */
0 
MDAP[1]	/* MoveDirectAbsPt */
ELSE[ ]	/* Else */
PUSHW[ ]	/* 2 values pushed */
0 11 
MIAP[0]	/* MoveIndirectAbsPt */
EIF[ ]	/* EndIf */
PUSHW[ ]	/* 1 value pushed */
0 
RCVT[ ]	/* ReadCVT */
IF[ ]	/* If */
PUSHW[ ]	/* 1 value pushed */
9 
MDAP[1]	/* MoveDirectAbsPt */
ELSE[ ]	/* Else */
PUSHW[ ]	/* 2 values pushed */
9 5 
MIAP[0]	/* MoveIndirectAbsPt */
EIF[ ]	/* EndIf */
PUSHW[ ]	/* 4 values pushed */
4 1 5 4 
CALL[ ]	/* CallFunction */
PUSHW[ ]	/* 1 value pushed */
0 
SRP0[ ]	/* SetRefPoint0 */
PUSHW[ ]	/* 2 values pushed */
1 1 
MIRP[10100]	/* MoveIndirectRelPt */
PUSHW[ ]	/* 1 value pushed */
9 
SRP0[ ]	/* SetRefPoint0 */
PUSHW[ ]	/* 2 values pushed */
7 1 
MIRP[10100]	/* MoveIndirectRelPt */
IUP[0]	/* InterpolateUntPts */
IUP[1]	/* InterpolateUntPts */";
};
width = 582;
},
{
anchors = (
{
name = bottom;
position = "{323, 0}";
},
{
name = ogonek;
position = "{395, 3}";
},
{
name = top;
position = "{301, 716}";
}
);
components = (
{
name = SerifUpLeftCaps;
transform = "{1, 0, 0, 1, 547, 79}";
},
{
name = SerifUpRightCaps;
transform = "{-1, 0, 0, -1, 547, 638}";
},
{
name = SerifSpurLeft;
transform = "{1, 0, 0, 1, 105, 717}";
},
{
name = SerifBottomLeft;
transform = "{1, 0, 0, 1, 105, 0}";
}
);
layerId = "BF33A826-8254-4501-9165-758AB68FE84B";
paths = (
{
closed = 1;
nodes = (
"547 0 LINE",
"547 79 LINE",
"203 79 LINE",
"203 323 LINE",
"467 323 LINE",
"467 399 LINE",
"203 399 LINE",
"203 638 LINE",
"547 638 LINE",
"547 717 LINE",
"105 717 LINE",
"105 0 LINE"
);
}
);
userData = {
assembly = "NPUSHB[ ]	/* 18 values pushed */
0 0 0 11 0 11 10 9 8 7 6 5 4 3 2 1 7 7 
CALL[ ]	/* CallFunction */
MPPEM[ ]	/* MeasurePixelPerEm */
PUSHB[ ]	/* 1 value pushed */
95 
LT[ ]	/* LessThan */
IF[ ]	/* If */
NPUSHB[ ]	/* 37 values pushed */
0 1 0 2 3 1 2 0 0 38 0 0 0 5 0 0 36 6 1 5 5 11 31 0 3 3 4 0 0 36 0 4 4 12 4 32 5 
ELSE[ ]	/* Else */
MPPEM[ ]	/* MeasurePixelPerEm */
PUSHB[ ]	/* 1 value pushed */
108 
LT[ ]	/* LessThan */
IF[ ]	/* If */
NPUSHB[ ]	/* 35 values pushed */
6 1 5 0 0 1 5 0 0 0 38 0 1 0 2 3 1 2 0 0 38 0 3 3 4 0 0 36 0 4 4 15 4 32 4 
ELSE[ ]	/* Else */
NPUSHB[ ]	/* 44 values pushed */
6 1 5 0 0 1 5 0 0 0 38 0 1 0 2 3 1 2 0 0 38 0 3 4 4 3 0 0 35 0 3 3 4 0 0 36 0 4 3 4 0 0 33 5 
EIF[ ]	/* EndIf */
EIF[ ]	/* EndIf */
PUSHB[ ]	/* 1 value pushed */
56 
CALL[ ]	/* CallFunction */";
};
width = 592;
},
{
anchors = (
{
name = bottom;
position = "{303, 0}";
},
{
name = ogonek;
position = "{436, 3}";
},
{
name = top;
position = "{303, 729}";
}
);
components = (
{
name = SerifUpLeftCaps;
transform = "{1, 0, 0, 1, 566, 130}";
},
{
name = SerifUpRightCaps;
transform = "{-1, 0, 0, -1, 566, 599}";
},
{
name = SerifSpurLeft;
transform = "{1, 0, 0, 1, 128, 729}";
},
{
name = SerifBottomLeft;
transform = "{1, 0, 0, 1, 97, 0}";
}
);
layerId = "2C516476-8145-48E3-8501-3D313ADE77C9";
paths = (
{
closed = 1;
nodes = (
"566 0 LINE",
"566 130 LINE",
"267 130 LINE",
"267 304 LINE",
"491 304 LINE",
"491 429 LINE",
"267 429 LINE",
"267 599 LINE",
"566 599 LINE",
"566 729 LINE",
"97 729 LINE",
"97 0 LINE"
);
}
);
userData = {
assembly = "NPUSHB[ ]	/* 18 values pushed */
0 0 0 11 0 11 10 9 8 7 6 5 4 3 2 1 7 7 
CALL[ ]	/* CallFunction */
MPPEM[ ]	/* MeasurePixelPerEm */
PUSHB[ ]	/* 1 value pushed */
94 
LT[ ]	/* LessThan */
IF[ ]	/* If */
NPUSHB[ ]	/* 37 values pushed */
0 1 0 2 3 1 2 0 0 38 0 0 0 5 0 0 36 6 1 5 5 11 31 0 3 3 4 0 0 36 0 4 4 12 4 32 5 
ELSE[ ]	/* Else */
NPUSHB[ ]	/* 44 values pushed */
6 1 5 0 0 1 5 0 0 0 38 0 1 0 2 3 1 2 0 0 38 0 3 4 4 3 0 0 35 0 3 3 4 0 0 36 0 4 3 4 0 0 33 5 
EIF[ ]	/* EndIf */
PUSHB[ ]	/* 1 value pushed */
56 
CALL[ ]	/* CallFunction */";
};
width = 599;
}
);
leftMetricsKey = H;
note = E;
rightKerningGroup = E;
unicode = 0045;
},
{
glyphname = Eopen;
layers = (
{
anchors = (
{
name = bottom;
position = "{296, 0}";
},
{
name = top;
position = "{321, 700}";
}
);
components = (
{
name = SerifUpRightCaps;
transform = "{-1, 0, 0, -1, 527, 636}";
}
);
layerId = "A1468767-BE48-4A45-9F09-053256197B3B";
paths = (
{
closed = 1;
nodes = (
"418.168 -8 OFFCURVE",
"503.649 35.158 OFFCURVE",
"538 82 CURVE",
"534 85 LINE SMOOTH",
"533 86 OFFCURVE",
"531.333 88 OFFCURVE",
"530 88 CURVE SMOOTH",
"528.667 88 OFFCURVE",
"528 88 OFFCURVE",
"526 85 CURVE SMOOTH",
"489 32 OFFCURVE",
"389 2 OFFCURVE",
"323 2 CURVE SMOOTH",
"183.105 2 OFFCURVE",
"82 77.988 OFFCURVE",
"82 194 CURVE SMOOTH",
"82 304.607 OFFCURVE",
"180.444 382 OFFCURVE",
"327 382 CURVE SMOOTH",
"439 382 LINE",
"439 392 LINE",
"327 392 LINE SMOOTH",
"210.343 392 OFFCURVE",
"102 437.444 OFFCURVE",
"102 535 CURVE SMOOTH",
"102 630.532 OFFCURVE",
"188.574 697 OFFCURVE",
"321 697 CURVE SMOOTH",
"389 697 OFFCURVE",
"437 681 OFFCURVE",
"468 665 CURVE SMOOTH",
"492 652 OFFCURVE",
"517 631 OFFCURVE",
"520 631 CURVE SMOOTH",
"521.333 631 OFFCURVE",
"522.667 631.667 OFFCURVE",
"524 633 CURVE SMOOTH",
"527 636 LINE",
"480.333 678.667 OFFCURVE",
"415.667 707 OFFCURVE",
"321 707 CURVE SMOOTH",
"185.398 707 OFFCURVE",
"91 639.515 OFFCURVE",
"91 535 CURVE SMOOTH",
"91 455.849 OFFCURVE",
"155.204 398.98 OFFCURVE",
"275 387 CURVE",
"144.428 372.218 OFFCURVE",
"70 288.569 OFFCURVE",
"70 194 CURVE SMOOTH",
"70 69.74 OFFCURVE",
"173.18 -8 OFFCURVE",
"323 -8 CURVE SMOOTH"
);
},
{
closed = 1;
nodes = (
"527 636 LINE",
"515 632 LINE",
"527 572 LINE"
);
}
);
width = 591;
},
{
anchors = (
{
name = bottom;
position = "{297, 0}";
},
{
name = top;
position = "{323, 737}";
}
);
components = (
{
name = SerifUpRightCaps;
transform = "{-1, 0, 0, -1, 551, 614}";
}
);
layerId = "BF33A826-8254-4501-9165-758AB68FE84B";
paths = (
{
closed = 1;
nodes = (
"408.636 -8 OFFCURVE",
"509.248 27.191 OFFCURVE",
"566 102 CURVE",
"531 143 LINE SMOOTH",
"526 148 OFFCURVE",
"521.333 150 OFFCURVE",
"516 150 CURVE SMOOTH",
"510.667 150 OFFCURVE",
"505 146 OFFCURVE",
"500 142 CURVE SMOOTH",
"460 108 OFFCURVE",
"418.994 75 OFFCURVE",
"332 75 CURVE SMOOTH",
"222.9 75 OFFCURVE",
"150 132.057 OFFCURVE",
"150 217 CURVE SMOOTH",
"150 292.111 OFFCURVE",
"216.136 351 OFFCURVE",
"325 351 CURVE SMOOTH",
"450 351 LINE",
"450 422 LINE",
"333 422 LINE SMOOTH",
"239.748 422 OFFCURVE",
"169 456.573 OFFCURVE",
"169 531 CURVE SMOOTH",
"169 598.533 OFFCURVE",
"226.379 644 OFFCURVE",
"323 644 CURVE SMOOTH",
"383 644 OFFCURVE",
"423.167 631.333 OFFCURVE",
"450.5 618 CURVE SMOOTH",
"470.473 608.257 OFFCURVE",
"494.197 592 OFFCURVE",
"505 592 CURVE SMOOTH",
"511.667 592 OFFCURVE",
"520 593 OFFCURVE",
"529 608 CURVE SMOOTH",
"551 646 LINE",
"499 692.667 OFFCURVE",
"427.333 725 OFFCURVE",
"326 725 CURVE SMOOTH",
"175.531 725 OFFCURVE",
"67 645.65 OFFCURVE",
"67 536 CURVE SMOOTH",
"67 468.25 OFFCURVE",
"106.629 414.963 OFFCURVE",
"194 390 CURVE",
"108.116 361.372 OFFCURVE",
"51 290.739 OFFCURVE",
"51 208 CURVE SMOOTH",
"51 71.991 OFFCURVE",
"170.057 -8 OFFCURVE",
"308 -8 CURVE SMOOTH"
);
},
{
closed = 1;
nodes = (
"551 646 LINE",
"503 591 LINE",
"551 582 LINE"
);
}
);
width = 593;
},
{
anchors = (
{
name = bottom;
position = "{298, 0}";
},
{
name = top;
position = "{298, 749}";
}
);
components = (
{
name = SerifUpRightCaps;
transform = "{-1, 0, 0, -1, 572, 591}";
}
);
layerId = "2C516476-8145-48E3-8501-3D313ADE77C9";
paths = (
{
closed = 1;
nodes = (
"405.7 -7 OFFCURVE",
"508.208 18.872 OFFCURVE",
"590 116 CURVE",
"528 186 LINE SMOOTH",
"521 194 OFFCURVE",
"513 197 OFFCURVE",
"505 197 CURVE SMOOTH",
"494.333 197 OFFCURVE",
"485 191.667 OFFCURVE",
"477 185 CURVE SMOOTH",
"439.112 153.427 OFFCURVE",
"411.775 130 OFFCURVE",
"340 130 CURVE SMOOTH",
"256.686 130 OFFCURVE",
"208 173.11 OFFCURVE",
"208 234 CURVE SMOOTH",
"208 284.49 OFFCURVE",
"246.649 327 OFFCURVE",
"323 327 CURVE SMOOTH",
"460 327 LINE",
"460 444 LINE",
"338 444 LINE SMOOTH",
"259.333 444 OFFCURVE",
"226 474.667 OFFCURVE",
"226 528 CURVE SMOOTH",
"226 572.39 OFFCURVE",
"258.58 604 OFFCURVE",
"325 604 CURVE SMOOTH",
"352 604 OFFCURVE",
"385 595 OFFCURVE",
"415 585 CURVE SMOOTH",
"449 574 OFFCURVE",
"479 562 OFFCURVE",
"492 562 CURVE SMOOTH",
"504 562 OFFCURVE",
"520 565 OFFCURVE",
"534 589 CURVE SMOOTH",
"572 653 LINE",
"514.667 705 OFFCURVE",
"438 738 OFFCURVE",
"330 738 CURVE SMOOTH",
"165.077 738 OFFCURVE",
"46 650.144 OFFCURVE",
"46 536 CURVE SMOOTH",
"46 476.841 OFFCURVE",
"78.332 419.012 OFFCURVE",
"152 392 CURVE",
"82.593 358.684 OFFCURVE",
"35 297.601 OFFCURVE",
"35 219 CURVE SMOOTH",
"35 82 OFFCURVE",
"156 -7 OFFCURVE",
"295 -7 CURVE SMOOTH"
);
},
{
closed = 1;
nodes = (
"572 653 LINE",
"524 598 LINE",
"572 589 LINE"
);
}
);
width = 595;
}
);
unicode = 0190;
},
{
glyphname = Esh;
layers = (
{
components = (
{
name = SerifUpLeftCaps;
transform = "{1, 0, 0, 1, 550, 11}";
},
{
name = SerifUpRightCaps;
transform = "{-1, 0, 0, -1, 550, 689}";
}
);
layerId = "A1468767-BE48-4A45-9F09-053256197B3B";
paths = (
{
closed = 1;
nodes = (
"550 0 LINE",
"550 11 LINE",
"93 11 LINE SMOOTH",
"78.333 11 OFFCURVE",
"65.333 10.333 OFFCURVE",
"52 9 CURVE",
"60.667 17 OFFCURVE",
"71 29 OFFCURVE",
"84 46 CURVE SMOOTH",
"313 343 LINE SMOOTH",
"315 346 OFFCURVE",
"316 348 OFFCURVE",
"316 350 CURVE SMOOTH",
"316 352 OFFCURVE",
"315 354 OFFCURVE",
"313 357 CURVE SMOOTH",
"85 655 LINE SMOOTH",
"72 672 OFFCURVE",
"66.333 679.667 OFFCURVE",
"53 693 CURVE",
"67.667 689 OFFCURVE",
"79.667 689 OFFCURVE",
"93 689 CURVE SMOOTH",
"550 689 LINE",
"550 700 LINE",
"41 700 LINE",
"41 696 LINE SMOOTH",
"41 694.667 OFFCURVE",
"41 692 OFFCURVE",
"43 690 CURVE SMOOTH",
"306 349 LINE",
"44 11 LINE SMOOTH",
"42 8 OFFCURVE",
"41 6 OFFCURVE",
"41 4 CURVE SMOOTH",
"41 0 LINE"
);
}
);
width = 599;
},
{
components = (
{
name = SerifUpLeftCaps;
transform = "{1, 0, 0, 1, 570, 76}";
},
{
name = SerifUpRightCaps;
transform = "{-1, 0, 0, -1, 570, 640}";
}
);
layerId = "BF33A826-8254-4501-9165-758AB68FE84B";
paths = (
{
closed = 1;
nodes = (
"570 0 LINE",
"570 76 LINE",
"204 76 LINE SMOOTH",
"184 76 OFFCURVE",
"163 74.667 OFFCURVE",
"139 72 CURVE",
"152.333 80 OFFCURVE",
"165 92 OFFCURVE",
"184 115 CURVE SMOOTH",
"347 315 LINE SMOOTH",
"367 340 OFFCURVE",
"372 352.333 OFFCURVE",
"372 367 CURVE SMOOTH",
"370 382 OFFCURVE",
"359 398 OFFCURVE",
"347 413 CURVE SMOOTH",
"202 594 LINE SMOOTH",
"184 617 OFFCURVE",
"164 632.333 OFFCURVE",
"136 647 CURVE",
"161.333 643 OFFCURVE",
"184.333 640 OFFCURVE",
"215 640 CURVE SMOOTH",
"570 640 LINE",
"570 717 LINE",
"33 717 LINE",
"33 675 LINE SMOOTH",
"33 664.333 OFFCURVE",
"39 654 OFFCURVE",
"45 647 CURVE SMOOTH",
"287 358 LINE",
"51 77 LINE SMOOTH",
"42 66 OFFCURVE",
"33 51.667 OFFCURVE",
"33 37 CURVE SMOOTH",
"33 0 LINE"
);
}
);
width = 608;
},
{
components = (
{
name = SerifUpLeftCaps;
transform = "{1, 0, 0, 1, 587, 126}";
},
{
name = SerifUpRightCaps;
transform = "{-1, 0, 0, -1, 587, 603}";
}
);
layerId = "2C516476-8145-48E3-8501-3D313ADE77C9";
paths = (
{
closed = 1;
nodes = (
"587 0 LINE",
"587 126 LINE",
"298 126 LINE SMOOTH",
"275.333 126 OFFCURVE",
"249 124 OFFCURVE",
"217 120 CURVE",
"233 129.333 OFFCURVE",
"248 141 OFFCURVE",
"270 167 CURVE SMOOTH",
"375 294 LINE SMOOTH",
"402 326 OFFCURVE",
"419 351.208 OFFCURVE",
"419 379 CURVE SMOOTH",
"419 399.926 OFFCURVE",
"405 420 OFFCURVE",
"376 456 CURVE SMOOTH",
"302 549 LINE",
"278 574.333 OFFCURVE",
"250 593.667 OFFCURVE",
"214 611 CURVE",
"246 605.667 OFFCURVE",
"278 603 OFFCURVE",
"318 603 CURVE SMOOTH",
"587 603 LINE",
"587 729 LINE",
"27 729 LINE",
"27 659 LINE SMOOTH",
"27 641.667 OFFCURVE",
"36 626 OFFCURVE",
"47 613 CURVE SMOOTH",
"269 364 LINE",
"58 128 LINE SMOOTH",
"41 109 OFFCURVE",
"27 85 OFFCURVE",
"27 61 CURVE SMOOTH",
"27 0 LINE"
);
}
);
width = 617;
}
);
unicode = 01A9;
},
{
glyphname = Ezh;
layers = (
{
components = (
{
name = SerifUpLeftCaps;
transform = "{-1, 0, 0, -1, 55, 689}";
}
);
layerId = "A1468767-BE48-4A45-9F09-053256197B3B";
paths = (
{
closed = 1;
nodes = (
"413.724 -8 OFFCURVE",
"516 92.47 OFFCURVE",
"516 223 CURVE SMOOTH",
"516 357 OFFCURVE",
"409 417 OFFCURVE",
"253 417 CURVE SMOOTH",
"224 417 LINE",
"494 688 LINE SMOOTH",
"497 691 OFFCURVE",
"498 695.333 OFFCURVE",
"498 698 CURVE SMOOTH",
"498 700 LINE",
"55 700 LINE",
"55 689 LINE",
"478 689 LINE",
"211 419 LINE SMOOTH",
"209 417 OFFCURVE",
"208 414 OFFCURVE",
"208 410 CURVE SMOOTH",
"208 407 LINE",
"252 407 LINE SMOOTH",
"418.668 407 OFFCURVE",
"504 338.089 OFFCURVE",
"504 221 CURVE SMOOTH",
"504 97.061 OFFCURVE",
"402.609 2 OFFCURVE",
"263 2 CURVE SMOOTH",
"171.046 2 OFFCURVE",
"85.962 45.556 OFFCURVE",
"59 86 CURVE",
"57.667 87.333 OFFCURVE",
"56.333 88 OFFCURVE",
"55 88 CURVE SMOOTH",
"54.333 88 OFFCURVE",
"53.333 87.333 OFFCURVE",
"52 86 CURVE SMOOTH",
"48 82 LINE",
"78.972 35.542 OFFCURVE",
"169.448 -8 OFFCURVE",
"263 -8 CURVE SMOOTH"
);
}
);
width = 576;
},
{
components = (
{
name = SerifUpLeftCaps;
transform = "{-1, 0, 0, -1, 47, 638}";
}
);
layerId = "BF33A826-8254-4501-9165-758AB68FE84B";
paths = (
{
closed = 1;
nodes = (
"414.857 -8 OFFCURVE",
"542 92.38 OFFCURVE",
"542 241 CURVE SMOOTH",
"542 362 OFFCURVE",
"460 442 OFFCURVE",
"299 442 CURVE SMOOTH",
"298 442 LINE",
"506 644 LINE SMOOTH",
"520 657 OFFCURVE",
"522 669 OFFCURVE",
"522 681 CURVE SMOOTH",
"522 717 LINE",
"47 717 LINE",
"47 638 LINE",
"386 638 LINE",
"189 444 LINE SMOOTH",
"178 433 OFFCURVE",
"175 422.667 OFFCURVE",
"175 412 CURVE SMOOTH",
"175 371 LINE",
"256 371 LINE SMOOTH",
"380.113 371 OFFCURVE",
"443 321.269 OFFCURVE",
"443 237 CURVE SMOOTH",
"443 144.533 OFFCURVE",
"372.433 75 OFFCURVE",
"263 75 CURVE SMOOTH",
"186.209 75 OFFCURVE",
"131.525 110.034 OFFCURVE",
"104 141 CURVE",
"92 150.333 OFFCURVE",
"87.667 152 OFFCURVE",
"81 152 CURVE SMOOTH",
"77 152 OFFCURVE",
"71 152 OFFCURVE",
"64 144 CURVE SMOOTH",
"26 102 LINE",
"78.218 34.116 OFFCURVE",
"168.564 -8 OFFCURVE",
"264 -8 CURVE SMOOTH"
);
}
);
width = 587;
},
{
components = (
{
name = SerifUpLeftCaps;
transform = "{-1, 0, 0, -1, 39, 599}";
}
);
layerId = "2C516476-8145-48E3-8501-3D313ADE77C9";
paths = (
{
closed = 1;
nodes = (
"424 -7 OFFCURVE",
"564 95 OFFCURVE",
"564 256 CURVE SMOOTH",
"564 366 OFFCURVE",
"480 458 OFFCURVE",
"358 458 CURVE SMOOTH",
"357 458 LINE",
"517 610 LINE SMOOTH",
"538 630 OFFCURVE",
"542 650.667 OFFCURVE",
"542 668 CURVE SMOOTH",
"542 729 LINE",
"39 729 LINE",
"39 599 LINE",
"312 599 LINE",
"171 464 LINE SMOOTH",
"153 447 OFFCURVE",
"147 428.667 OFFCURVE",
"147 414 CURVE SMOOTH",
"147 343 LINE",
"260 343 LINE SMOOTH",
"347.913 343 OFFCURVE",
"391 310.623 OFFCURVE",
"391 249 CURVE SMOOTH",
"391 182.195 OFFCURVE",
"346.215 130 OFFCURVE",
"264 130 CURVE SMOOTH",
"203.42 130 OFFCURVE",
"166.565 157.435 OFFCURVE",
"142 182 CURVE",
"123.943 195.542 OFFCURVE",
"114.45 200 OFFCURVE",
"102 200 CURVE SMOOTH",
"95.333 200 OFFCURVE",
"86 201 OFFCURVE",
"74 188 CURVE SMOOTH",
"8 116 LINE",
"80.703 32.911 OFFCURVE",
"167.816 -7 OFFCURVE",
"265 -7 CURVE SMOOTH"
);
}
);
width = 596;
}
);
unicode = 01B7;
},
{
glyphname = F;
layers = (
{
components = (
{
name = SerifUpRightCaps;
transform = "{-1, 0, 0, -1, 533, 689}";
},
{
name = SerifSpurLeft;
transform = "{1, 0, 0, 1, 124, 700}";
},
{
name = SerifBottomLeft;
transform = "{1, 0, 0, 1, 124, 0}";
},
{
name = SerifBottomRight;
transform = "{1, 0, 0, 1, 136, 0}";
}
);
layerId = "A1468767-BE48-4A45-9F09-053256197B3B";
paths = (
{
closed = 1;
nodes = (
"136 0 LINE",
"136 340 LINE",
"445 340 LINE",
"445 351 LINE",
"136 351 LINE",
"136 689 LINE",
"533 689 LINE",
"533 700 LINE",
"124 700 LINE",
"124 0 LINE"
);
}
);
userData = {
assembly = "PUSHW[ ]	/* 4 values pushed */
7 3 8 4 
CALL[ ]	/* CallFunction */
PUSHW[ ]	/* 1 value pushed */
7 
SRP0[ ]	/* SetRefPoint0 */
PUSHW[ ]	/* 1 value pushed */
2 
MDRP[10000]	/* MoveDirectRelPt */
SVTCA[0]	/* SetFreedomAndProjectionVectorToAxis */
PUSHW[ ]	/* 1 value pushed */
0 
RCVT[ ]	/* ReadCVT */
IF[ ]	/* If */
PUSHW[ ]	/* 1 value pushed */
0 
MDAP[1]	/* MoveDirectAbsPt */
ELSE[ ]	/* Else */
PUSHW[ ]	/* 2 values pushed */
0 11 
MIAP[0]	/* MoveIndirectAbsPt */
EIF[ ]	/* EndIf */
PUSHW[ ]	/* 1 value pushed */
0 
RCVT[ ]	/* ReadCVT */
IF[ ]	/* If */
PUSHW[ ]	/* 1 value pushed */
7 
MDAP[1]	/* MoveDirectAbsPt */
ELSE[ ]	/* Else */
PUSHW[ ]	/* 2 values pushed */
7 5 
MIAP[0]	/* MoveIndirectAbsPt */
EIF[ ]	/* EndIf */
PUSHW[ ]	/* 4 values pushed */
4 1 5 4 
CALL[ ]	/* CallFunction */
PUSHW[ ]	/* 1 value pushed */
0 
SRP0[ ]	/* SetRefPoint0 */
PUSHW[ ]	/* 2 values pushed */
1 1 
MIRP[10100]	/* MoveIndirectRelPt */
IUP[0]	/* InterpolateUntPts */
IUP[1]	/* InterpolateUntPts */";
};
width = 566;
},
{
components = (
{
name = SerifUpRightCaps;
transform = "{-1, 0, 0, -1, 566, 599}";
},
{
name = SerifSpurLeft;
transform = "{1, 0, 0, 1, 127, 729}";
},
{
name = SerifBottomLeft;
transform = "{1, 0, 0, 1, 97, 0}";
},
{
name = SerifBottomRight;
transform = "{1, 0, 0, 1, 267, 0}";
}
);
layerId = "2C516476-8145-48E3-8501-3D313ADE77C9";
paths = (
{
closed = 1;
nodes = (
"267 0 LINE",
"267 284 LINE",
"516 284 LINE",
"516 414 LINE",
"267 414 LINE",
"267 599 LINE",
"566 599 LINE",
"566 729 LINE",
"97 729 LINE",
"97 0 LINE"
);
}
);
userData = {
assembly = "NPUSHB[ ]	/* 16 values pushed */
0 0 0 9 0 9 8 7 6 5 4 3 2 1 6 7 
CALL[ ]	/* CallFunction */
MPPEM[ ]	/* MeasurePixelPerEm */
PUSHB[ ]	/* 1 value pushed */
94 
LT[ ]	/* LessThan */
IF[ ]	/* If */
NPUSHB[ ]	/* 30 values pushed */
0 1 0 2 3 1 2 0 0 38 0 0 0 4 0 0 36 5 1 4 4 11 31 0 3 3 12 3 32 4 
ELSE[ ]	/* Else */
NPUSHB[ ]	/* 39 values pushed */
0 3 2 3 53 5 1 4 0 0 1 4 0 0 0 38 0 1 2 2 1 0 0 35 0 1 1 2 0 0 36 0 2 1 2 0 0 33 5 
EIF[ ]	/* EndIf */
PUSHB[ ]	/* 1 value pushed */
56 
CALL[ ]	/* CallFunction */";
};
width = 597;
},
{
components = (
{
name = SerifUpRightCaps;
transform = "{-1, 0, 0, -1, 547, 638}";
},
{
name = SerifSpurLeft;
transform = "{1, 0, 0, 1, 105, 717}";
},
{
name = SerifBottomLeft;
transform = "{1, 0, 0, 1, 105, 0}";
},
{
name = SerifBottomRight;
transform = "{1, 0, 0, 1, 203, 0}";
}
);
layerId = "BF33A826-8254-4501-9165-758AB68FE84B";
paths = (
{
closed = 1;
nodes = (
"203 0 LINE",
"203 308 LINE",
"497 308 LINE",
"497 387 LINE",
"203 387 LINE",
"203 638 LINE",
"547 638 LINE",
"547 717 LINE",
"105 717 LINE",
"105 0 LINE"
);
}
);
userData = {
assembly = "NPUSHB[ ]	/* 16 values pushed */
0 0 0 9 0 9 8 7 6 5 4 3 2 1 6 7 
CALL[ ]	/* CallFunction */
MPPEM[ ]	/* MeasurePixelPerEm */
PUSHB[ ]	/* 1 value pushed */
95 
LT[ ]	/* LessThan */
IF[ ]	/* If */
NPUSHB[ ]	/* 30 values pushed */
0 1 0 2 3 1 2 0 0 38 0 0 0 4 0 0 36 5 1 4 4 11 31 0 3 3 12 3 32 4 
ELSE[ ]	/* Else */
MPPEM[ ]	/* MeasurePixelPerEm */
PUSHB[ ]	/* 1 value pushed */
108 
LT[ ]	/* LessThan */
IF[ ]	/* If */
NPUSHB[ ]	/* 28 values pushed */
5 1 4 0 0 1 4 0 0 0 38 0 1 0 2 3 1 2 0 0 38 0 3 3 15 3 32 3 
ELSE[ ]	/* Else */
NPUSHB[ ]	/* 39 values pushed */
0 3 2 3 53 5 1 4 0 0 1 4 0 0 0 38 0 1 2 2 1 0 0 35 0 1 1 2 0 0 36 0 2 1 2 0 0 33 5 
EIF[ ]	/* EndIf */
EIF[ ]	/* EndIf */
PUSHB[ ]	/* 1 value pushed */
56 
CALL[ ]	/* CallFunction */";
};
width = 597;
},
{
associatedMasterId = "A1468767-BE48-4A45-9F09-053256197B3B";
layerId = "6DF824DE-3784-488C-BE84-91CF5971614D";
name = "Jan 15 23, 17:20";
paths = (
{
closed = 1;
nodes = (
"58 708 LINE",
"58 689 LINE SMOOTH",
"58 678 OFFCURVE",
"65 672 OFFCURVE",
"78 671 CURVE",
"143 669 LINE",
"143 40 LINE",
"78 38 LINE",
"65 37 OFFCURVE",
"58 31 OFFCURVE",
"58 20 CURVE SMOOTH",
"58 0 LINE",
"278 0 LINE",
"278 20 LINE SMOOTH",
"278 31 OFFCURVE",
"272 37 OFFCURVE",
"259 38 CURVE",
"194 40 LINE",
"194 325 LINE",
"458 325 LINE",
"458 368 LINE",
"194 368 LINE",
"194 666 LINE",
"523 666 LINE",
"527 586 LINE",
"528 570 OFFCURVE",
"535 562 OFFCURVE",
"549 562 CURVE SMOOTH",
"573 562 LINE",
"573 708 LINE"
);
}
);
userData = {
assembly = "PUSHW[ ]	/* 4 values pushed */
7 3 8 4 
CALL[ ]	/* CallFunction */
PUSHW[ ]	/* 1 value pushed */
7 
SRP0[ ]	/* SetRefPoint0 */
PUSHW[ ]	/* 1 value pushed */
2 
MDRP[10000]	/* MoveDirectRelPt */
SVTCA[0]	/* SetFreedomAndProjectionVectorToAxis */
PUSHW[ ]	/* 1 value pushed */
0 
RCVT[ ]	/* ReadCVT */
IF[ ]	/* If */
PUSHW[ ]	/* 1 value pushed */
0 
MDAP[1]	/* MoveDirectAbsPt */
ELSE[ ]	/* Else */
PUSHW[ ]	/* 2 values pushed */
0 11 
MIAP[0]	/* MoveIndirectAbsPt */
EIF[ ]	/* EndIf */
PUSHW[ ]	/* 1 value pushed */
0 
RCVT[ ]	/* ReadCVT */
IF[ ]	/* If */
PUSHW[ ]	/* 1 value pushed */
7 
MDAP[1]	/* MoveDirectAbsPt */
ELSE[ ]	/* Else */
PUSHW[ ]	/* 2 values pushed */
7 5 
MIAP[0]	/* MoveIndirectAbsPt */
EIF[ ]	/* EndIf */
PUSHW[ ]	/* 4 values pushed */
4 1 5 4 
CALL[ ]	/* CallFunction */
PUSHW[ ]	/* 1 value pushed */
0 
SRP0[ ]	/* SetRefPoint0 */
PUSHW[ ]	/* 2 values pushed */
1 1 
MIRP[10100]	/* MoveIndirectRelPt */
IUP[0]	/* InterpolateUntPts */
IUP[1]	/* InterpolateUntPts */";
};
width = 577;
},
{
associatedMasterId = "BF33A826-8254-4501-9165-758AB68FE84B";
layerId = "9A82D578-2A5F-40B6-8EAB-23C87EAA3249";
name = "Jan 15 23, 17:20";
paths = (
{
closed = 1;
nodes = (
"128 716 LINE",
"56 716 LINE",
"56 674 LINE SMOOTH",
"56 664 OFFCURVE",
"61 657 OFFCURVE",
"71 655 CURVE",
"77 653 OFFCURVE",
"96 649 OFFCURVE",
"128 643 CURVE",
"128 72 LINE",
"71 61 LINE SMOOTH",
"61 59 OFFCURVE",
"56 52 OFFCURVE",
"56 42 CURVE SMOOTH",
"56 0 LINE",
"298 0 LINE",
"298 42 LINE SMOOTH",
"298 52 OFFCURVE",
"292 59 OFFCURVE",
"282 61 CURVE SMOOTH",
"252 67 OFFCURVE",
"234 70 OFFCURVE",
"226 72 CURVE",
"226 308 LINE",
"498 308 LINE",
"498 386 LINE",
"226 386 LINE",
"226 637 LINE",
"510 637 LINE",
"514 589 OFFCURVE",
"518 563 OFFCURVE",
"518 560 CURVE",
"520 548 OFFCURVE",
"526 543 OFFCURVE",
"538 543 CURVE SMOOTH",
"587 543 LINE",
"587 716 LINE"
);
}
);
userData = {
assembly = "NPUSHB[ ]	/* 16 values pushed */
0 0 0 9 0 9 8 7 6 5 4 3 2 1 6 7 
CALL[ ]	/* CallFunction */
MPPEM[ ]	/* MeasurePixelPerEm */
PUSHB[ ]	/* 1 value pushed */
95 
LT[ ]	/* LessThan */
IF[ ]	/* If */
NPUSHB[ ]	/* 30 values pushed */
0 1 0 2 3 1 2 0 0 38 0 0 0 4 0 0 36 5 1 4 4 11 31 0 3 3 12 3 32 4 
ELSE[ ]	/* Else */
MPPEM[ ]	/* MeasurePixelPerEm */
PUSHB[ ]	/* 1 value pushed */
108 
LT[ ]	/* LessThan */
IF[ ]	/* If */
NPUSHB[ ]	/* 28 values pushed */
5 1 4 0 0 1 4 0 0 0 38 0 1 0 2 3 1 2 0 0 38 0 3 3 15 3 32 3 
ELSE[ ]	/* Else */
NPUSHB[ ]	/* 39 values pushed */
0 3 2 3 53 5 1 4 0 0 1 4 0 0 0 38 0 1 2 2 1 0 0 35 0 1 1 2 0 0 36 0 2 1 2 0 0 33 5 
EIF[ ]	/* EndIf */
EIF[ ]	/* EndIf */
PUSHB[ ]	/* 1 value pushed */
56 
CALL[ ]	/* CallFunction */";
};
width = 566;
},
{
associatedMasterId = "2C516476-8145-48E3-8501-3D313ADE77C9";
layerId = "07C1F995-F5EE-4FB0-82EA-2900B1981213";
name = "Jan 15 23, 17:20";
paths = (
{
closed = 1;
nodes = (
"555 723 LINE",
"532 723 LINE",
"99 723 LINE",
"23 723 LINE",
"23 664 LINE SMOOTH",
"23 647 OFFCURVE",
"31 637 OFFCURVE",
"48 633 CURVE",
"49 633 OFFCURVE",
"51 633 OFFCURVE",
"54 632 CURVE",
"57 632 OFFCURVE",
"62 630 OFFCURVE",
"69 629 CURVE SMOOTH",
"76 628 OFFCURVE",
"87 626 OFFCURVE",
"99 624 CURVE",
"99 99 LINE",
"87 97 OFFCURVE",
"76 95 OFFCURVE",
"69 94 CURVE SMOOTH",
"62 93 OFFCURVE",
"57 91 OFFCURVE",
"54 91 CURVE SMOOTH",
"51 91 OFFCURVE",
"49 90 OFFCURVE",
"48 90 CURVE",
"31 86 OFFCURVE",
"23 76 OFFCURVE",
"23 59 CURVE SMOOTH",
"23 0 LINE",
"99 0 LINE",
"234 0 LINE",
"310 0 LINE",
"310 59 LINE SMOOTH",
"310 76 OFFCURVE",
"302 86 OFFCURVE",
"285 90 CURVE",
"284 90 OFFCURVE",
"282 91 OFFCURVE",
"279 91 CURVE SMOOTH",
"276 91 OFFCURVE",
"271 93 OFFCURVE",
"264 94 CURVE SMOOTH",
"257 95 OFFCURVE",
"246 97 OFFCURVE",
"234 99 CURVE",
"234 295 LINE",
"487 295 LINE",
"487 402 LINE",
"234 402 LINE",
"234 616 LINE",
"492 616 LINE",
"495 581 OFFCURVE",
"498 560 OFFCURVE",
"499 552 CURVE",
"502 540 OFFCURVE",
"509 533 OFFCURVE",
"522 533 CURVE SMOOTH",
"564 533 LINE",
"576 533 LINE",
"580 533 LINE",
"580 630 LINE",
"580 653 LINE",
"580 723 LINE"
);
}
);
userData = {
assembly = "NPUSHB[ ]	/* 16 values pushed */
0 0 0 9 0 9 8 7 6 5 4 3 2 1 6 7 
CALL[ ]	/* CallFunction */
MPPEM[ ]	/* MeasurePixelPerEm */
PUSHB[ ]	/* 1 value pushed */
94 
LT[ ]	/* LessThan */
IF[ ]	/* If */
NPUSHB[ ]	/* 30 values pushed */
0 1 0 2 3 1 2 0 0 38 0 0 0 4 0 0 36 5 1 4 4 11 31 0 3 3 12 3 32 4 
ELSE[ ]	/* Else */
NPUSHB[ ]	/* 39 values pushed */
0 3 2 3 53 5 1 4 0 0 1 4 0 0 0 38 0 1 2 2 1 0 0 35 0 1 1 2 0 0 36 0 2 1 2 0 0 33 5 
EIF[ ]	/* EndIf */
PUSHB[ ]	/* 1 value pushed */
56 
CALL[ ]	/* CallFunction */";
};
width = 557;
}
);
leftMetricsKey = H;
note = F;
rightKerningGroup = F;
unicode = 0046;
},
{
glyphname = Fhook;
layers = (
{
components = (
{
name = SerifUpRightCaps;
transform = "{-1, 0, 0, -1, 533, 689}";
},
{
name = SerifSpurLeft;
transform = "{1, 0, 0, 1, 124, 700}";
}
);
layerId = "A1468767-BE48-4A45-9F09-053256197B3B";
paths = (
{
closed = 1;
nodes = (
"136 0 LINE",
"136 340 LINE",
"445 340 LINE",
"445 351 LINE",
"136 351 LINE",
"136 689 LINE",
"533 689 LINE",
"533 700 LINE",
"124 700 LINE",
"124 0 LINE"
);
},
{
closed = 1;
nodes = (
"68 -188 OFFCURVE",
"136 -174 OFFCURVE",
"136 -83 CURVE SMOOTH",
"136 46 LINE",
"124 46 LINE",
"124 -82 LINE SMOOTH",
"124 -119 OFFCURVE",
"110 -178 OFFCURVE",
"41 -178 CURVE SMOOTH",
"7 -178 OFFCURVE",
"3 -165 OFFCURVE",
"-1 -172 CURVE SMOOTH",
"-4 -177 LINE",
"5 -182 OFFCURVE",
"20 -188 OFFCURVE",
"38 -188 CURVE SMOOTH"
);
}
);
width = 566;
},
{
components = (
{
name = SerifUpRightCaps;
transform = "{-1, 0, 0, -1, 547, 638}";
},
{
name = SerifSpurLeft;
transform = "{1, 0, 0, 1, 105, 717}";
}
);
layerId = "BF33A826-8254-4501-9165-758AB68FE84B";
paths = (
{
closed = 1;
nodes = (
"203 0 LINE",
"203 308 LINE",
"497 308 LINE",
"497 387 LINE",
"203 387 LINE",
"203 638 LINE",
"547 638 LINE",
"547 717 LINE",
"105 717 LINE",
"105 0 LINE"
);
},
{
closed = 1;
nodes = (
"136 -182 OFFCURVE",
"203 -140 OFFCURVE",
"203 -31 CURVE SMOOTH",
"203 50 LINE",
"105 50 LINE",
"105 -28 LINE SMOOTH",
"105 -101 OFFCURVE",
"84 -115 OFFCURVE",
"39 -115 CURVE SMOOTH",
"5 -115 OFFCURVE",
"0 -107 OFFCURVE",
"-2 -129 CURVE SMOOTH",
"-6 -172 LINE",
"8 -177 OFFCURVE",
"23 -182 OFFCURVE",
"51 -182 CURVE SMOOTH"
);
}
);
width = 597;
},
{
components = (
{
name = SerifUpRightCaps;
transform = "{-1, 0, 0, -1, 566, 599}";
},
{
name = SerifSpurLeft;
transform = "{1, 0, 0, 1, 127, 729}";
}
);
layerId = "2C516476-8145-48E3-8501-3D313ADE77C9";
paths = (
{
closed = 1;
nodes = (
"267 39 LINE",
"267 284 LINE",
"516 284 LINE",
"516 414 LINE",
"267 414 LINE",
"267 599 LINE",
"566 599 LINE",
"566 729 LINE",
"97 729 LINE",
"97 0 LINE"
);
},
{
closed = 1;
nodes = (
"128 -180 OFFCURVE",
"267 -164 OFFCURVE",
"267 10 CURVE SMOOTH",
"267 90 LINE",
"97 90 LINE",
"97 -1 LINE SMOOTH",
"97 -53 OFFCURVE",
"84 -68 OFFCURVE",
"42 -68 CURVE SMOOTH",
"12 -68 OFFCURVE",
"7 -74 OFFCURVE",
"6 -90 CURVE SMOOTH",
"1 -170 LINE",
"24 -175 OFFCURVE",
"57 -180 OFFCURVE",
"84 -180 CURVE SMOOTH"
);
}
);
width = 597;
}
);
leftKerningGroup = F;
rightKerningGroup = F;
unicode = 0191;
},
{
glyphname = G;
layers = (
{
anchors = (
{
name = bottom;
position = "{400, 0}";
},
{
name = top;
position = "{388, 700}";
}
);
components = (
{
name = SerifUpRightCaps;
transform = "{-1, 0, 0, -1, 638, 639}";
}
);
layerId = "A1468767-BE48-4A45-9F09-053256197B3B";
paths = (
{
closed = 1;
nodes = (
"489 -8 OFFCURVE",
"563 18 OFFCURVE",
"641 69 CURVE",
"641 301 LINE",
"467 301 LINE",
"467 296 LINE SMOOTH",
"467 293 OFFCURVE",
"469 291 OFFCURVE",
"473 291 CURVE SMOOTH",
"630 291 LINE",
"630 74 LINE",
"554 26 OFFCURVE",
"485 2 OFFCURVE",
"377 2 CURVE SMOOTH",
"179 2 OFFCURVE",
"55 141 OFFCURVE",
"55 350 CURVE SMOOTH",
"55 562 OFFCURVE",
"179 698 OFFCURVE",
"388 698 CURVE SMOOTH",
"489 698 OFFCURVE",
"572 678 OFFCURVE",
"628 641 CURVE",
"638 639 LINE",
"638 645 LINE",
"588 686 OFFCURVE",
"487 708 OFFCURVE",
"388 708 CURVE SMOOTH",
"286 708 OFFCURVE",
"199 676 OFFCURVE",
"136 612 CURVE SMOOTH",
"73 546 OFFCURVE",
"43 456 OFFCURVE",
"43 350 CURVE SMOOTH",
"43 238 OFFCURVE",
"77 150 OFFCURVE",
"135 89 CURVE SMOOTH",
"196 24 OFFCURVE",
"281 -8 OFFCURVE",
"377 -8 CURVE SMOOTH"
);
}
);
userData = {
assembly = "PUSHW[ ]	/* 1 value pushed */
50 
MDAP[1]	/* MoveDirectAbsPt */
PUSHW[ ]	/* 1 value pushed */
51 
MDAP[1]	/* MoveDirectAbsPt */
PUSHW[ ]	/* 1 value pushed */
12 
MDRP[11100]	/* MoveDirectRelPt */
PUSHW[ ]	/* 2 values pushed */
5 3 
MIRP[10100]	/* MoveIndirectRelPt */
PUSHW[ ]	/* 1 value pushed */
50 
SRP0[ ]	/* SetRefPoint0 */
PUSHW[ ]	/* 1 value pushed */
22 
MDRP[10000]	/* MoveDirectRelPt */
PUSHW[ ]	/* 1 value pushed */
22 
MDAP[1]	/* MoveDirectAbsPt */
PUSHW[ ]	/* 2 values pushed */
45 3 
MIRP[10100]	/* MoveIndirectRelPt */
SVTCA[0]	/* SetFreedomAndProjectionVectorToAxis */
PUSHW[ ]	/* 1 value pushed */
0 
RCVT[ ]	/* ReadCVT */
IF[ ]	/* If */
PUSHW[ ]	/* 1 value pushed */
27 
MDAP[1]	/* MoveDirectAbsPt */
ELSE[ ]	/* Else */
PUSHW[ ]	/* 2 values pushed */
27 11 
MIAP[0]	/* MoveIndirectAbsPt */
EIF[ ]	/* EndIf */
PUSHW[ ]	/* 1 value pushed */
0 
RCVT[ ]	/* ReadCVT */
IF[ ]	/* If */
PUSHW[ ]	/* 1 value pushed */
17 
MDAP[1]	/* MoveDirectAbsPt */
ELSE[ ]	/* Else */
PUSHW[ ]	/* 2 values pushed */
17 5 
MIAP[0]	/* MoveIndirectAbsPt */
EIF[ ]	/* EndIf */
PUSHW[ ]	/* 4 values pushed */
32 2 35 4 
CALL[ ]	/* CallFunction */
PUSHW[ ]	/* 4 values pushed */
11 1 6 4 
CALL[ ]	/* CallFunction */
PUSHW[ ]	/* 1 value pushed */
17 
SRP0[ ]	/* SetRefPoint0 */
PUSHW[ ]	/* 2 values pushed */
0 1 
MIRP[10100]	/* MoveIndirectRelPt */
PUSHW[ ]	/* 1 value pushed */
27 
SRP0[ ]	/* SetRefPoint0 */
PUSHW[ ]	/* 2 values pushed */
40 1 
MIRP[10100]	/* MoveIndirectRelPt */
IUP[0]	/* InterpolateUntPts */
IUP[1]	/* InterpolateUntPts */";
};
width = 718;
},
{
anchors = (
{
name = bottom;
position = "{394, 0}";
},
{
name = top;
position = "{381, 717}";
}
);
components = (
{
name = SerifUpRightCaps;
transform = "{-1, 0, 0, -1, 651, 599}";
}
);
layerId = "BF33A826-8254-4501-9165-758AB68FE84B";
paths = (
{
closed = 1;
nodes = (
"499 -8 OFFCURVE",
"594 22 OFFCURVE",
"657 70 CURVE",
"657 344 LINE",
"437 344 LINE",
"437 289 LINE SMOOTH",
"437 278 OFFCURVE",
"446 270 OFFCURVE",
"458 270 CURVE SMOOTH",
"569 270 LINE",
"569 113 LINE",
"521 87 OFFCURVE",
"465 71 OFFCURVE",
"401 71 CURVE SMOOTH",
"230 71 OFFCURVE",
"129 183 OFFCURVE",
"129 357 CURVE SMOOTH",
"129 529 OFFCURVE",
"228 642 OFFCURVE",
"404 642 CURVE SMOOTH",
"472 642 OFFCURVE",
"527 627 OFFCURVE",
"574 613 CURVE",
"651 599 LINE",
"651 672 LINE",
"566 701 OFFCURVE",
"487 725 OFFCURVE",
"397 725 CURVE SMOOTH",
"285 725 OFFCURVE",
"193 688 OFFCURVE",
"130 624 CURVE SMOOTH",
"66 559 OFFCURVE",
"30 466 OFFCURVE",
"30 360 CURVE SMOOTH",
"30 252 OFFCURVE",
"67 158 OFFCURVE",
"130 93 CURVE SMOOTH",
"197 24 OFFCURVE",
"290 -8 OFFCURVE",
"396 -8 CURVE SMOOTH"
);
}
);
userData = {
assembly = "NPUSHB[ ]	/* 20 values pushed */
1 0 44 42 37 35 29 27 19 17 12 11 8 6 0 52 1 52 8 7 
CALL[ ]	/* CallFunction */
MPPEM[ ]	/* MeasurePixelPerEm */
PUSHB[ ]	/* 1 value pushed */
95 
LT[ ]	/* LessThan */
IF[ ]	/* If */
NPUSHB[ ]	/* 59 values pushed */
33 1 5 6 5 1 0 1 13 1 3 0 3 30 0 5 6 2 6 5 2 50 0 2 0 1 0 2 1 1 0 38 0 6 6 4 1 0 36 0 4 4 17 31 7 1 0 0 3 1 0 36 0 3 3 18 3 32 7 
ELSE[ ]	/* Else */
MPPEM[ ]	/* MeasurePixelPerEm */
PUSHB[ ]	/* 1 value pushed */
108 
LT[ ]	/* LessThan */
IF[ ]	/* If */
NPUSHB[ ]	/* 57 values pushed */
33 1 5 6 5 1 0 1 13 1 3 0 3 30 0 5 6 2 6 5 2 50 0 4 0 6 5 4 6 1 0 38 0 2 0 1 0 2 1 1 0 38 7 1 0 0 3 1 0 36 0 3 3 21 3 32 6 
ELSE[ ]	/* Else */
NPUSHB[ ]	/* 67 values pushed */
33 1 5 6 5 1 0 1 13 1 3 0 3 30 0 5 6 2 6 5 2 50 0 4 0 6 5 4 6 1 0 38 0 2 0 1 0 2 1 1 0 38 7 1 0 3 3 0 1 0 35 7 1 0 0 3 1 0 36 0 3 0 3 1 0 33 7 
EIF[ ]	/* EndIf */
EIF[ ]	/* EndIf */
PUSHB[ ]	/* 1 value pushed */
56 
CALL[ ]	/* CallFunction */";
};
width = 732;
},
{
associatedMasterId = "A1468767-BE48-4A45-9F09-053256197B3B";
layerId = "D6F368FE-67A4-4F68-B98F-941ABD3E06F1";
name = "Jan 15 23, 17:20";
paths = (
{
closed = 1;
nodes = (
"464 321 LINE",
"464 293 LINE SMOOTH",
"464 290 OFFCURVE",
"467 282 OFFCURVE",
"477 282 CURVE SMOOTH",
"613 282 LINE",
"613 91 LINE",
"537 48 OFFCURVE",
"482 34 OFFCURVE",
"395 34 CURVE SMOOTH",
"210 34 OFFCURVE",
"100 166 OFFCURVE",
"100 354 CURVE SMOOTH",
"100 540 OFFCURVE",
"211 671 OFFCURVE",
"401 671 CURVE SMOOTH",
"485 671 OFFCURVE",
"552 660 OFFCURVE",
"601 637 CURVE",
"606 529 LINE",
"607 513 OFFCURVE",
"614 505 OFFCURVE",
"628 505 CURVE SMOOTH",
"652 505 LINE",
"652 665 LINE",
"591 693 OFFCURVE",
"479 715 OFFCURVE",
"403 715 CURVE SMOOTH",
"184 715 OFFCURVE",
"48 573 OFFCURVE",
"48 354 CURVE SMOOTH",
"48 140 OFFCURVE",
"183 -8 OFFCURVE",
"391 -8 CURVE SMOOTH",
"499 -8 OFFCURVE",
"573 13 OFFCURVE",
"659 70 CURVE",
"659 321 LINE"
);
}
);
userData = {
assembly = "PUSHW[ ]	/* 1 value pushed */
50 
MDAP[1]	/* MoveDirectAbsPt */
PUSHW[ ]	/* 1 value pushed */
51 
MDAP[1]	/* MoveDirectAbsPt */
PUSHW[ ]	/* 1 value pushed */
12 
MDRP[11100]	/* MoveDirectRelPt */
PUSHW[ ]	/* 2 values pushed */
5 3 
MIRP[10100]	/* MoveIndirectRelPt */
PUSHW[ ]	/* 1 value pushed */
50 
SRP0[ ]	/* SetRefPoint0 */
PUSHW[ ]	/* 1 value pushed */
22 
MDRP[10000]	/* MoveDirectRelPt */
PUSHW[ ]	/* 1 value pushed */
22 
MDAP[1]	/* MoveDirectAbsPt */
PUSHW[ ]	/* 2 values pushed */
45 3 
MIRP[10100]	/* MoveIndirectRelPt */
SVTCA[0]	/* SetFreedomAndProjectionVectorToAxis */
PUSHW[ ]	/* 1 value pushed */
0 
RCVT[ ]	/* ReadCVT */
IF[ ]	/* If */
PUSHW[ ]	/* 1 value pushed */
27 
MDAP[1]	/* MoveDirectAbsPt */
ELSE[ ]	/* Else */
PUSHW[ ]	/* 2 values pushed */
27 11 
MIAP[0]	/* MoveIndirectAbsPt */
EIF[ ]	/* EndIf */
PUSHW[ ]	/* 1 value pushed */
0 
RCVT[ ]	/* ReadCVT */
IF[ ]	/* If */
PUSHW[ ]	/* 1 value pushed */
17 
MDAP[1]	/* MoveDirectAbsPt */
ELSE[ ]	/* Else */
PUSHW[ ]	/* 2 values pushed */
17 5 
MIAP[0]	/* MoveIndirectAbsPt */
EIF[ ]	/* EndIf */
PUSHW[ ]	/* 4 values pushed */
32 2 35 4 
CALL[ ]	/* CallFunction */
PUSHW[ ]	/* 4 values pushed */
11 1 6 4 
CALL[ ]	/* CallFunction */
PUSHW[ ]	/* 1 value pushed */
17 
SRP0[ ]	/* SetRefPoint0 */
PUSHW[ ]	/* 2 values pushed */
0 1 
MIRP[10100]	/* MoveIndirectRelPt */
PUSHW[ ]	/* 1 value pushed */
27 
SRP0[ ]	/* SetRefPoint0 */
PUSHW[ ]	/* 2 values pushed */
40 1 
MIRP[10100]	/* MoveIndirectRelPt */
IUP[0]	/* InterpolateUntPts */
IUP[1]	/* InterpolateUntPts */";
};
width = 761;
},
{
associatedMasterId = "BF33A826-8254-4501-9165-758AB68FE84B";
layerId = "2F17BF88-B4D4-4112-B61A-F243A93CD929";
name = "Jan 15 23, 17:21";
paths = (
{
closed = 1;
nodes = (
"330 70 OFFCURVE",
"267 96 OFFCURVE",
"219 146 CURVE SMOOTH",
"170 198 OFFCURVE",
"146 268 OFFCURVE",
"146 358 CURVE SMOOTH",
"146 444 OFFCURVE",
"169 513 OFFCURVE",
"217 564 CURVE SMOOTH",
"240 588 OFFCURVE",
"268 607 OFFCURVE",
"300 620 CURVE SMOOTH",
"332 633 OFFCURVE",
"374 640 OFFCURVE",
"422 640 CURVE SMOOTH",
"470 640 OFFCURVE",
"513 634 OFFCURVE",
"551 624 CURVE",
"561 622 OFFCURVE",
"572 618 OFFCURVE",
"588 613 CURVE",
"592 557 OFFCURVE",
"596 527 OFFCURVE",
"596 522 CURVE",
"598 510 OFFCURVE",
"605 506 OFFCURVE",
"617 506 CURVE SMOOTH",
"665 506 LINE",
"665 672 LINE",
"574 706 OFFCURVE",
"490 724 OFFCURVE",
"412 724 CURVE SMOOTH",
"300 724 OFFCURVE",
"211 690 OFFCURVE",
"144 622 CURVE SMOOTH",
"78 556 OFFCURVE",
"46 468 OFFCURVE",
"46 358 CURVE SMOOTH",
"46 250 OFFCURVE",
"79 161 OFFCURVE",
"145 93 CURVE SMOOTH",
"211 25 OFFCURVE",
"296 -8 OFFCURVE",
"400 -8 CURVE SMOOTH",
"510 -8 OFFCURVE",
"600 17 OFFCURVE",
"672 69 CURVE",
"672 344 LINE",
"452 344 LINE",
"452 289 LINE SMOOTH",
"452 283 OFFCURVE",
"454 280 OFFCURVE",
"458 276 CURVE SMOOTH",
"462 272 OFFCURVE",
"468 270 OFFCURVE",
"474 270 CURVE SMOOTH",
"585 270 LINE",
"585 112 LINE",
"532 84 OFFCURVE",
"474 70 OFFCURVE",
"408 70 CURVE SMOOTH"
);
}
);
userData = {
assembly = "NPUSHB[ ]	/* 20 values pushed */
1 0 44 42 37 35 29 27 19 17 12 11 8 6 0 52 1 52 8 7 
CALL[ ]	/* CallFunction */
MPPEM[ ]	/* MeasurePixelPerEm */
PUSHB[ ]	/* 1 value pushed */
95 
LT[ ]	/* LessThan */
IF[ ]	/* If */
NPUSHB[ ]	/* 59 values pushed */
33 1 5 6 5 1 0 1 13 1 3 0 3 30 0 5 6 2 6 5 2 50 0 2 0 1 0 2 1 1 0 38 0 6 6 4 1 0 36 0 4 4 17 31 7 1 0 0 3 1 0 36 0 3 3 18 3 32 7 
ELSE[ ]	/* Else */
MPPEM[ ]	/* MeasurePixelPerEm */
PUSHB[ ]	/* 1 value pushed */
108 
LT[ ]	/* LessThan */
IF[ ]	/* If */
NPUSHB[ ]	/* 57 values pushed */
33 1 5 6 5 1 0 1 13 1 3 0 3 30 0 5 6 2 6 5 2 50 0 4 0 6 5 4 6 1 0 38 0 2 0 1 0 2 1 1 0 38 7 1 0 0 3 1 0 36 0 3 3 21 3 32 6 
ELSE[ ]	/* Else */
NPUSHB[ ]	/* 67 values pushed */
33 1 5 6 5 1 0 1 13 1 3 0 3 30 0 5 6 2 6 5 2 50 0 4 0 6 5 4 6 1 0 38 0 2 0 1 0 2 1 1 0 38 7 1 0 3 3 0 1 0 35 7 1 0 0 3 1 0 36 0 3 0 3 1 0 33 7 
EIF[ ]	/* EndIf */
EIF[ ]	/* EndIf */
PUSHB[ ]	/* 1 value pushed */
56 
CALL[ ]	/* CallFunction */";
};
width = 734;
},
{
associatedMasterId = "BF33A826-8254-4501-9165-758AB68FE84B";
components = (
{
name = SerifUpRightCaps;
transform = "{-1, 0, 0, -1, 666, 599}";
}
);
layerId = "D6AB30C4-04A4-41A7-B79C-71F722E5F6C6";
name = "Jan 24 23, 22:12";
paths = (
{
closed = 1;
nodes = (
"510.372 -8 OFFCURVE",
"599.405 16.226 OFFCURVE",
"672 70 CURVE",
"672 344 LINE",
"452 344 LINE",
"452 289 LINE SMOOTH",
"452 278 OFFCURVE",
"461 270 OFFCURVE",
"473 270 CURVE SMOOTH",
"584 270 LINE",
"584 113 LINE",
"529.524 84.329 OFFCURVE",
"481 71 OFFCURVE",
"407 71 CURVE SMOOTH",
"248.905 71 OFFCURVE",
"144 182.872 OFFCURVE",
"144 358 CURVE SMOOTH",
"144 528.809 OFFCURVE",
"244.609 641 OFFCURVE",
"409 641 CURVE SMOOTH",
"507.646 641 OFFCURVE",
"528.976 619.705 OFFCURVE",
"599 582 CURVE SMOOTH",
"605 578.667 OFFCURVE",
"610.667 577 OFFCURVE",
"616 577 CURVE SMOOTH",
"625.333 577 OFFCURVE",
"632 581 OFFCURVE",
"638 590 CURVE SMOOTH",
"666 634 LINE",
"601.88 692.545 OFFCURVE",
"519.188 725 OFFCURVE",
"412 725 CURVE SMOOTH",
"300 725 OFFCURVE",
"207.833 688.167 OFFCURVE",
"144.5 623.5 CURVE SMOOTH",
"81.167 558.833 OFFCURVE",
"45 467.333 OFFCURVE",
"45 358 CURVE SMOOTH",
"45 250 OFFCURVE",
"82.333 158 OFFCURVE",
"145 94 CURVE SMOOTH",
"207.667 30 OFFCURVE",
"296 -8 OFFCURVE",
"400 -8 CURVE SMOOTH"
);
}
);
userData = {
assembly = "NPUSHB[ ]	/* 20 values pushed */
1 0 44 42 37 35 29 27 19 17 12 11 8 6 0 52 1 52 8 7 
CALL[ ]	/* CallFunction */
MPPEM[ ]	/* MeasurePixelPerEm */
PUSHB[ ]	/* 1 value pushed */
95 
LT[ ]	/* LessThan */
IF[ ]	/* If */
NPUSHB[ ]	/* 59 values pushed */
33 1 5 6 5 1 0 1 13 1 3 0 3 30 0 5 6 2 6 5 2 50 0 2 0 1 0 2 1 1 0 38 0 6 6 4 1 0 36 0 4 4 17 31 7 1 0 0 3 1 0 36 0 3 3 18 3 32 7 
ELSE[ ]	/* Else */
MPPEM[ ]	/* MeasurePixelPerEm */
PUSHB[ ]	/* 1 value pushed */
108 
LT[ ]	/* LessThan */
IF[ ]	/* If */
NPUSHB[ ]	/* 57 values pushed */
33 1 5 6 5 1 0 1 13 1 3 0 3 30 0 5 6 2 6 5 2 50 0 4 0 6 5 4 6 1 0 38 0 2 0 1 0 2 1 1 0 38 7 1 0 0 3 1 0 36 0 3 3 21 3 32 6 
ELSE[ ]	/* Else */
NPUSHB[ ]	/* 67 values pushed */
33 1 5 6 5 1 0 1 13 1 3 0 3 30 0 5 6 2 6 5 2 50 0 4 0 6 5 4 6 1 0 38 0 2 0 1 0 2 1 1 0 38 7 1 0 3 3 0 1 0 35 7 1 0 0 3 1 0 36 0 3 0 3 1 0 33 7 
EIF[ ]	/* EndIf */
EIF[ ]	/* EndIf */
PUSHB[ ]	/* 1 value pushed */
56 
CALL[ ]	/* CallFunction */";
};
width = 734;
},
{
associatedMasterId = "2C516476-8145-48E3-8501-3D313ADE77C9";
layerId = "80E070A2-D3D6-4EBE-8113-534666BF613A";
name = "Jan 24 23, 22:14";
paths = (
{
closed = 1;
nodes = (
"434 362 LINE",
"434 286 LINE SMOOTH",
"434 279 OFFCURVE",
"436 274 OFFCURVE",
"441 269 CURVE SMOOTH",
"446 264 OFFCURVE",
"453 261 OFFCURVE",
"462 261 CURVE SMOOTH",
"552 261 LINE",
"552 130 LINE",
"532 120 OFFCURVE",
"510 112 OFFCURVE",
"488 107 CURVE SMOOTH",
"465 102 OFFCURVE",
"439 99 OFFCURVE",
"409 99 CURVE SMOOTH",
"375 99 OFFCURVE",
"343 105 OFFCURVE",
"314 117 CURVE SMOOTH",
"285 129 OFFCURVE",
"260 146 OFFCURVE",
"239 168 CURVE SMOOTH",
"218 190 OFFCURVE",
"202 217 OFFCURVE",
"190 250 CURVE SMOOTH",
"178 282 OFFCURVE",
"172 320 OFFCURVE",
"172 362 CURVE SMOOTH",
"172 401 OFFCURVE",
"178 436 OFFCURVE",
"189 467 CURVE SMOOTH",
"200 498 OFFCURVE",
"216 525 OFFCURVE",
"236 547 CURVE SMOOTH",
"256 569 OFFCURVE",
"281 586 OFFCURVE",
"310 598 CURVE SMOOTH",
"339 610 OFFCURVE",
"370 616 OFFCURVE",
"406 616 CURVE SMOOTH",
"470 616 OFFCURVE",
"527 608 OFFCURVE",
"577 591 CURVE",
"581 548 OFFCURVE",
"584 522 OFFCURVE",
"586 513 CURVE SMOOTH",
"589 501 OFFCURVE",
"596 495 OFFCURVE",
"609 495 CURVE SMOOTH",
"650 495 LINE",
"663 495 LINE",
"667 495 LINE",
"667 679 LINE",
"574 713 OFFCURVE",
"489 731 OFFCURVE",
"411 731 CURVE SMOOTH",
"410 731 LINE",
"404 731 LINE SMOOTH",
"349 730 OFFCURVE",
"299 721 OFFCURVE",
"255 704 CURVE SMOOTH",
"209 686 OFFCURVE",
"169 661 OFFCURVE",
"137 628 CURVE SMOOTH",
"104 595 OFFCURVE",
"79 556 OFFCURVE",
"61 511 CURVE SMOOTH",
"43 466 OFFCURVE",
"35 416 OFFCURVE",
"35 362 CURVE SMOOTH",
"35 308 OFFCURVE",
"44 258 OFFCURVE",
"62 213 CURVE SMOOTH",
"80 168 OFFCURVE",
"106 129 OFFCURVE",
"138 96 CURVE SMOOTH",
"170 63 OFFCURVE",
"209 38 OFFCURVE",
"253 20 CURVE SMOOTH",
"297 2 OFFCURVE",
"345 -8 OFFCURVE",
"398 -8 CURVE SMOOTH",
"428 -8 OFFCURVE",
"455 -6 OFFCURVE",
"481 -3 CURVE SMOOTH",
"507 0 OFFCURVE",
"532 5 OFFCURVE",
"554 11 CURVE SMOOTH",
"576 17 OFFCURVE",
"597 25 OFFCURVE",
"617 35 CURVE SMOOTH",
"637 45 OFFCURVE",
"656 57 OFFCURVE",
"674 70 CURVE",
"674 362 LINE"
);
}
);
userData = {
assembly = "NPUSHB[ ]	/* 20 values pushed */
1 0 43 41 36 34 27 25 17 15 10 9 6 4 0 51 1 51 8 7 
CALL[ ]	/* CallFunction */
MPPEM[ ]	/* MeasurePixelPerEm */
PUSHB[ ]	/* 1 value pushed */
94 
LT[ ]	/* LessThan */
IF[ ]	/* If */
NPUSHB[ ]	/* 59 values pushed */
31 1 6 4 3 1 0 1 11 1 3 0 3 30 0 5 6 2 6 5 2 50 0 2 0 1 0 2 1 1 0 38 0 6 6 4 1 0 36 0 4 4 17 31 7 1 0 0 3 1 0 36 0 3 3 18 3 32 7 
ELSE[ ]	/* Else */
NPUSHB[ ]	/* 67 values pushed */
31 1 6 4 3 1 0 1 11 1 3 0 3 30 0 5 6 2 6 5 2 50 0 4 0 6 5 4 6 1 0 38 0 2 0 1 0 2 1 1 0 38 7 1 0 3 3 0 1 0 35 7 1 0 0 3 1 0 36 0 3 0 3 1 0 33 7 
EIF[ ]	/* EndIf */
PUSHB[ ]	/* 1 value pushed */
56 
CALL[ ]	/* CallFunction */";
};
width = 712;
},
{
anchors = (
{
name = bottom;
position = "{393, 0}";
},
{
name = top;
position = "{380, 729}";
}
);
components = (
{
name = SerifUpRightCaps;
transform = "{-1, 0, 0, -1, 662, 578}";
}
);
layerId = "2C516476-8145-48E3-8501-3D313ADE77C9";
paths = (
{
closed = 1;
nodes = (
"502 -8 OFFCURVE",
"587 14 OFFCURVE",
"666 70 CURVE",
"666 378 LINE",
"407 378 LINE",
"407 285 LINE SMOOTH",
"407 268 OFFCURVE",
"420 255 OFFCURVE",
"441 255 CURVE SMOOTH",
"513 255 LINE",
"513 144 LINE",
"481 131 OFFCURVE",
"447 122 OFFCURVE",
"400 122 CURVE SMOOTH",
"273 122 OFFCURVE",
"188 218 OFFCURVE",
"188 365 CURVE SMOOTH",
"188 502 OFFCURVE",
"266 597 OFFCURVE",
"394 597 CURVE SMOOTH",
"460 597 OFFCURVE",
"534 589 OFFCURVE",
"587 561 CURVE",
"662 578 LINE",
"662 679 LINE",
"579 716 OFFCURVE",
"514 737 OFFCURVE",
"400 737 CURVE SMOOTH",
"283 737 OFFCURVE",
"187 699 OFFCURVE",
"120 633 CURVE SMOOTH",
"52 567 OFFCURVE",
"15 473 OFFCURVE",
"15 365 CURVE SMOOTH",
"15 258 OFFCURVE",
"56 165 OFFCURVE",
"122 99 CURVE SMOOTH",
"188 33 OFFCURVE",
"280 -8 OFFCURVE",
"387 -8 CURVE SMOOTH"
);
}
);
userData = {
assembly = "NPUSHB[ ]	/* 20 values pushed */
1 0 43 41 36 34 27 25 17 15 10 9 6 4 0 51 1 51 8 7 
CALL[ ]	/* CallFunction */
MPPEM[ ]	/* MeasurePixelPerEm */
PUSHB[ ]	/* 1 value pushed */
94 
LT[ ]	/* LessThan */
IF[ ]	/* If */
NPUSHB[ ]	/* 59 values pushed */
31 1 6 4 3 1 0 1 11 1 3 0 3 30 0 5 6 2 6 5 2 50 0 2 0 1 0 2 1 1 0 38 0 6 6 4 1 0 36 0 4 4 17 31 7 1 0 0 3 1 0 36 0 3 3 18 3 32 7 
ELSE[ ]	/* Else */
NPUSHB[ ]	/* 67 values pushed */
31 1 6 4 3 1 0 1 11 1 3 0 3 30 0 5 6 2 6 5 2 50 0 4 0 6 5 4 6 1 0 38 0 2 0 1 0 2 1 1 0 38 7 1 0 3 3 0 1 0 35 7 1 0 0 3 1 0 36 0 3 0 3 1 0 33 7 
EIF[ ]	/* EndIf */
PUSHB[ ]	/* 1 value pushed */
56 
CALL[ ]	/* CallFunction */";
};
width = 732;
},
{
associatedMasterId = "A1468767-BE48-4A45-9F09-053256197B3B";
components = (
{
name = SerifUpRightCaps;
transform = "{-1, 0, 0, -1, 672, 629}";
}
);
layerId = "043F3D1B-EFC8-43B3-A5A3-247A2B605D05";
name = "Jan 24 23, 22:18";
paths = (
{
closed = 1;
nodes = (
"525.305 -8 OFFCURVE",
"599.225 19.455 OFFCURVE",
"675 69 CURVE",
"675 301 LINE",
"501 301 LINE",
"501 296 LINE SMOOTH",
"501 292.667 OFFCURVE",
"503 291 OFFCURVE",
"507 291 CURVE SMOOTH",
"664 291 LINE",
"664 74 LINE",
"588.614 26.535 OFFCURVE",
"520.436 2 OFFCURVE",
"411 2 CURVE SMOOTH",
"213 2 OFFCURVE",
"89 141 OFFCURVE",
"89 350 CURVE SMOOTH",
"89 562 OFFCURVE",
"213 698 OFFCURVE",
"422 698 CURVE SMOOTH",
"503 698 OFFCURVE",
"557 680 OFFCURVE",
"592 661 CURVE SMOOTH",
"617 646 OFFCURVE",
"643 623 OFFCURVE",
"648 623 CURVE",
"654 628 LINE",
"590.938 685.579 OFFCURVE",
"520.705 708 OFFCURVE",
"422 708 CURVE SMOOTH",
"316.667 708 OFFCURVE",
"230 673.5 OFFCURVE",
"170 611.5 CURVE SMOOTH",
"110 549.5 OFFCURVE",
"77 460.667 OFFCURVE",
"77 350 CURVE SMOOTH",
"77 239.333 OFFCURVE",
"110.333 150.5 OFFCURVE",
"169 88.5 CURVE SMOOTH",
"227.667 26.5 OFFCURVE",
"311 -8 OFFCURVE",
"411 -8 CURVE SMOOTH"
);
}
);
userData = {
assembly = "PUSHW[ ]	/* 1 value pushed */
50 
MDAP[1]	/* MoveDirectAbsPt */
PUSHW[ ]	/* 1 value pushed */
51 
MDAP[1]	/* MoveDirectAbsPt */
PUSHW[ ]	/* 1 value pushed */
12 
MDRP[11100]	/* MoveDirectRelPt */
PUSHW[ ]	/* 2 values pushed */
5 3 
MIRP[10100]	/* MoveIndirectRelPt */
PUSHW[ ]	/* 1 value pushed */
50 
SRP0[ ]	/* SetRefPoint0 */
PUSHW[ ]	/* 1 value pushed */
22 
MDRP[10000]	/* MoveDirectRelPt */
PUSHW[ ]	/* 1 value pushed */
22 
MDAP[1]	/* MoveDirectAbsPt */
PUSHW[ ]	/* 2 values pushed */
45 3 
MIRP[10100]	/* MoveIndirectRelPt */
SVTCA[0]	/* SetFreedomAndProjectionVectorToAxis */
PUSHW[ ]	/* 1 value pushed */
0 
RCVT[ ]	/* ReadCVT */
IF[ ]	/* If */
PUSHW[ ]	/* 1 value pushed */
27 
MDAP[1]	/* MoveDirectAbsPt */
ELSE[ ]	/* Else */
PUSHW[ ]	/* 2 values pushed */
27 11 
MIAP[0]	/* MoveIndirectAbsPt */
EIF[ ]	/* EndIf */
PUSHW[ ]	/* 1 value pushed */
0 
RCVT[ ]	/* ReadCVT */
IF[ ]	/* If */
PUSHW[ ]	/* 1 value pushed */
17 
MDAP[1]	/* MoveDirectAbsPt */
ELSE[ ]	/* Else */
PUSHW[ ]	/* 2 values pushed */
17 5 
MIAP[0]	/* MoveIndirectAbsPt */
EIF[ ]	/* EndIf */
PUSHW[ ]	/* 4 values pushed */
32 2 35 4 
CALL[ ]	/* CallFunction */
PUSHW[ ]	/* 4 values pushed */
11 1 6 4 
CALL[ ]	/* CallFunction */
PUSHW[ ]	/* 1 value pushed */
17 
SRP0[ ]	/* SetRefPoint0 */
PUSHW[ ]	/* 2 values pushed */
0 1 
MIRP[10100]	/* MoveIndirectRelPt */
PUSHW[ ]	/* 1 value pushed */
27 
SRP0[ ]	/* SetRefPoint0 */
PUSHW[ ]	/* 2 values pushed */
40 1 
MIRP[10100]	/* MoveIndirectRelPt */
IUP[0]	/* InterpolateUntPts */
IUP[1]	/* InterpolateUntPts */";
};
width = 761;
}
);
leftKerningGroup = C;
leftMetricsKey = O;
note = G;
unicode = 0047;
},
{
glyphname = Ghook;
layers = (
{
components = (
{
name = G;
}
);
layerId = "A1468767-BE48-4A45-9F09-053256197B3B";
paths = (
{
closed = 1;
nodes = (
"638 687 LINE SMOOTH",
"638 774 OFFCURVE",
"670 827 OFFCURVE",
"735 827 CURVE SMOOTH",
"752 827 OFFCURVE",
"771 825 OFFCURVE",
"791 818 CURVE SMOOTH",
"796 817 OFFCURVE",
"800 815 OFFCURVE",
"801 820 CURVE SMOOTH",
"802 824 LINE",
"778 833 OFFCURVE",
"756 837 OFFCURVE",
"735 837 CURVE SMOOTH",
"663 837 OFFCURVE",
"628 777 OFFCURVE",
"628 687 CURVE SMOOTH",
"628 678 OFFCURVE",
"628 670 OFFCURVE",
"628 661 CURVE SMOOTH",
"628 652 OFFCURVE",
"628 643 OFFCURVE",
"629 633 CURVE",
"638 626 LINE"
);
}
);
width = 718;
},
{
components = (
{
name = G;
}
);
layerId = "BF33A826-8254-4501-9165-758AB68FE84B";
paths = (
{
closed = 1;
nodes = (
"651 688 LINE SMOOTH",
"651 756 OFFCURVE",
"674 794 OFFCURVE",
"725 794 CURVE SMOOTH",
"740 794 OFFCURVE",
"755 792 OFFCURVE",
"768 788 CURVE SMOOTH",
"784 785 OFFCURVE",
"794 789 OFFCURVE",
"799 805 CURVE SMOOTH",
"811 855 LINE",
"780 866 OFFCURVE",
"755 873 OFFCURVE",
"716 873 CURVE SMOOTH",
"615 873 OFFCURVE",
"571 801 OFFCURVE",
"571 709 CURVE SMOOTH",
"571 706 OFFCURVE",
"571 702 OFFCURVE",
"571 699 CURVE SMOOTH",
"571 696 OFFCURVE",
"571 692 OFFCURVE",
"572 689 CURVE",
"651 634 LINE"
);
}
);
width = 732;
},
{
components = (
{
name = G;
}
);
layerId = "2C516476-8145-48E3-8501-3D313ADE77C9";
paths = (
{
closed = 1;
nodes = (
"662 688 LINE SMOOTH",
"662 743 OFFCURVE",
"677 770 OFFCURVE",
"717 770 CURVE SMOOTH",
"729 770 OFFCURVE",
"741 767 OFFCURVE",
"748 766 CURVE SMOOTH",
"771 763 OFFCURVE",
"790 766 OFFCURVE",
"797 793 CURVE SMOOTH",
"819 878 LINE",
"783 891 OFFCURVE",
"747 899 OFFCURVE",
"700 899 CURVE SMOOTH",
"572 899 OFFCURVE",
"523 822 OFFCURVE",
"523 726 CURVE SMOOTH",
"523 725 OFFCURVE",
"523 725 OFFCURVE",
"523 724 CURVE SMOOTH",
"523 723 OFFCURVE",
"523 722 OFFCURVE",
"523 721 CURVE",
"662 640 LINE"
);
}
);
width = 732;
}
);
unicode = 0193;
},
{
glyphname = H;
layers = (
{
anchors = (
{
name = bottom;
position = "{382, 0}";
},
{
name = center;
position = "{382, 356}";
},
{
name = top;
position = "{382, 700}";
},
{
name = topleft;
position = "{58, 700}";
}
);
components = (
{
name = SerifBottomLeft;
transform = "{1, 0, 0, 1, 124, 0}";
},
{
name = SerifBottomRight;
transform = "{1, 0, 0, 1, 136, 0}";
},
{
name = SerifSpurLeft;
transform = "{1, 0, 0, 1, 124, 700}";
},
{
name = SerifSpurRight;
transform = "{1, 0, 0, 1, 136, 700}";
},
{
name = SerifBottomLeft;
transform = "{1, 0, 0, 1, 628, 0}";
},
{
name = SerifBottomRight;
transform = "{1, 0, 0, 1, 640, 0}";
},
{
name = SerifSpurLeft;
transform = "{1, 0, 0, 1, 628, 700}";
},
{
name = SerifSpurRight;
transform = "{1, 0, 0, 1, 640, 700}";
}
);
layerId = "A1468767-BE48-4A45-9F09-053256197B3B";
paths = (
{
closed = 1;
nodes = (
"136 0 LINE",
"136 350 LINE",
"628 350 LINE",
"628 0 LINE",
"640 0 LINE",
"640 700 LINE",
"628 700 LINE",
"628 361 LINE",
"136 361 LINE",
"136 700 LINE",
"124 700 LINE",
"124 0 LINE"
);
}
);
userData = {
assembly = "PUSHW[ ]	/* 1 value pushed */
12 
MDAP[1]	/* MoveDirectAbsPt */
PUSHW[ ]	/* 1 value pushed */
13 
MDAP[1]	/* MoveDirectAbsPt */
PUSHW[ ]	/* 1 value pushed */
0 
MDRP[11100]	/* MoveDirectRelPt */
PUSHW[ ]	/* 2 values pushed */
1 3 
MIRP[10100]	/* MoveIndirectRelPt */
PUSHW[ ]	/* 1 value pushed */
12 
SRP0[ ]	/* SetRefPoint0 */
PUSHW[ ]	/* 1 value pushed */
5 
MDRP[10000]	/* MoveDirectRelPt */
PUSHW[ ]	/* 1 value pushed */
5 
MDAP[1]	/* MoveDirectAbsPt */
PUSHW[ ]	/* 2 values pushed */
4 3 
MIRP[10100]	/* MoveIndirectRelPt */
PUSHW[ ]	/* 1 value pushed */
7 
MDRP[10000]	/* MoveDirectRelPt */
PUSHW[ ]	/* 1 value pushed */
1 
SRP0[ ]	/* SetRefPoint0 */
PUSHW[ ]	/* 1 value pushed */
9 
MDRP[10000]	/* MoveDirectRelPt */
SVTCA[0]	/* SetFreedomAndProjectionVectorToAxis */
PUSHW[ ]	/* 1 value pushed */
0 
RCVT[ ]	/* ReadCVT */
IF[ ]	/* If */
PUSHW[ ]	/* 1 value pushed */
6 
MDAP[1]	/* MoveDirectAbsPt */
ELSE[ ]	/* Else */
PUSHW[ ]	/* 2 values pushed */
6 11 
MIAP[0]	/* MoveIndirectAbsPt */
EIF[ ]	/* EndIf */
PUSHW[ ]	/* 1 value pushed */
0 
RCVT[ ]	/* ReadCVT */
IF[ ]	/* If */
PUSHW[ ]	/* 1 value pushed */
10 
MDAP[1]	/* MoveDirectAbsPt */
ELSE[ ]	/* Else */
PUSHW[ ]	/* 2 values pushed */
10 11 
MIAP[0]	/* MoveIndirectAbsPt */
EIF[ ]	/* EndIf */
PUSHW[ ]	/* 1 value pushed */
0 
RCVT[ ]	/* ReadCVT */
IF[ ]	/* If */
PUSHW[ ]	/* 1 value pushed */
0 
MDAP[1]	/* MoveDirectAbsPt */
ELSE[ ]	/* Else */
PUSHW[ ]	/* 2 values pushed */
0 5 
MIAP[0]	/* MoveIndirectAbsPt */
EIF[ ]	/* EndIf */
PUSHW[ ]	/* 1 value pushed */
0 
RCVT[ ]	/* ReadCVT */
IF[ ]	/* If */
PUSHW[ ]	/* 1 value pushed */
4 
MDAP[1]	/* MoveDirectAbsPt */
ELSE[ ]	/* Else */
PUSHW[ ]	/* 2 values pushed */
4 5 
MIAP[0]	/* MoveIndirectAbsPt */
EIF[ ]	/* EndIf */
PUSHW[ ]	/* 4 values pushed */
9 1 2 4 
CALL[ ]	/* CallFunction */
IUP[0]	/* InterpolateUntPts */
IUP[1]	/* InterpolateUntPts */";
};
width = 764;
},
{
anchors = (
{
name = bottom;
position = "{415, 0}";
},
{
name = center;
position = "{415, 368}";
},
{
name = top;
position = "{415, 729}";
},
{
name = topleft;
position = "{30, 729}";
}
);
components = (
{
name = SerifBottomLeft;
transform = "{1, 0, 0, 1, 97, 0}";
},
{
name = SerifBottomRight;
transform = "{1, 0, 0, 1, 267, 0}";
},
{
name = SerifSpurLeft;
transform = "{1, 0, 0, 1, 127, 729}";
},
{
name = SerifSpurRight;
transform = "{1, 0, 0, 1, 267, 729}";
},
{
name = SerifBottomLeft;
transform = "{1, 0, 0, 1, 563, 0}";
},
{
name = SerifBottomRight;
transform = "{1, 0, 0, 1, 733, 0}";
},
{
name = SerifSpurLeft;
transform = "{1, 0, 0, 1, 593, 729}";
},
{
name = SerifSpurRight;
transform = "{1, 0, 0, 1, 733, 729}";
}
);
layerId = "2C516476-8145-48E3-8501-3D313ADE77C9";
paths = (
{
closed = 1;
nodes = (
"267 0 LINE",
"267 308 LINE",
"563 308 LINE",
"563 0 LINE",
"733 0 LINE",
"733 729 LINE",
"563 729 LINE",
"563 424 LINE",
"267 424 LINE",
"267 729 LINE",
"97 729 LINE",
"97 0 LINE"
);
}
);
userData = {
assembly = "NPUSHB[ ]	/* 14 values pushed */
11 10 9 8 7 6 5 4 3 2 1 0 6 7 
CALL[ ]	/* CallFunction */
MPPEM[ ]	/* MeasurePixelPerEm */
PUSHB[ ]	/* 1 value pushed */
94 
LT[ ]	/* LessThan */
IF[ ]	/* If */
NPUSHB[ ]	/* 24 values pushed */
0 4 0 1 0 4 1 0 0 38 5 1 3 3 11 31 2 1 0 0 12 0 32 3 
ELSE[ ]	/* Else */
MPPEM[ ]	/* MeasurePixelPerEm */
PUSHB[ ]	/* 1 value pushed */
232 
LT[ ]	/* LessThan */
IF[ ]	/* If */
NPUSHB[ ]	/* 36 values pushed */
5 1 3 4 0 3 0 0 35 0 4 0 1 0 4 1 0 0 38 5 1 3 3 0 0 0 36 2 1 0 3 0 0 0 33 4 
ELSE[ ]	/* Else */
NPUSHB[ ]	/* 43 values pushed */
0 5 4 0 5 0 0 35 0 4 0 1 2 4 1 0 0 38 0 3 0 2 0 3 2 0 0 38 0 5 5 0 0 0 36 0 0 5 0 0 0 33 5 
EIF[ ]	/* EndIf */
EIF[ ]	/* EndIf */
PUSHB[ ]	/* 1 value pushed */
56 
CALL[ ]	/* CallFunction */";
};
width = 830;
},
{
anchors = (
{
name = bottom;
position = "{396, 0}";
},
{
name = center;
position = "{396, 361}";
},
{
name = top;
position = "{396, 717}";
},
{
name = topleft;
position = "{47, 717}";
}
);
components = (
{
name = SerifBottomLeft;
transform = "{1, 0, 0, 1, 105, 0}";
},
{
name = SerifBottomRight;
transform = "{1, 0, 0, 1, 203, 0}";
},
{
name = SerifSpurLeft;
transform = "{1, 0, 0, 1, 105, 717}";
},
{
name = SerifSpurRight;
transform = "{1, 0, 0, 1, 203, 717}";
},
{
name = SerifBottomLeft;
transform = "{1, 0, 0, 1, 588, 0}";
},
{
name = SerifBottomRight;
transform = "{1, 0, 0, 1, 687, 0}";
},
{
name = SerifSpurLeft;
transform = "{1, 0, 0, 1, 588, 717}";
},
{
name = SerifSpurRight;
transform = "{1, 0, 0, 1, 687, 717}";
}
);
layerId = "BF33A826-8254-4501-9165-758AB68FE84B";
paths = (
{
closed = 1;
nodes = (
"203 0 LINE",
"203 326 LINE",
"589 326 LINE",
"589 0 LINE",
"687 0 LINE",
"687 717 LINE",
"589 717 LINE",
"589 397 LINE",
"203 397 LINE",
"203 717 LINE",
"105 717 LINE",
"105 0 LINE"
);
}
);
userData = {
assembly = "NPUSHB[ ]	/* 14 values pushed */
11 10 9 8 7 6 5 4 3 2 1 0 6 7 
CALL[ ]	/* CallFunction */
MPPEM[ ]	/* MeasurePixelPerEm */
PUSHB[ ]	/* 1 value pushed */
95 
LT[ ]	/* LessThan */
IF[ ]	/* If */
NPUSHB[ ]	/* 24 values pushed */
0 4 0 1 0 4 1 0 0 38 5 1 3 3 11 31 2 1 0 0 12 0 32 3 
ELSE[ ]	/* Else */
MPPEM[ ]	/* MeasurePixelPerEm */
PUSHB[ ]	/* 1 value pushed */
108 
LT[ ]	/* LessThan */
IF[ ]	/* If */
NPUSHB[ ]	/* 26 values pushed */
0 4 0 1 0 4 1 0 0 38 5 1 3 3 0 0 0 36 2 1 0 0 15 0 32 3 
ELSE[ ]	/* Else */
MPPEM[ ]	/* MeasurePixelPerEm */
PUSHB[ ]	/* 1 value pushed */
232 
LT[ ]	/* LessThan */
IF[ ]	/* If */
NPUSHB[ ]	/* 36 values pushed */
5 1 3 4 0 3 0 0 35 0 4 0 1 0 4 1 0 0 38 5 1 3 3 0 0 0 36 2 1 0 3 0 0 0 33 4 
ELSE[ ]	/* Else */
NPUSHB[ ]	/* 43 values pushed */
0 5 4 0 5 0 0 35 0 4 0 1 2 4 1 0 0 38 0 3 0 2 0 3 2 0 0 38 0 5 5 0 0 0 36 0 0 5 0 0 0 33 5 
EIF[ ]	/* EndIf */
EIF[ ]	/* EndIf */
EIF[ ]	/* EndIf */
PUSHB[ ]	/* 1 value pushed */
56 
CALL[ ]	/* CallFunction */";
};
width = 792;
},
{
associatedMasterId = "A1468767-BE48-4A45-9F09-053256197B3B";
layerId = "92ADC630-0B3E-4ADD-BFBA-7A182FD1D1A6";
name = "Jan 15 23, 17:21";
paths = (
{
closed = 1;
nodes = (
"753 671 LINE",
"766 672 OFFCURVE",
"773 678 OFFCURVE",
"773 689 CURVE SMOOTH",
"773 708 LINE",
"553 708 LINE",
"553 689 LINE SMOOTH",
"553 678 OFFCURVE",
"560 672 OFFCURVE",
"573 671 CURVE",
"637 669 LINE",
"637 378 LINE",
"194 378 LINE",
"194 669 LINE",
"259 671 LINE",
"272 672 OFFCURVE",
"278 678 OFFCURVE",
"278 689 CURVE SMOOTH",
"278 708 LINE",
"58 708 LINE",
"58 689 LINE SMOOTH",
"58 678 OFFCURVE",
"65 672 OFFCURVE",
"78 671 CURVE",
"143 669 LINE",
"143 40 LINE",
"78 38 LINE",
"65 37 OFFCURVE",
"58 31 OFFCURVE",
"58 20 CURVE SMOOTH",
"58 0 LINE",
"278 0 LINE",
"278 20 LINE SMOOTH",
"278 31 OFFCURVE",
"272 37 OFFCURVE",
"259 38 CURVE",
"194 40 LINE",
"194 339 LINE",
"637 339 LINE",
"637 40 LINE",
"573 38 LINE",
"560 37 OFFCURVE",
"553 31 OFFCURVE",
"553 20 CURVE SMOOTH",
"553 0 LINE",
"773 0 LINE",
"773 20 LINE SMOOTH",
"773 31 OFFCURVE",
"766 37 OFFCURVE",
"753 38 CURVE",
"689 40 LINE",
"689 669 LINE"
);
}
);
userData = {
assembly = "PUSHW[ ]	/* 1 value pushed */
12 
MDAP[1]	/* MoveDirectAbsPt */
PUSHW[ ]	/* 1 value pushed */
13 
MDAP[1]	/* MoveDirectAbsPt */
PUSHW[ ]	/* 1 value pushed */
0 
MDRP[11100]	/* MoveDirectRelPt */
PUSHW[ ]	/* 2 values pushed */
1 3 
MIRP[10100]	/* MoveIndirectRelPt */
PUSHW[ ]	/* 1 value pushed */
12 
SRP0[ ]	/* SetRefPoint0 */
PUSHW[ ]	/* 1 value pushed */
5 
MDRP[10000]	/* MoveDirectRelPt */
PUSHW[ ]	/* 1 value pushed */
5 
MDAP[1]	/* MoveDirectAbsPt */
PUSHW[ ]	/* 2 values pushed */
4 3 
MIRP[10100]	/* MoveIndirectRelPt */
PUSHW[ ]	/* 1 value pushed */
7 
MDRP[10000]	/* MoveDirectRelPt */
PUSHW[ ]	/* 1 value pushed */
1 
SRP0[ ]	/* SetRefPoint0 */
PUSHW[ ]	/* 1 value pushed */
9 
MDRP[10000]	/* MoveDirectRelPt */
SVTCA[0]	/* SetFreedomAndProjectionVectorToAxis */
PUSHW[ ]	/* 1 value pushed */
0 
RCVT[ ]	/* ReadCVT */
IF[ ]	/* If */
PUSHW[ ]	/* 1 value pushed */
6 
MDAP[1]	/* MoveDirectAbsPt */
ELSE[ ]	/* Else */
PUSHW[ ]	/* 2 values pushed */
6 11 
MIAP[0]	/* MoveIndirectAbsPt */
EIF[ ]	/* EndIf */
PUSHW[ ]	/* 1 value pushed */
0 
RCVT[ ]	/* ReadCVT */
IF[ ]	/* If */
PUSHW[ ]	/* 1 value pushed */
10 
MDAP[1]	/* MoveDirectAbsPt */
ELSE[ ]	/* Else */
PUSHW[ ]	/* 2 values pushed */
10 11 
MIAP[0]	/* MoveIndirectAbsPt */
EIF[ ]	/* EndIf */
PUSHW[ ]	/* 1 value pushed */
0 
RCVT[ ]	/* ReadCVT */
IF[ ]	/* If */
PUSHW[ ]	/* 1 value pushed */
0 
MDAP[1]	/* MoveDirectAbsPt */
ELSE[ ]	/* Else */
PUSHW[ ]	/* 2 values pushed */
0 5 
MIAP[0]	/* MoveIndirectAbsPt */
EIF[ ]	/* EndIf */
PUSHW[ ]	/* 1 value pushed */
0 
RCVT[ ]	/* ReadCVT */
IF[ ]	/* If */
PUSHW[ ]	/* 1 value pushed */
4 
MDAP[1]	/* MoveDirectAbsPt */
ELSE[ ]	/* Else */
PUSHW[ ]	/* 2 values pushed */
4 5 
MIAP[0]	/* MoveIndirectAbsPt */
EIF[ ]	/* EndIf */
PUSHW[ ]	/* 4 values pushed */
9 1 2 4 
CALL[ ]	/* CallFunction */
IUP[0]	/* InterpolateUntPts */
IUP[1]	/* InterpolateUntPts */";
};
width = 756;
},
{
associatedMasterId = "BF33A826-8254-4501-9165-758AB68FE84B";
layerId = "0AFB8E16-46EA-4F57-94FC-6BE338C8D4CF";
name = "Jan 15 23, 17:21";
paths = (
{
closed = 1;
nodes = (
"767 655 LINE SMOOTH",
"777 657 OFFCURVE",
"782 664 OFFCURVE",
"782 674 CURVE SMOOTH",
"782 716 LINE",
"540 716 LINE",
"540 674 LINE SMOOTH",
"540 664 OFFCURVE",
"544 658 OFFCURVE",
"552 656 CURVE SMOOTH",
"560 654 OFFCURVE",
"580 650 OFFCURVE",
"612 644 CURVE",
"612 397 LINE",
"226 397 LINE",
"226 644 LINE",
"260 650 OFFCURVE",
"280 654 OFFCURVE",
"287 656 CURVE SMOOTH",
"294 658 OFFCURVE",
"297 664 OFFCURVE",
"297 674 CURVE SMOOTH",
"297 716 LINE",
"56 716 LINE",
"56 674 LINE SMOOTH",
"56 664 OFFCURVE",
"60 658 OFFCURVE",
"68 656 CURVE SMOOTH",
"76 654 OFFCURVE",
"96 650 OFFCURVE",
"128 644 CURVE",
"128 73 LINE",
"71 62 LINE SMOOTH",
"61 60 OFFCURVE",
"56 53 OFFCURVE",
"56 43 CURVE SMOOTH",
"56 0 LINE",
"297 0 LINE",
"297 43 LINE SMOOTH",
"297 53 OFFCURVE",
"273 63 OFFCURVE",
"225 73 CURVE",
"225 326 LINE",
"611 326 LINE",
"611 73 LINE",
"555 62 LINE SMOOTH",
"545 60 OFFCURVE",
"539 53 OFFCURVE",
"539 43 CURVE SMOOTH",
"539 0 LINE",
"781 0 LINE",
"781 43 LINE SMOOTH",
"781 53 OFFCURVE",
"777 59 OFFCURVE",
"769 61 CURVE SMOOTH",
"761 63 OFFCURVE",
"741 67 OFFCURVE",
"709 73 CURVE",
"709 644 LINE"
);
}
);
userData = {
assembly = "NPUSHB[ ]	/* 14 values pushed */
11 10 9 8 7 6 5 4 3 2 1 0 6 7 
CALL[ ]	/* CallFunction */
MPPEM[ ]	/* MeasurePixelPerEm */
PUSHB[ ]	/* 1 value pushed */
95 
LT[ ]	/* LessThan */
IF[ ]	/* If */
NPUSHB[ ]	/* 24 values pushed */
0 4 0 1 0 4 1 0 0 38 5 1 3 3 11 31 2 1 0 0 12 0 32 3 
ELSE[ ]	/* Else */
MPPEM[ ]	/* MeasurePixelPerEm */
PUSHB[ ]	/* 1 value pushed */
108 
LT[ ]	/* LessThan */
IF[ ]	/* If */
NPUSHB[ ]	/* 26 values pushed */
0 4 0 1 0 4 1 0 0 38 5 1 3 3 0 0 0 36 2 1 0 0 15 0 32 3 
ELSE[ ]	/* Else */
MPPEM[ ]	/* MeasurePixelPerEm */
PUSHB[ ]	/* 1 value pushed */
232 
LT[ ]	/* LessThan */
IF[ ]	/* If */
NPUSHB[ ]	/* 36 values pushed */
5 1 3 4 0 3 0 0 35 0 4 0 1 0 4 1 0 0 38 5 1 3 3 0 0 0 36 2 1 0 3 0 0 0 33 4 
ELSE[ ]	/* Else */
NPUSHB[ ]	/* 43 values pushed */
0 5 4 0 5 0 0 35 0 4 0 1 2 4 1 0 0 38 0 3 0 2 0 3 2 0 0 38 0 5 5 0 0 0 36 0 0 5 0 0 0 33 5 
EIF[ ]	/* EndIf */
EIF[ ]	/* EndIf */
EIF[ ]	/* EndIf */
PUSHB[ ]	/* 1 value pushed */
56 
CALL[ ]	/* CallFunction */";
};
width = 756;
},
{
associatedMasterId = "2C516476-8145-48E3-8501-3D313ADE77C9";
layerId = "F7D20318-5800-480C-8FAA-C216C980BD95";
name = "Jan 15 23, 17:21";
paths = (
{
closed = 1;
nodes = (
"806 637 OFFCURVE",
"814 647 OFFCURVE",
"814 664 CURVE SMOOTH",
"814 723 LINE",
"739 723 LINE",
"603 723 LINE",
"528 723 LINE",
"528 664 LINE SMOOTH",
"528 647 OFFCURVE",
"536 637 OFFCURVE",
"553 633 CURVE",
"554 633 OFFCURVE",
"556 632 OFFCURVE",
"559 632 CURVE",
"562 631 OFFCURVE",
"567 630 OFFCURVE",
"574 629 CURVE SMOOTH",
"581 628 OFFCURVE",
"591 626 OFFCURVE",
"603 624 CURVE",
"603 412 LINE",
"264 412 LINE",
"264 624 LINE",
"276 626 OFFCURVE",
"287 628 OFFCURVE",
"294 629 CURVE SMOOTH",
"301 630 OFFCURVE",
"306 632 OFFCURVE",
"309 632 CURVE",
"312 633 OFFCURVE",
"314 633 OFFCURVE",
"315 633 CURVE",
"332 637 OFFCURVE",
"340 647 OFFCURVE",
"340 664 CURVE SMOOTH",
"340 723 LINE",
"264 723 LINE",
"129 723 LINE",
"53 723 LINE",
"53 664 LINE SMOOTH",
"53 647 OFFCURVE",
"61 637 OFFCURVE",
"78 633 CURVE",
"79 633 OFFCURVE",
"81 633 OFFCURVE",
"84 632 CURVE",
"87 632 OFFCURVE",
"92 630 OFFCURVE",
"99 629 CURVE SMOOTH",
"106 628 OFFCURVE",
"117 626 OFFCURVE",
"129 624 CURVE",
"129 99 LINE",
"117 97 OFFCURVE",
"106 95 OFFCURVE",
"99 94 CURVE SMOOTH",
"92 93 OFFCURVE",
"87 91 OFFCURVE",
"84 91 CURVE SMOOTH",
"81 91 OFFCURVE",
"79 90 OFFCURVE",
"78 90 CURVE",
"61 86 OFFCURVE",
"53 76 OFFCURVE",
"53 59 CURVE SMOOTH",
"53 0 LINE",
"129 0 LINE",
"264 0 LINE",
"340 0 LINE",
"340 59 LINE SMOOTH",
"340 76 OFFCURVE",
"332 86 OFFCURVE",
"315 90 CURVE",
"314 90 OFFCURVE",
"312 90 OFFCURVE",
"309 91 CURVE",
"306 91 OFFCURVE",
"301 93 OFFCURVE",
"294 94 CURVE SMOOTH",
"287 95 OFFCURVE",
"276 97 OFFCURVE",
"264 99 CURVE",
"264 316 LINE",
"603 316 LINE",
"603 99 LINE",
"591 97 OFFCURVE",
"581 95 OFFCURVE",
"574 94 CURVE SMOOTH",
"567 93 OFFCURVE",
"562 92 OFFCURVE",
"559 91 CURVE SMOOTH",
"556 90 OFFCURVE",
"554 90 OFFCURVE",
"553 90 CURVE",
"536 86 OFFCURVE",
"528 76 OFFCURVE",
"528 59 CURVE SMOOTH",
"528 0 LINE",
"603 0 LINE",
"739 0 LINE",
"814 0 LINE",
"814 59 LINE SMOOTH",
"814 76 OFFCURVE",
"806 86 OFFCURVE",
"789 90 CURVE",
"788 90 OFFCURVE",
"786 91 OFFCURVE",
"783 91 CURVE SMOOTH",
"780 91 OFFCURVE",
"775 93 OFFCURVE",
"768 94 CURVE SMOOTH",
"761 95 OFFCURVE",
"751 97 OFFCURVE",
"739 99 CURVE",
"739 624 LINE",
"751 626 OFFCURVE",
"761 628 OFFCURVE",
"768 629 CURVE SMOOTH",
"775 630 OFFCURVE",
"780 632 OFFCURVE",
"783 632 CURVE SMOOTH",
"786 632 OFFCURVE",
"788 633 OFFCURVE",
"789 633 CURVE"
);
}
);
userData = {
assembly = "NPUSHB[ ]	/* 14 values pushed */
11 10 9 8 7 6 5 4 3 2 1 0 6 7 
CALL[ ]	/* CallFunction */
MPPEM[ ]	/* MeasurePixelPerEm */
PUSHB[ ]	/* 1 value pushed */
94 
LT[ ]	/* LessThan */
IF[ ]	/* If */
NPUSHB[ ]	/* 24 values pushed */
0 4 0 1 0 4 1 0 0 38 5 1 3 3 11 31 2 1 0 0 12 0 32 3 
ELSE[ ]	/* Else */
MPPEM[ ]	/* MeasurePixelPerEm */
PUSHB[ ]	/* 1 value pushed */
232 
LT[ ]	/* LessThan */
IF[ ]	/* If */
NPUSHB[ ]	/* 36 values pushed */
5 1 3 4 0 3 0 0 35 0 4 0 1 0 4 1 0 0 38 5 1 3 3 0 0 0 36 2 1 0 3 0 0 0 33 4 
ELSE[ ]	/* Else */
NPUSHB[ ]	/* 43 values pushed */
0 5 4 0 5 0 0 35 0 4 0 1 2 4 1 0 0 38 0 3 0 2 0 3 2 0 0 38 0 5 5 0 0 0 36 0 0 5 0 0 0 33 5 
EIF[ ]	/* EndIf */
EIF[ ]	/* EndIf */
PUSHB[ ]	/* 1 value pushed */
56 
CALL[ ]	/* CallFunction */";
};
width = 756;
}
);
note = H;
unicode = 0048;
},
{
glyphname = Hbar;
layers = (
{
components = (
{
name = H;
}
);
layerId = "A1468767-BE48-4A45-9F09-053256197B3B";
paths = (
{
closed = 1;
nodes = (
"42 525 LINE",
"722 525 LINE",
"722 535 LINE",
"42 535 LINE"
);
}
);
width = 764;
},
{
components = (
{
name = H;
}
);
layerId = "BF33A826-8254-4501-9165-758AB68FE84B";
paths = (
{
closed = 1;
nodes = (
"33 497 LINE",
"759 497 LINE",
"759 562 LINE",
"33 562 LINE"
);
}
);
width = 792;
},
{
components = (
{
name = H;
}
);
layerId = "2C516476-8145-48E3-8501-3D313ADE77C9";
paths = (
{
closed = 1;
nodes = (
"20 470 LINE",
"809 470 LINE",
"809 576 LINE",
"20 576 LINE"
);
}
);
width = 830;
}
);
unicode = 0126;
},
{
glyphname = Hhook;
layers = (
{
anchors = (
{
name = bottom;
position = "{494, 0}";
},
{
name = center;
position = "{494, 356}";
},
{
name = top;
position = "{494, 700}";
},
{
name = topleft;
position = "{170, 700}";
}
);
components = (
{
name = SerifBottomLeft;
transform = "{1, 0, 0, 1, 236, 0}";
},
{
name = SerifBottomRight;
transform = "{1, 0, 0, 1, 248, 0}";
},
{
name = SerifSpurRight;
transform = "{1, 0, 0, 1, 248, 700}";
},
{
name = SerifBottomLeft;
transform = "{1, 0, 0, 1, 740, 0}";
},
{
name = SerifBottomRight;
transform = "{1, 0, 0, 1, 752, 0}";
},
{
name = SerifSpurLeft;
transform = "{1, 0, 0, 1, 740, 700}";
},
{
name = SerifSpurRight;
transform = "{1, 0, 0, 1, 752, 700}";
},
{
name = hookleft_caps_part;
}
);
layerId = "A1468767-BE48-4A45-9F09-053256197B3B";
paths = (
{
closed = 1;
nodes = (
"248 0 LINE",
"248 350 LINE",
"740 350 LINE",
"740 0 LINE",
"752 0 LINE",
"752 700 LINE",
"740 700 LINE",
"740 361 LINE",
"248 361 LINE",
"248 700 LINE",
"236 700 LINE",
"236 0 LINE"
);
}
);
width = 876;
},
{
anchors = (
{
name = bottom;
position = "{532, 0}";
},
{
name = center;
position = "{532, 361}";
},
{
name = top;
position = "{532, 717}";
},
{
name = topleft;
position = "{183, 717}";
}
);
components = (
{
name = SerifBottomLeft;
transform = "{1, 0, 0, 1, 241, 0}";
},
{
name = SerifBottomRight;
transform = "{1, 0, 0, 1, 339, 0}";
},
{
name = SerifSpurRight;
transform = "{1, 0, 0, 1, 339, 717}";
},
{
name = SerifBottomLeft;
transform = "{1, 0, 0, 1, 724, 0}";
},
{
name = SerifBottomRight;
transform = "{1, 0, 0, 1, 823, 0}";
},
{
name = SerifSpurLeft;
transform = "{1, 0, 0, 1, 724, 717}";
},
{
name = SerifSpurRight;
transform = "{1, 0, 0, 1, 823, 717}";
},
{
name = hookleft_caps_part;
}
);
layerId = "BF33A826-8254-4501-9165-758AB68FE84B";
paths = (
{
closed = 1;
nodes = (
"339 0 LINE",
"339 326 LINE",
"725 326 LINE",
"725 0 LINE",
"823 0 LINE",
"823 717 LINE",
"725 717 LINE",
"725 397 LINE",
"339 397 LINE",
"339 717 LINE",
"241 717 LINE",
"241 0 LINE"
);
}
);
width = 928;
},
{
anchors = (
{
name = bottom;
position = "{564, 0}";
},
{
name = center;
position = "{564, 368}";
},
{
name = top;
position = "{564, 729}";
},
{
name = topleft;
position = "{179, 729}";
}
);
components = (
{
name = SerifBottomLeft;
transform = "{1, 0, 0, 1, 246, 0}";
},
{
name = SerifBottomRight;
transform = "{1, 0, 0, 1, 416, 0}";
},
{
name = SerifSpurRight;
transform = "{1, 0, 0, 1, 416, 729}";
},
{
name = SerifBottomLeft;
transform = "{1, 0, 0, 1, 712, 0}";
},
{
name = SerifBottomRight;
transform = "{1, 0, 0, 1, 882, 0}";
},
{
name = SerifSpurLeft;
transform = "{1, 0, 0, 1, 742, 729}";
},
{
name = SerifSpurRight;
transform = "{1, 0, 0, 1, 882, 729}";
},
{
name = hookleft_caps_part;
}
);
layerId = "2C516476-8145-48E3-8501-3D313ADE77C9";
paths = (
{
closed = 1;
nodes = (
"416 0 LINE",
"416 308 LINE",
"712 308 LINE",
"712 0 LINE",
"882 0 LINE",
"882 729 LINE",
"712 729 LINE",
"712 424 LINE",
"416 424 LINE",
"416 729 LINE",
"246 729 LINE",
"246 0 LINE"
);
}
);
width = 979;
}
);
leftMetricsKey = Bhook;
rightMetricsKey = H;
unicode = A7AA;
},
{
glyphname = Hturned;
layers = (
{
components = (
{
name = SerifBottomRight;
transform = "{-1, 0, 0, -1, 104, 700}";
},
{
name = SerifBottomLeft;
transform = "{-1, 0, 0, -1, 469, 700}";
},
{
name = SerifSpurLeft;
transform = "{-1, 0, 0, -1, 469, 0}";
},
{
name = SerifBottomRight;
transform = "{-1, 0, 0, -1, 457, 700}";
},
{
name = SerifBottomLeft;
transform = "{1, 0, 0, 1, 457, 0}";
}
);
layerId = "A1468767-BE48-4A45-9F09-053256197B3B";
paths = (
{
closed = 1;
nodes = (
"469 0 LINE",
"469 700 LINE",
"457 700 LINE",
"457 327 LINE",
"408 255 OFFCURVE",
"342 212 OFFCURVE",
"266 212 CURVE SMOOTH",
"163 212 OFFCURVE",
"116 276 OFFCURVE",
"116 386 CURVE SMOOTH",
"116 700 LINE",
"104 700 LINE",
"104 386 LINE SMOOTH",
"104 270 OFFCURVE",
"157 202 OFFCURVE",
"266 202 CURVE SMOOTH",
"342 202 OFFCURVE",
"412 245 OFFCURVE",
"457 312 CURVE",
"457 0 LINE"
);
}
);
width = 582;
},
{
components = (
{
alignment = -1;
name = SerifBottomRight;
transform = "{-1, 0, 0, -1, 85, 717}";
},
{
alignment = -1;
name = SerifBottomLeft;
transform = "{-1, 0, 0, -1, 507, 717}";
},
{
alignment = -1;
name = SerifSpurLeft;
transform = "{-1, 0, 0, -1, 507, 0}";
},
{
alignment = -1;
name = SerifBottomRight;
transform = "{-1, 0, 0, -1, 418, 717}";
},
{
alignment = -1;
name = SerifBottomLeft;
transform = "{1, 0, 0, 1, 418, 0}";
}
);
layerId = "BF33A826-8254-4501-9165-758AB68FE84B";
paths = (
{
closed = 1;
nodes = (
"507 0 LINE",
"507 717 LINE",
"418 717 LINE",
"418 344 LINE",
"379 300 OFFCURVE",
"333 273 OFFCURVE",
"281 273 CURVE SMOOTH",
"209 273 OFFCURVE",
"174 318 OFFCURVE",
"174 394 CURVE SMOOTH",
"174 717 LINE",
"85 717 LINE",
"85 394 LINE SMOOTH",
"85 280 OFFCURVE",
"144 202 OFFCURVE",
"255 202 CURVE SMOOTH",
"323 202 OFFCURVE",
"374 233 OFFCURVE",
"418 278 CURVE",
"418 0 LINE"
);
}
);
width = 607;
},
{
components = (
{
name = SerifBottomRight;
transform = "{-1, 0, 0, -1, 97, 729}";
},
{
name = SerifBottomLeft;
transform = "{-1, 0, 0, -1, 567, 729}";
},
{
name = SerifSpurLeft;
transform = "{-1, 0, 0, -1, 537, 0}";
},
{
name = SerifBottomRight;
transform = "{-1, 0, 0, -1, 412, 729}";
},
{
name = SerifBottomLeft;
transform = "{1, 0, 0, 1, 412, 0}";
}
);
layerId = "2C516476-8145-48E3-8501-3D313ADE77C9";
paths = (
{
closed = 1;
nodes = (
"567 0 LINE",
"567 729 LINE",
"412 729 LINE",
"412 359 LINE",
"384 335 OFFCURVE",
"354 319 OFFCURVE",
"321 319 CURVE SMOOTH",
"276 319 OFFCURVE",
"252 348 OFFCURVE",
"252 399 CURVE SMOOTH",
"252 729 LINE",
"97 729 LINE",
"97 399 LINE SMOOTH",
"97 286 OFFCURVE",
"160 202 OFFCURVE",
"273 202 CURVE SMOOTH",
"333 202 OFFCURVE",
"375 224 OFFCURVE",
"412 256 CURVE",
"412 0 LINE"
);
}
);
width = 670;
}
);
unicode = A78D;
},
{
glyphname = I;
layers = (
{
anchors = (
{
name = bottom;
position = "{130, 0}";
},
{
name = ogonek;
position = "{127, 2}";
},
{
name = top;
position = "{130, 700}";
}
);
components = (
{
name = SerifBottomLeft;
transform = "{1, 0, 0, 1, 124, 0}";
},
{
name = SerifBottomRight;
transform = "{1, 0, 0, 1, 136, 0}";
},
{
name = SerifSpurLeft;
transform = "{1, 0, 0, 1, 124, 700}";
},
{
name = SerifSpurRight;
transform = "{1, 0, 0, 1, 136, 700}";
}
);
layerId = "A1468767-BE48-4A45-9F09-053256197B3B";
paths = (
{
closed = 1;
nodes = (
"136 0 LINE",
"136 700 LINE",
"124 700 LINE",
"124 0 LINE"
);
}
);
userData = {
assembly = "PUSHW[ ]	/* 4 values pushed */
0 3 1 4 
CALL[ ]	/* CallFunction */
SVTCA[0]	/* SetFreedomAndProjectionVectorToAxis */
PUSHW[ ]	/* 1 value pushed */
0 
RCVT[ ]	/* ReadCVT */
IF[ ]	/* If */
PUSHW[ ]	/* 1 value pushed */
2 
MDAP[1]	/* MoveDirectAbsPt */
ELSE[ ]	/* Else */
PUSHW[ ]	/* 2 values pushed */
2 11 
MIAP[0]	/* MoveIndirectAbsPt */
EIF[ ]	/* EndIf */
PUSHW[ ]	/* 1 value pushed */
0 
RCVT[ ]	/* ReadCVT */
IF[ ]	/* If */
PUSHW[ ]	/* 1 value pushed */
0 
MDAP[1]	/* MoveDirectAbsPt */
ELSE[ ]	/* Else */
PUSHW[ ]	/* 2 values pushed */
0 5 
MIAP[0]	/* MoveIndirectAbsPt */
EIF[ ]	/* EndIf */
IUP[0]	/* InterpolateUntPts */
IUP[1]	/* InterpolateUntPts */";
};
width = 260;
},
{
anchors = (
{
name = bottom;
position = "{182, 0}";
},
{
name = ogonek;
position = "{174, 2}";
},
{
name = top;
position = "{182, 729}";
}
);
components = (
{
name = SerifBottomLeft;
transform = "{1, 0, 0, 1, 97, 0}";
},
{
name = SerifBottomRight;
transform = "{1, 0, 0, 1, 267, 0}";
},
{
name = SerifSpurLeft;
transform = "{1, 0, 0, 1, 127, 729}";
},
{
name = SerifSpurRight;
transform = "{1, 0, 0, 1, 267, 729}";
}
);
layerId = "2C516476-8145-48E3-8501-3D313ADE77C9";
paths = (
{
closed = 1;
nodes = (
"267 0 LINE",
"267 729 LINE",
"97 729 LINE",
"97 0 LINE"
);
}
);
userData = {
assembly = "NPUSHB[ ]	/* 6 values pushed */
3 2 1 0 2 7 
CALL[ ]	/* CallFunction */
MPPEM[ ]	/* MeasurePixelPerEm */
PUSHB[ ]	/* 1 value pushed */
94 
LT[ ]	/* LessThan */
IF[ ]	/* If */
NPUSHB[ ]	/* 12 values pushed */
0 1 1 11 31 0 0 0 12 0 32 2 
ELSE[ ]	/* Else */
NPUSHB[ ]	/* 23 values pushed */
0 1 0 0 1 0 0 35 0 1 1 0 0 0 36 0 0 1 0 0 0 33 3 
EIF[ ]	/* EndIf */
PUSHB[ ]	/* 1 value pushed */
56 
CALL[ ]	/* CallFunction */";
};
width = 364;
},
{
anchors = (
{
name = bottom;
position = "{154, 0}";
},
{
name = ogonek;
position = "{148, 2}";
},
{
name = top;
position = "{154, 729}";
}
);
components = (
{
name = SerifBottomLeft;
transform = "{1, 0, 0, 1, 105, 0}";
},
{
name = SerifBottomRight;
transform = "{1, 0, 0, 1, 203, 0}";
},
{
name = SerifSpurLeft;
transform = "{1, 0, 0, 1, 105, 717}";
},
{
name = SerifSpurRight;
transform = "{1, 0, 0, 1, 203, 717}";
}
);
layerId = "BF33A826-8254-4501-9165-758AB68FE84B";
paths = (
{
closed = 1;
nodes = (
"202 0 LINE",
"202 717 LINE",
"105 717 LINE",
"105 0 LINE"
);
}
);
userData = {
assembly = "NPUSHB[ ]	/* 6 values pushed */
3 2 1 0 2 7 
CALL[ ]	/* CallFunction */
MPPEM[ ]	/* MeasurePixelPerEm */
PUSHB[ ]	/* 1 value pushed */
95 
LT[ ]	/* LessThan */
IF[ ]	/* If */
NPUSHB[ ]	/* 12 values pushed */
0 1 1 11 31 0 0 0 12 0 32 2 
ELSE[ ]	/* Else */
MPPEM[ ]	/* MeasurePixelPerEm */
PUSHB[ ]	/* 1 value pushed */
108 
LT[ ]	/* LessThan */
IF[ ]	/* If */
NPUSHB[ ]	/* 14 values pushed */
0 1 1 0 0 0 36 0 0 0 15 0 32 2 
ELSE[ ]	/* Else */
NPUSHB[ ]	/* 23 values pushed */
0 1 0 0 1 0 0 35 0 1 1 0 0 0 36 0 0 1 0 0 0 33 3 
EIF[ ]	/* EndIf */
EIF[ ]	/* EndIf */
PUSHB[ ]	/* 1 value pushed */
56 
CALL[ ]	/* CallFunction */";
};
width = 308;
},
{
associatedMasterId = "A1468767-BE48-4A45-9F09-053256197B3B";
layerId = "726A3E2D-2B1B-42E9-9FDC-2D43453B1F5E";
name = "Jan 15 23, 17:21";
paths = (
{
closed = 1;
nodes = (
"259 670 LINE",
"272 671 OFFCURVE",
"278 677 OFFCURVE",
"278 688 CURVE SMOOTH",
"278 708 LINE",
"58 708 LINE",
"58 688 LINE SMOOTH",
"58 677 OFFCURVE",
"65 671 OFFCURVE",
"78 670 CURVE",
"143 668 LINE",
"143 40 LINE",
"78 38 LINE",
"65 37 OFFCURVE",
"58 31 OFFCURVE",
"58 20 CURVE SMOOTH",
"58 0 LINE",
"278 0 LINE",
"278 20 LINE SMOOTH",
"278 31 OFFCURVE",
"272 37 OFFCURVE",
"259 38 CURVE",
"194 40 LINE",
"194 668 LINE"
);
}
);
userData = {
assembly = "PUSHW[ ]	/* 4 values pushed */
0 3 1 4 
CALL[ ]	/* CallFunction */
SVTCA[0]	/* SetFreedomAndProjectionVectorToAxis */
PUSHW[ ]	/* 1 value pushed */
0 
RCVT[ ]	/* ReadCVT */
IF[ ]	/* If */
PUSHW[ ]	/* 1 value pushed */
2 
MDAP[1]	/* MoveDirectAbsPt */
ELSE[ ]	/* Else */
PUSHW[ ]	/* 2 values pushed */
2 11 
MIAP[0]	/* MoveIndirectAbsPt */
EIF[ ]	/* EndIf */
PUSHW[ ]	/* 1 value pushed */
0 
RCVT[ ]	/* ReadCVT */
IF[ ]	/* If */
PUSHW[ ]	/* 1 value pushed */
0 
MDAP[1]	/* MoveDirectAbsPt */
ELSE[ ]	/* Else */
PUSHW[ ]	/* 2 values pushed */
0 5 
MIAP[0]	/* MoveIndirectAbsPt */
EIF[ ]	/* EndIf */
IUP[0]	/* InterpolateUntPts */
IUP[1]	/* InterpolateUntPts */";
};
width = 292;
},
{
associatedMasterId = "BF33A826-8254-4501-9165-758AB68FE84B";
layerId = "3FBEF5B3-A018-4E1C-A056-2235C4E21017";
name = "Jan 15 23, 17:21";
paths = (
{
closed = 1;
nodes = (
"282 655 LINE SMOOTH",
"292 657 OFFCURVE",
"297 664 OFFCURVE",
"297 674 CURVE SMOOTH",
"297 716 LINE",
"56 716 LINE",
"56 674 LINE SMOOTH",
"56 664 OFFCURVE",
"60 658 OFFCURVE",
"68 656 CURVE SMOOTH",
"76 654 OFFCURVE",
"96 650 OFFCURVE",
"128 644 CURVE",
"128 73 LINE",
"70 62 LINE SMOOTH",
"60 60 OFFCURVE",
"56 53 OFFCURVE",
"56 43 CURVE SMOOTH",
"56 0 LINE",
"297 0 LINE",
"297 43 LINE SMOOTH",
"297 53 OFFCURVE",
"293 59 OFFCURVE",
"285 61 CURVE SMOOTH",
"277 63 OFFCURVE",
"256 67 OFFCURVE",
"224 73 CURVE",
"224 644 LINE"
);
}
);
userData = {
assembly = "NPUSHB[ ]	/* 6 values pushed */
3 2 1 0 2 7 
CALL[ ]	/* CallFunction */
MPPEM[ ]	/* MeasurePixelPerEm */
PUSHB[ ]	/* 1 value pushed */
95 
LT[ ]	/* LessThan */
IF[ ]	/* If */
NPUSHB[ ]	/* 12 values pushed */
0 1 1 11 31 0 0 0 12 0 32 2 
ELSE[ ]	/* Else */
MPPEM[ ]	/* MeasurePixelPerEm */
PUSHB[ ]	/* 1 value pushed */
108 
LT[ ]	/* LessThan */
IF[ ]	/* If */
NPUSHB[ ]	/* 14 values pushed */
0 1 1 0 0 0 36 0 0 0 15 0 32 2 
ELSE[ ]	/* Else */
NPUSHB[ ]	/* 23 values pushed */
0 1 0 0 1 0 0 35 0 1 1 0 0 0 36 0 0 1 0 0 0 33 3 
EIF[ ]	/* EndIf */
EIF[ ]	/* EndIf */
PUSHB[ ]	/* 1 value pushed */
56 
CALL[ ]	/* CallFunction */";
};
width = 307;
},
{
associatedMasterId = "2C516476-8145-48E3-8501-3D313ADE77C9";
layerId = "F48809DE-BD20-46A9-86EC-1EF73B66AAA4";
name = "Jan 15 23, 17:21";
paths = (
{
closed = 1;
nodes = (
"331 637 OFFCURVE",
"339 647 OFFCURVE",
"339 664 CURVE SMOOTH",
"339 723 LINE",
"264 723 LINE",
"129 723 LINE",
"53 723 LINE",
"53 664 LINE SMOOTH",
"53 647 OFFCURVE",
"61 637 OFFCURVE",
"78 633 CURVE",
"79 633 OFFCURVE",
"81 633 OFFCURVE",
"84 632 CURVE",
"87 632 OFFCURVE",
"92 630 OFFCURVE",
"99 629 CURVE SMOOTH",
"106 628 OFFCURVE",
"117 626 OFFCURVE",
"129 624 CURVE",
"129 99 LINE",
"117 97 OFFCURVE",
"106 95 OFFCURVE",
"99 94 CURVE SMOOTH",
"92 93 OFFCURVE",
"87 92 OFFCURVE",
"84 91 CURVE",
"81 91 OFFCURVE",
"79 90 OFFCURVE",
"78 90 CURVE",
"61 86 OFFCURVE",
"53 76 OFFCURVE",
"53 59 CURVE SMOOTH",
"53 0 LINE",
"129 0 LINE",
"264 0 LINE",
"339 0 LINE",
"339 59 LINE SMOOTH",
"339 76 OFFCURVE",
"331 86 OFFCURVE",
"314 90 CURVE",
"313 90 OFFCURVE",
"311 91 OFFCURVE",
"308 91 CURVE SMOOTH",
"305 91 OFFCURVE",
"300 93 OFFCURVE",
"293 94 CURVE SMOOTH",
"286 95 OFFCURVE",
"276 97 OFFCURVE",
"264 99 CURVE",
"264 624 LINE",
"276 626 OFFCURVE",
"286 628 OFFCURVE",
"293 629 CURVE SMOOTH",
"300 630 OFFCURVE",
"305 632 OFFCURVE",
"308 632 CURVE SMOOTH",
"311 632 OFFCURVE",
"313 633 OFFCURVE",
"314 633 CURVE"
);
}
);
userData = {
assembly = "NPUSHB[ ]	/* 6 values pushed */
3 2 1 0 2 7 
CALL[ ]	/* CallFunction */
MPPEM[ ]	/* MeasurePixelPerEm */
PUSHB[ ]	/* 1 value pushed */
94 
LT[ ]	/* LessThan */
IF[ ]	/* If */
NPUSHB[ ]	/* 12 values pushed */
0 1 1 11 31 0 0 0 12 0 32 2 
ELSE[ ]	/* Else */
NPUSHB[ ]	/* 23 values pushed */
0 1 0 0 1 0 0 35 0 1 1 0 0 0 36 0 0 1 0 0 0 33 3 
EIF[ ]	/* EndIf */
PUSHB[ ]	/* 1 value pushed */
56 
CALL[ ]	/* CallFunction */";
};
width = 320;
}
);
leftMetricsKey = H;
note = I;
rightMetricsKey = H;
unicode = 0049;
},
{
glyphname = Iotaafrican;
layers = (
{
components = (
{
name = SerifSpurLeft;
transform = "{1, 0, 0, 1, 112, 700}";
}
);
layerId = "A1468767-BE48-4A45-9F09-053256197B3B";
paths = (
{
closed = 1;
nodes = (
"246 -6 OFFCURVE",
"262 -3 OFFCURVE",
"262 1 CURVE SMOOTH",
"262 4 LINE",
"232 4 LINE SMOOTH",
"161 4 OFFCURVE",
"124 44 OFFCURVE",
"124 121 CURVE SMOOTH",
"124 700 LINE",
"112 700 LINE",
"112 121 LINE SMOOTH",
"112 39 OFFCURVE",
"154 -6 OFFCURVE",
"228 -6 CURVE SMOOTH"
);
}
);
width = 276;
},
{
components = (
{
name = SerifSpurLeft;
transform = "{1, 0, 0, 1, 97, 717}";
}
);
layerId = "BF33A826-8254-4501-9165-758AB68FE84B";
paths = (
{
closed = 1;
nodes = (
"277 -6 OFFCURVE",
"314 3 OFFCURVE",
"314 36 CURVE SMOOTH",
"314 68 LINE",
"270 68 LINE SMOOTH",
"218 68 OFFCURVE",
"194 95 OFFCURVE",
"194 152 CURVE SMOOTH",
"194 717 LINE",
"97 717 LINE",
"97 147 LINE SMOOTH",
"97 57 OFFCURVE",
"145 -6 OFFCURVE",
"234 -6 CURVE SMOOTH"
);
}
);
width = 330;
},
{
components = (
{
name = SerifSpurLeft;
transform = "{1, 0, 0, 1, 122, 729}";
}
);
layerId = "2C516476-8145-48E3-8501-3D313ADE77C9";
paths = (
{
closed = 1;
nodes = (
"303 -6 OFFCURVE",
"365 14 OFFCURVE",
"365 64 CURVE SMOOTH",
"365 117 LINE",
"310 117 LINE SMOOTH",
"273 117 OFFCURVE",
"262 135 OFFCURVE",
"262 176 CURVE SMOOTH",
"262 729 LINE",
"92 729 LINE",
"92 167 LINE SMOOTH",
"92 69 OFFCURVE",
"144 -6 OFFCURVE",
"243 -6 CURVE SMOOTH"
);
}
);
width = 381;
}
);
unicode = 0196;
},
{
glyphname = J;
layers = (
{
anchors = (
{
name = top;
position = "{280, 700}";
}
);
components = (
{
name = SerifSpurLeft;
transform = "{1, 0, 0, 1, 274, 700}";
},
{
name = SerifSpurRight;
transform = "{1, 0, 0, 1, 286, 700}";
}
);
layerId = "A1468767-BE48-4A45-9F09-053256197B3B";
paths = (
{
closed = 1;
nodes = (
"210 -8 OFFCURVE",
"286 76 OFFCURVE",
"286 226 CURVE SMOOTH",
"286 700 LINE",
"274 700 LINE",
"274 226 LINE SMOOTH",
"274 83 OFFCURVE",
"203 2 OFFCURVE",
"95 2 CURVE SMOOTH",
"77 2 OFFCURVE",
"61 4 OFFCURVE",
"48 7 CURVE SMOOTH",
"30 11 OFFCURVE",
"17 15 OFFCURVE",
"10 15 CURVE SMOOTH",
"5 15 OFFCURVE",
"3 13 OFFCURVE",
"2 10 CURVE SMOOTH",
"1 7 LINE",
"31 -3 OFFCURVE",
"59 -8 OFFCURVE",
"89 -8 CURVE SMOOTH"
);
}
);
userData = {
assembly = "PUSHW[ ]	/* 4 values pushed */
0 3 20 4 
CALL[ ]	/* CallFunction */
SVTCA[0]	/* SetFreedomAndProjectionVectorToAxis */
PUSHW[ ]	/* 1 value pushed */
0 
RCVT[ ]	/* ReadCVT */
IF[ ]	/* If */
PUSHW[ ]	/* 1 value pushed */
21 
MDAP[1]	/* MoveDirectAbsPt */
ELSE[ ]	/* Else */
PUSHW[ ]	/* 2 values pushed */
21 11 
MIAP[0]	/* MoveIndirectAbsPt */
EIF[ ]	/* EndIf */
PUSHW[ ]	/* 1 value pushed */
0 
RCVT[ ]	/* ReadCVT */
IF[ ]	/* If */
PUSHW[ ]	/* 1 value pushed */
5 
MDAP[1]	/* MoveDirectAbsPt */
ELSE[ ]	/* Else */
PUSHW[ ]	/* 2 values pushed */
5 5 
MIAP[0]	/* MoveIndirectAbsPt */
EIF[ ]	/* EndIf */
PUSHW[ ]	/* 4 values pushed */
10 1 7 4 
CALL[ ]	/* CallFunction */
PUSHW[ ]	/* 1 value pushed */
5 
SRP0[ ]	/* SetRefPoint0 */
PUSHW[ ]	/* 2 values pushed */
15 1 
MIRP[10100]	/* MoveIndirectRelPt */
IUP[0]	/* InterpolateUntPts */
IUP[1]	/* InterpolateUntPts */";
};
width = 394;
},
{
anchors = (
{
name = top;
position = "{279, 729}";
}
);
components = (
{
name = SerifSpurLeft;
transform = "{1, 0, 0, 1, 224, 729}";
},
{
name = SerifSpurRight;
transform = "{1, 0, 0, 1, 364, 729}";
}
);
layerId = "2C516476-8145-48E3-8501-3D313ADE77C9";
paths = (
{
closed = 1;
nodes = (
"283 -8 OFFCURVE",
"364 101 OFFCURVE",
"364 264 CURVE SMOOTH",
"364 729 LINE",
"194 729 LINE",
"194 261 LINE SMOOTH",
"194 164 OFFCURVE",
"167 127 OFFCURVE",
"90 127 CURVE SMOOTH",
"88 127 OFFCURVE",
"83 127 OFFCURVE",
"68 130 CURVE SMOOTH",
"52 133 OFFCURVE",
"52 133 OFFCURVE",
"46 133 CURVE SMOOTH",
"25 133 OFFCURVE",
"12 123 OFFCURVE",
"10 104 CURVE SMOOTH",
"1 5 LINE",
"41 -4 OFFCURVE",
"75 -8 OFFCURVE",
"111 -8 CURVE SMOOTH"
);
}
);
userData = {
assembly = "NPUSHB[ ]	/* 10 values pushed */
22 21 16 14 13 11 6 4 4 7 
CALL[ ]	/* CallFunction */
MPPEM[ ]	/* MeasurePixelPerEm */
PUSHB[ ]	/* 1 value pushed */
43 
LT[ ]	/* LessThan */
IF[ ]	/* If */
NPUSHB[ ]	/* 26 values pushed */
8 1 0 1 1 30 0 3 3 11 31 2 1 1 1 0 1 0 36 0 0 0 18 0 32 4 
ELSE[ ]	/* Else */
MPPEM[ ]	/* MeasurePixelPerEm */
PUSHB[ ]	/* 1 value pushed */
94 
LT[ ]	/* LessThan */
IF[ ]	/* If */
NPUSHB[ ]	/* 33 values pushed */
8 1 0 2 1 30 0 1 3 2 3 1 2 50 0 3 3 11 31 0 2 2 0 1 0 36 0 0 0 18 0 32 5 
ELSE[ ]	/* Else */
NPUSHB[ ]	/* 39 values pushed */
8 1 0 2 1 30 0 3 1 3 52 0 1 2 1 52 0 2 0 0 2 1 0 35 0 2 2 0 1 0 36 0 0 2 0 1 0 33 6 
EIF[ ]	/* EndIf */
EIF[ ]	/* EndIf */
PUSHB[ ]	/* 1 value pushed */
56 
CALL[ ]	/* CallFunction */";
};
width = 460;
},
{
anchors = (
{
name = top;
position = "{281, 717}";
}
);
components = (
{
name = SerifSpurLeft;
transform = "{1, 0, 0, 1, 231, 717}";
},
{
name = SerifSpurRight;
transform = "{1, 0, 0, 1, 329, 717}";
}
);
layerId = "BF33A826-8254-4501-9165-758AB68FE84B";
paths = (
{
closed = 1;
nodes = (
"249 -8 OFFCURVE",
"328 90 OFFCURVE",
"328 248 CURVE SMOOTH",
"328 717 LINE",
"231 717 LINE",
"231 246 LINE SMOOTH",
"231 129 OFFCURVE",
"186 73 OFFCURVE",
"89 73 CURVE SMOOTH",
"76 73 OFFCURVE",
"65 74 OFFCURVE",
"53 78 CURVE SMOOTH",
"46 80 OFFCURVE",
"35 82 OFFCURVE",
"27 82 CURVE SMOOTH",
"14 82 OFFCURVE",
"9 76 OFFCURVE",
"7 63 CURVE SMOOTH",
"1 6 LINE",
"35 -3 OFFCURVE",
"69 -8 OFFCURVE",
"102 -8 CURVE SMOOTH"
);
}
);
userData = {
assembly = "NPUSHB[ ]	/* 10 values pushed */
23 22 17 15 14 12 6 4 4 7 
CALL[ ]	/* CallFunction */
MPPEM[ ]	/* MeasurePixelPerEm */
PUSHB[ ]	/* 1 value pushed */
26 
LT[ ]	/* LessThan */
IF[ ]	/* If */
NPUSHB[ ]	/* 26 values pushed */
7 1 0 1 1 30 0 3 3 11 31 2 1 1 1 0 1 0 36 0 0 0 18 0 32 4 
ELSE[ ]	/* Else */
MPPEM[ ]	/* MeasurePixelPerEm */
PUSHB[ ]	/* 1 value pushed */
95 
LT[ ]	/* LessThan */
IF[ ]	/* If */
NPUSHB[ ]	/* 33 values pushed */
7 1 0 2 1 30 0 1 3 2 3 1 2 50 0 3 3 11 31 0 2 2 0 1 0 36 0 0 0 18 0 32 5 
ELSE[ ]	/* Else */
MPPEM[ ]	/* MeasurePixelPerEm */
PUSHB[ ]	/* 1 value pushed */
108 
LT[ ]	/* LessThan */
IF[ ]	/* If */
NPUSHB[ ]	/* 30 values pushed */
7 1 0 2 1 30 0 3 1 3 52 0 1 2 1 52 0 2 2 0 1 0 36 0 0 0 21 0 32 5 
ELSE[ ]	/* Else */
NPUSHB[ ]	/* 39 values pushed */
7 1 0 2 1 30 0 3 1 3 52 0 1 2 1 52 0 2 0 0 2 1 0 35 0 2 2 0 1 0 36 0 0 2 0 1 0 33 6 
EIF[ ]	/* EndIf */
EIF[ ]	/* EndIf */
EIF[ ]	/* EndIf */
PUSHB[ ]	/* 1 value pushed */
56 
CALL[ ]	/* CallFunction */";
};
width = 424;
},
{
associatedMasterId = "A1468767-BE48-4A45-9F09-053256197B3B";
layerId = "85D090E3-5159-4208-A5E3-A72081B35973";
name = "Jan 15 23, 17:21";
paths = (
{
closed = 1;
nodes = (
"162 708 LINE",
"162 688 LINE SMOOTH",
"162 677 OFFCURVE",
"169 671 OFFCURVE",
"182 670 CURVE",
"254 668 LINE",
"254 235 LINE SMOOTH",
"254 112 OFFCURVE",
"202 35 OFFCURVE",
"90 35 CURVE SMOOTH",
"74 35 OFFCURVE",
"49 39 OFFCURVE",
"28 44 CURVE SMOOTH",
"13 47 OFFCURVE",
"10 45 OFFCURVE",
"6 29 CURVE",
"1 7 LINE",
"28 -1 OFFCURVE",
"67 -8 OFFCURVE",
"94 -8 CURVE SMOOTH",
"231 -8 OFFCURVE",
"305 85 OFFCURVE",
"305 236 CURVE SMOOTH",
"305 668 LINE",
"370 670 LINE",
"383 671 OFFCURVE",
"390 677 OFFCURVE",
"390 688 CURVE SMOOTH",
"390 708 LINE"
);
}
);
userData = {
assembly = "PUSHW[ ]	/* 4 values pushed */
0 3 20 4 
CALL[ ]	/* CallFunction */
SVTCA[0]	/* SetFreedomAndProjectionVectorToAxis */
PUSHW[ ]	/* 1 value pushed */
0 
RCVT[ ]	/* ReadCVT */
IF[ ]	/* If */
PUSHW[ ]	/* 1 value pushed */
21 
MDAP[1]	/* MoveDirectAbsPt */
ELSE[ ]	/* Else */
PUSHW[ ]	/* 2 values pushed */
21 11 
MIAP[0]	/* MoveIndirectAbsPt */
EIF[ ]	/* EndIf */
PUSHW[ ]	/* 1 value pushed */
0 
RCVT[ ]	/* ReadCVT */
IF[ ]	/* If */
PUSHW[ ]	/* 1 value pushed */
5 
MDAP[1]	/* MoveDirectAbsPt */
ELSE[ ]	/* Else */
PUSHW[ ]	/* 2 values pushed */
5 5 
MIAP[0]	/* MoveIndirectAbsPt */
EIF[ ]	/* EndIf */
PUSHW[ ]	/* 4 values pushed */
10 1 7 4 
CALL[ ]	/* CallFunction */
PUSHW[ ]	/* 1 value pushed */
5 
SRP0[ ]	/* SetRefPoint0 */
PUSHW[ ]	/* 2 values pushed */
15 1 
MIRP[10100]	/* MoveIndirectRelPt */
IUP[0]	/* InterpolateUntPts */
IUP[1]	/* InterpolateUntPts */";
};
width = 462;
},
{
associatedMasterId = "BF33A826-8254-4501-9165-758AB68FE84B";
layerId = "AF93DD30-3901-43B1-AB91-954843A44B16";
name = "Jan 15 23, 17:22";
paths = (
{
closed = 1;
nodes = (
"92 73 LINE",
"76 73 OFFCURVE",
"62 75 OFFCURVE",
"52 78 CURVE SMOOTH",
"42 81 OFFCURVE",
"34 82 OFFCURVE",
"28 82 CURVE SMOOTH",
"22 82 OFFCURVE",
"16 80 OFFCURVE",
"12 76 CURVE SMOOTH",
"8 72 OFFCURVE",
"4 48 OFFCURVE",
"1 6 CURVE",
"36 -4 OFFCURVE",
"71 -8 OFFCURVE",
"105 -8 CURVE SMOOTH",
"139 -8 OFFCURVE",
"170 -2 OFFCURVE",
"198 10 CURVE SMOOTH",
"284 46 OFFCURVE",
"328 125 OFFCURVE",
"328 248 CURVE SMOOTH",
"328 644 LINE",
"384 655 LINE SMOOTH",
"394 657 OFFCURVE",
"400 664 OFFCURVE",
"400 674 CURVE SMOOTH",
"400 716 LINE",
"150 716 LINE",
"150 674 LINE SMOOTH",
"150 664 OFFCURVE",
"154 657 OFFCURVE",
"164 655 CURVE",
"170 653 OFFCURVE",
"193 649 OFFCURVE",
"231 643 CURVE",
"231 245 LINE SMOOTH",
"231 130 OFFCURVE",
"184 72 OFFCURVE",
"92 72 CURVE"
);
}
);
userData = {
assembly = "NPUSHB[ ]	/* 10 values pushed */
23 22 17 15 14 12 6 4 4 7 
CALL[ ]	/* CallFunction */
MPPEM[ ]	/* MeasurePixelPerEm */
PUSHB[ ]	/* 1 value pushed */
26 
LT[ ]	/* LessThan */
IF[ ]	/* If */
NPUSHB[ ]	/* 26 values pushed */
7 1 0 1 1 30 0 3 3 11 31 2 1 1 1 0 1 0 36 0 0 0 18 0 32 4 
ELSE[ ]	/* Else */
MPPEM[ ]	/* MeasurePixelPerEm */
PUSHB[ ]	/* 1 value pushed */
95 
LT[ ]	/* LessThan */
IF[ ]	/* If */
NPUSHB[ ]	/* 33 values pushed */
7 1 0 2 1 30 0 1 3 2 3 1 2 50 0 3 3 11 31 0 2 2 0 1 0 36 0 0 0 18 0 32 5 
ELSE[ ]	/* Else */
MPPEM[ ]	/* MeasurePixelPerEm */
PUSHB[ ]	/* 1 value pushed */
108 
LT[ ]	/* LessThan */
IF[ ]	/* If */
NPUSHB[ ]	/* 30 values pushed */
7 1 0 2 1 30 0 3 1 3 52 0 1 2 1 52 0 2 2 0 1 0 36 0 0 0 21 0 32 5 
ELSE[ ]	/* Else */
NPUSHB[ ]	/* 39 values pushed */
7 1 0 2 1 30 0 3 1 3 52 0 1 2 1 52 0 2 0 0 2 1 0 35 0 2 2 0 1 0 36 0 0 2 0 1 0 33 6 
EIF[ ]	/* EndIf */
EIF[ ]	/* EndIf */
EIF[ ]	/* EndIf */
PUSHB[ ]	/* 1 value pushed */
56 
CALL[ ]	/* CallFunction */";
};
width = 444;
},
{
associatedMasterId = "2C516476-8145-48E3-8501-3D313ADE77C9";
layerId = "9569D238-91AB-41A1-B34D-F4A838C284CB";
name = "Jan 15 23, 17:22";
paths = (
{
closed = 1;
nodes = (
"346 723 LINE",
"212 723 LINE",
"127 723 LINE",
"127 664 LINE SMOOTH",
"127 647 OFFCURVE",
"135 637 OFFCURVE",
"152 633 CURVE",
"153 633 OFFCURVE",
"157 632 OFFCURVE",
"161 632 CURVE SMOOTH",
"165 632 OFFCURVE",
"171 630 OFFCURVE",
"180 629 CURVE SMOOTH",
"189 628 OFFCURVE",
"200 626 OFFCURVE",
"212 624 CURVE",
"212 254 LINE SMOOTH",
"212 227 OFFCURVE",
"209 203 OFFCURVE",
"204 184 CURVE SMOOTH",
"199 165 OFFCURVE",
"192 150 OFFCURVE",
"182 138 CURVE SMOOTH",
"172 126 OFFCURVE",
"160 116 OFFCURVE",
"145 111 CURVE",
"130 105 OFFCURVE",
"114 103 OFFCURVE",
"95 103 CURVE SMOOTH",
"81 103 OFFCURVE",
"69 105 OFFCURVE",
"60 107 CURVE SMOOTH",
"51 109 OFFCURVE",
"44 110 OFFCURVE",
"38 110 CURVE SMOOTH",
"29 110 OFFCURVE",
"22 107 OFFCURVE",
"17 103 CURVE",
"12 98 OFFCURVE",
"9 93 OFFCURVE",
"8 86 CURVE",
"1 6 LINE",
"20 1 OFFCURVE",
"39 -3 OFFCURVE",
"56 -5 CURVE SMOOTH",
"73 -7 OFFCURVE",
"91 -8 OFFCURVE",
"109 -8 CURVE SMOOTH",
"148 -8 OFFCURVE",
"182 -1 OFFCURVE",
"212 11 CURVE SMOOTH",
"242 23 OFFCURVE",
"267 41 OFFCURVE",
"287 64 CURVE SMOOTH",
"307 87 OFFCURVE",
"321 114 OFFCURVE",
"331 147 CURVE SMOOTH",
"341 180 OFFCURVE",
"346 216 OFFCURVE",
"346 257 CURVE SMOOTH",
"346 624 LINE",
"358 626 OFFCURVE",
"369 628 OFFCURVE",
"376 629 CURVE SMOOTH",
"383 630 OFFCURVE",
"388 632 OFFCURVE",
"391 632 CURVE SMOOTH",
"394 632 OFFCURVE",
"396 633 OFFCURVE",
"397 633 CURVE",
"414 637 OFFCURVE",
"422 647 OFFCURVE",
"422 664 CURVE SMOOTH",
"422 723 LINE"
);
}
);
userData = {
assembly = "NPUSHB[ ]	/* 10 values pushed */
22 21 16 14 13 11 6 4 4 7 
CALL[ ]	/* CallFunction */
MPPEM[ ]	/* MeasurePixelPerEm */
PUSHB[ ]	/* 1 value pushed */
43 
LT[ ]	/* LessThan */
IF[ ]	/* If */
NPUSHB[ ]	/* 26 values pushed */
8 1 0 1 1 30 0 3 3 11 31 2 1 1 1 0 1 0 36 0 0 0 18 0 32 4 
ELSE[ ]	/* Else */
MPPEM[ ]	/* MeasurePixelPerEm */
PUSHB[ ]	/* 1 value pushed */
94 
LT[ ]	/* LessThan */
IF[ ]	/* If */
NPUSHB[ ]	/* 33 values pushed */
8 1 0 2 1 30 0 1 3 2 3 1 2 50 0 3 3 11 31 0 2 2 0 1 0 36 0 0 0 18 0 32 5 
ELSE[ ]	/* Else */
NPUSHB[ ]	/* 39 values pushed */
8 1 0 2 1 30 0 3 1 3 52 0 1 2 1 52 0 2 0 0 2 1 0 35 0 2 2 0 1 0 36 0 0 2 0 1 0 33 6 
EIF[ ]	/* EndIf */
EIF[ ]	/* EndIf */
PUSHB[ ]	/* 1 value pushed */
56 
CALL[ ]	/* CallFunction */";
};
width = 430;
}
);
leftKerningGroup = J;
note = J;
rightKerningGroup = J;
rightMetricsKey = U;
unicode = 004A;
},
{
glyphname = K;
layers = (
{
anchors = (
{
name = bottom;
position = "{344, 0}";
},
{
name = top;
position = "{344, 700}";
}
);
components = (
{
name = SerifBottomLeft;
transform = "{1, 0, 0, 1, 124, 0}";
},
{
name = SerifBottomRight;
transform = "{1, 0, 0, 1, 136, 0}";
},
{
name = SerifSpurLeft;
transform = "{1, 0, 0, 1, 124, 700}";
},
{
name = SerifSpurRight;
transform = "{1, 0, 0, 1, 136, 700}";
},
{
name = SerifBottomRight;
transform = "{1, 0, 0, 1, 600, 0}";
},
{
name = SerifSpurRight;
transform = "{1, 0, 0, 1, 579, 700}";
},
{
name = SerifSpurLeft;
transform = "{1, 0, 0, 1, 574, 700}";
}
);
layerId = "A1468767-BE48-4A45-9F09-053256197B3B";
paths = (
{
closed = 1;
nodes = (
"136 0 LINE",
"136 352 LINE",
"183 352 LINE SMOOTH",
"207 352 OFFCURVE",
"217 349 OFFCURVE",
"235 332 CURVE SMOOTH",
"579 7 LINE SMOOTH",
"584 2 OFFCURVE",
"588 0 OFFCURVE",
"597 0 CURVE SMOOTH",
"602 0 LINE",
"241 341 LINE",
"233 350 OFFCURVE",
"224 356 OFFCURVE",
"212 357 CURVE",
"225 360 OFFCURVE",
"232 364 OFFCURVE",
"242 374 CURVE SMOOTH",
"582 700 LINE",
"576 700 LINE SMOOTH",
"569 700 OFFCURVE",
"566 699 OFFCURVE",
"558 692 CURVE SMOOTH",
"232 379 LINE",
"215 364 OFFCURVE",
"208 362 OFFCURVE",
"183 362 CURVE SMOOTH",
"136 362 LINE",
"136 700 LINE",
"124 700 LINE",
"124 0 LINE"
);
},
{
closed = 1;
nodes = (
"577 688 LINE",
"600 700 LINE",
"576 700 LINE",
"564 692 LINE",
"555 687 LINE"
);
},
{
closed = 1;
nodes = (
"598 12 LINE",
"574 13 LINE",
"597 0 LINE"
);
}
);
userData = {
assembly = "PUSHW[ ]	/* 4 values pushed */
31 3 32 4 
CALL[ ]	/* CallFunction */
PUSHW[ ]	/* 1 value pushed */
31 
SRP0[ ]	/* SetRefPoint0 */
PUSHW[ ]	/* 1 value pushed */
0 
MDRP[10000]	/* MoveDirectRelPt */
SVTCA[0]	/* SetFreedomAndProjectionVectorToAxis */
PUSHW[ ]	/* 1 value pushed */
0 
RCVT[ ]	/* ReadCVT */
IF[ ]	/* If */
PUSHW[ ]	/* 1 value pushed */
33 
MDAP[1]	/* MoveDirectAbsPt */
ELSE[ ]	/* Else */
PUSHW[ ]	/* 2 values pushed */
33 11 
MIAP[0]	/* MoveIndirectAbsPt */
EIF[ ]	/* EndIf */
PUSHW[ ]	/* 1 value pushed */
0 
RCVT[ ]	/* ReadCVT */
IF[ ]	/* If */
PUSHW[ ]	/* 1 value pushed */
10 
MDAP[1]	/* MoveDirectAbsPt */
ELSE[ ]	/* Else */
PUSHW[ ]	/* 2 values pushed */
10 11 
MIAP[0]	/* MoveIndirectAbsPt */
EIF[ ]	/* EndIf */
PUSHW[ ]	/* 1 value pushed */
0 
RCVT[ ]	/* ReadCVT */
IF[ ]	/* If */
PUSHW[ ]	/* 1 value pushed */
19 
MDAP[1]	/* MoveDirectAbsPt */
ELSE[ ]	/* Else */
PUSHW[ ]	/* 2 values pushed */
19 5 
MIAP[0]	/* MoveIndirectAbsPt */
EIF[ ]	/* EndIf */
PUSHW[ ]	/* 1 value pushed */
0 
RCVT[ ]	/* ReadCVT */
IF[ ]	/* If */
PUSHW[ ]	/* 1 value pushed */
31 
MDAP[1]	/* MoveDirectAbsPt */
ELSE[ ]	/* Else */
PUSHW[ ]	/* 2 values pushed */
31 5 
MIAP[0]	/* MoveIndirectAbsPt */
EIF[ ]	/* EndIf */
PUSHW[ ]	/* 4 values pushed */
1 1 29 4 
CALL[ ]	/* CallFunction */
IUP[0]	/* InterpolateUntPts */
IUP[1]	/* InterpolateUntPts */";
};
width = 698;
},
{
anchors = (
{
name = bottom;
position = "{379, 0}";
},
{
name = top;
position = "{379, 729}";
}
);
components = (
{
name = SerifBottomLeft;
transform = "{1, 0, 0, 1, 97, 0}";
},
{
name = SerifBottomRight;
transform = "{1, 0, 0, 1, 267, 0}";
},
{
name = SerifSpurLeft;
transform = "{1, 0, 0, 1, 127, 729}";
},
{
name = SerifSpurRight;
transform = "{1, 0, 0, 1, 267, 729}";
},
{
name = SerifBottomRight;
transform = "{1, 0, 0, 1, 674, 0}";
},
{
name = SerifSpurRight;
transform = "{1, 0, 0, 1, 655, 729}";
},
{
name = SerifSpurLeft;
transform = "{1, 0, 0, 1, 530, 729}";
}
);
layerId = "2C516476-8145-48E3-8501-3D313ADE77C9";
paths = (
{
closed = 1;
nodes = (
"267 0 LINE",
"267 310 LINE",
"308 310 LINE SMOOTH",
"340 310 OFFCURVE",
"356 304 OFFCURVE",
"368 285 CURVE SMOOTH",
"533 31 LINE SMOOTH",
"548 9 OFFCURVE",
"563 0 OFFCURVE",
"599 0 CURVE SMOOTH",
"750 0 LINE",
"530 338 LINE SMOOTH",
"512 366 OFFCURVE",
"492 381 OFFCURVE",
"467 390 CURVE",
"484 399 OFFCURVE",
"501 413 OFFCURVE",
"516 434 CURVE SMOOTH",
"732 729 LINE",
"585 729 LINE SMOOTH",
"552 729 OFFCURVE",
"530 722 OFFCURVE",
"512 695 CURVE SMOOTH",
"348 457 LINE SMOOTH",
"337 442 OFFCURVE",
"319 434 OFFCURVE",
"294 434 CURVE SMOOTH",
"267 434 LINE",
"267 729 LINE",
"97 729 LINE",
"97 0 LINE"
);
},
{
closed = 1;
nodes = (
"654 612 LINE",
"677 729 LINE",
"506 729 LINE",
"506 688 LINE",
"615 604 LINE"
);
},
{
closed = 1;
nodes = (
"673 117 LINE",
"598 131 LINE",
"654 0 LINE"
);
}
);
userData = {
assembly = "NPUSHB[ ]	/* 14 values pushed */
31 30 29 28 27 25 18 16 8 6 2 0 6 7 
CALL[ ]	/* CallFunction */
MPPEM[ ]	/* MeasurePixelPerEm */
PUSHB[ ]	/* 1 value pushed */
94 
LT[ ]	/* LessThan */
IF[ ]	/* If */
NPUSHB[ ]	/* 30 values pushed */
12 1 3 0 1 30 0 0 0 3 2 0 3 1 0 38 5 1 1 1 11 31 4 1 2 2 12 2 32 4 
ELSE[ ]	/* Else */
MPPEM[ ]	/* MeasurePixelPerEm */
PUSHB[ ]	/* 1 value pushed */
232 
LT[ ]	/* LessThan */
IF[ ]	/* If */
NPUSHB[ ]	/* 42 values pushed */
12 1 3 0 1 30 5 1 1 0 2 1 1 0 35 0 0 0 3 2 0 3 1 0 38 5 1 1 1 2 1 0 36 4 1 2 1 2 1 0 33 5 
ELSE[ ]	/* Else */
NPUSHB[ ]	/* 49 values pushed */
12 1 3 0 1 30 0 1 5 2 1 1 0 35 0 0 0 3 4 0 3 1 0 38 0 5 0 4 2 5 4 0 0 38 0 1 1 2 1 0 36 0 2 1 2 1 0 33 6 
EIF[ ]	/* EndIf */
EIF[ ]	/* EndIf */
PUSHB[ ]	/* 1 value pushed */
56 
CALL[ ]	/* CallFunction */";
};
width = 759;
},
{
anchors = (
{
name = bottom;
position = "{364, 0}";
},
{
name = top;
position = "{364, 717}";
}
);
components = (
{
name = SerifBottomLeft;
transform = "{1, 0, 0, 1, 105, 0}";
},
{
name = SerifBottomRight;
transform = "{1, 0, 0, 1, 203, 0}";
},
{
name = SerifSpurLeft;
transform = "{1, 0, 0, 1, 105, 717}";
},
{
name = SerifSpurRight;
transform = "{1, 0, 0, 1, 203, 717}";
},
{
name = SerifBottomRight;
transform = "{1, 0, 0, 1, 623, 0}";
},
{
name = SerifSpurRight;
transform = "{1, 0, 0, 1, 606, 717}";
},
{
name = SerifSpurLeft;
transform = "{1, 0, 0, 1, 531, 717}";
}
);
layerId = "BF33A826-8254-4501-9165-758AB68FE84B";
paths = (
{
closed = 1;
nodes = (
"202 0 LINE",
"202 328 LINE",
"246 328 LINE SMOOTH",
"278 328 OFFCURVE",
"284 323 OFFCURVE",
"302 305 CURVE",
"549 21 LINE SMOOTH",
"560 8 OFFCURVE",
"571 0 OFFCURVE",
"593 0 CURVE SMOOTH",
"677 0 LINE",
"392 340 LINE SMOOTH",
"377 357 OFFCURVE",
"365 369 OFFCURVE",
"346 376 CURVE",
"359 383 OFFCURVE",
"372 393 OFFCURVE",
"385 408 CURVE SMOOTH",
"658 717 LINE",
"576 717 LINE SMOOTH",
"555 717 OFFCURVE",
"542 710 OFFCURVE",
"528 694 CURVE SMOOTH",
"290 424 LINE SMOOTH",
"276 408 OFFCURVE",
"263 403 OFFCURVE",
"238 403 CURVE SMOOTH",
"202 403 LINE",
"202 717 LINE",
"105 717 LINE",
"105 0 LINE"
);
},
{
closed = 1;
nodes = (
"587 639 LINE",
"668 717 LINE",
"552 717 LINE",
"552 669 LINE",
"573 636 LINE"
);
},
{
closed = 1;
nodes = (
"604 78 LINE",
"545 91 LINE",
"593 0 LINE"
);
}
);
userData = {
assembly = "NPUSHB[ ]	/* 14 values pushed */
34 33 32 31 30 28 19 17 9 7 2 0 6 7 
CALL[ ]	/* CallFunction */
MPPEM[ ]	/* MeasurePixelPerEm */
PUSHB[ ]	/* 1 value pushed */
95 
LT[ ]	/* LessThan */
IF[ ]	/* If */
NPUSHB[ ]	/* 30 values pushed */
13 1 3 0 1 30 0 0 0 3 2 0 3 1 0 38 5 1 1 1 11 31 4 1 2 2 12 2 32 4 
ELSE[ ]	/* Else */
MPPEM[ ]	/* MeasurePixelPerEm */
PUSHB[ ]	/* 1 value pushed */
108 
LT[ ]	/* LessThan */
IF[ ]	/* If */
NPUSHB[ ]	/* 32 values pushed */
13 1 3 0 1 30 0 0 0 3 2 0 3 1 0 38 5 1 1 1 2 1 0 36 4 1 2 2 15 2 32 4 
ELSE[ ]	/* Else */
MPPEM[ ]	/* MeasurePixelPerEm */
PUSHB[ ]	/* 1 value pushed */
232 
LT[ ]	/* LessThan */
IF[ ]	/* If */
NPUSHB[ ]	/* 42 values pushed */
13 1 3 0 1 30 5 1 1 0 2 1 1 0 35 0 0 0 3 2 0 3 1 0 38 5 1 1 1 2 1 0 36 4 1 2 1 2 1 0 33 5 
ELSE[ ]	/* Else */
NPUSHB[ ]	/* 49 values pushed */
13 1 3 0 1 30 0 1 5 2 1 1 0 35 0 0 0 3 4 0 3 1 0 38 0 5 0 4 2 5 4 0 0 38 0 1 1 2 1 0 36 0 2 1 2 1 0 33 6 
EIF[ ]	/* EndIf */
EIF[ ]	/* EndIf */
EIF[ ]	/* EndIf */
PUSHB[ ]	/* 1 value pushed */
56 
CALL[ ]	/* CallFunction */";
};
width = 708;
},
{
associatedMasterId = "A1468767-BE48-4A45-9F09-053256197B3B";
layerId = "D22E1BA0-C9F9-4826-B939-D16473C1A048";
name = "Jan 15 23, 17:22";
paths = (
{
closed = 1;
nodes = (
"626 39 LINE",
"338 340 LINE",
"329 350 OFFCURVE",
"318 360 OFFCURVE",
"302 365 CURVE",
"309 367 OFFCURVE",
"324 377 OFFCURVE",
"335 390 CURVE",
"606 669 LINE",
"644 670 LINE",
"657 671 OFFCURVE",
"664 677 OFFCURVE",
"664 688 CURVE SMOOTH",
"664 708 LINE",
"456 708 LINE",
"456 688 LINE SMOOTH",
"456 677 OFFCURVE",
"463 671 OFFCURVE",
"476 670 CURVE",
"548 669 LINE",
"286 400 LINE SMOOTH",
"272 386 OFFCURVE",
"262 381 OFFCURVE",
"235 381 CURVE SMOOTH",
"193 381 LINE",
"193 669 LINE",
"258 671 LINE",
"271 672 OFFCURVE",
"277 678 OFFCURVE",
"277 689 CURVE SMOOTH",
"277 708 LINE",
"58 708 LINE",
"58 689 LINE SMOOTH",
"58 678 OFFCURVE",
"65 672 OFFCURVE",
"78 671 CURVE",
"142 669 LINE",
"142 40 LINE",
"78 38 LINE",
"65 37 OFFCURVE",
"58 31 OFFCURVE",
"58 20 CURVE SMOOTH",
"58 0 LINE",
"277 0 LINE",
"277 20 LINE SMOOTH",
"277 31 OFFCURVE",
"271 37 OFFCURVE",
"258 38 CURVE",
"193 40 LINE",
"193 341 LINE",
"239 341 LINE SMOOTH",
"260 341 OFFCURVE",
"274 339 OFFCURVE",
"293 320 CURVE SMOOTH",
"568 39 LINE",
"492 38 LINE",
"479 37 OFFCURVE",
"472 31 OFFCURVE",
"472 20 CURVE SMOOTH",
"472 0 LINE",
"685 0 LINE",
"685 20 LINE SMOOTH",
"685 31 OFFCURVE",
"678 37 OFFCURVE",
"665 38 CURVE"
);
}
);
userData = {
assembly = "PUSHW[ ]	/* 4 values pushed */
31 3 32 4 
CALL[ ]	/* CallFunction */
PUSHW[ ]	/* 1 value pushed */
31 
SRP0[ ]	/* SetRefPoint0 */
PUSHW[ ]	/* 1 value pushed */
0 
MDRP[10000]	/* MoveDirectRelPt */
SVTCA[0]	/* SetFreedomAndProjectionVectorToAxis */
PUSHW[ ]	/* 1 value pushed */
0 
RCVT[ ]	/* ReadCVT */
IF[ ]	/* If */
PUSHW[ ]	/* 1 value pushed */
33 
MDAP[1]	/* MoveDirectAbsPt */
ELSE[ ]	/* Else */
PUSHW[ ]	/* 2 values pushed */
33 11 
MIAP[0]	/* MoveIndirectAbsPt */
EIF[ ]	/* EndIf */
PUSHW[ ]	/* 1 value pushed */
0 
RCVT[ ]	/* ReadCVT */
IF[ ]	/* If */
PUSHW[ ]	/* 1 value pushed */
10 
MDAP[1]	/* MoveDirectAbsPt */
ELSE[ ]	/* Else */
PUSHW[ ]	/* 2 values pushed */
10 11 
MIAP[0]	/* MoveIndirectAbsPt */
EIF[ ]	/* EndIf */
PUSHW[ ]	/* 1 value pushed */
0 
RCVT[ ]	/* ReadCVT */
IF[ ]	/* If */
PUSHW[ ]	/* 1 value pushed */
19 
MDAP[1]	/* MoveDirectAbsPt */
ELSE[ ]	/* Else */
PUSHW[ ]	/* 2 values pushed */
19 5 
MIAP[0]	/* MoveIndirectAbsPt */
EIF[ ]	/* EndIf */
PUSHW[ ]	/* 1 value pushed */
0 
RCVT[ ]	/* ReadCVT */
IF[ ]	/* If */
PUSHW[ ]	/* 1 value pushed */
31 
MDAP[1]	/* MoveDirectAbsPt */
ELSE[ ]	/* Else */
PUSHW[ ]	/* 2 values pushed */
31 5 
MIAP[0]	/* MoveIndirectAbsPt */
EIF[ ]	/* EndIf */
PUSHW[ ]	/* 4 values pushed */
1 1 29 4 
CALL[ ]	/* CallFunction */
IUP[0]	/* InterpolateUntPts */
IUP[1]	/* InterpolateUntPts */";
};
width = 642;
},
{
associatedMasterId = "BF33A826-8254-4501-9165-758AB68FE84B";
layerId = "998B64F7-0C9B-4590-B082-9CB9393E6408";
name = "Jan 15 23, 17:22";
paths = (
{
closed = 1;
nodes = (
"663 59 LINE",
"657 61 OFFCURVE",
"640 64 OFFCURVE",
"612 70 CURVE",
"385 340 LINE SMOOTH",
"369 360 OFFCURVE",
"353 372 OFFCURVE",
"339 376 CURVE",
"351 382 OFFCURVE",
"364 392 OFFCURVE",
"378 408 CURVE SMOOTH",
"591 649 LINE",
"617 655 OFFCURVE",
"631 659 OFFCURVE",
"637 661 CURVE",
"647 663 OFFCURVE",
"653 670 OFFCURVE",
"653 680 CURVE",
"651 718 LINE",
"425 718 LINE",
"425 678 LINE SMOOTH",
"425 668 OFFCURVE",
"429 662 OFFCURVE",
"439 660 CURVE SMOOTH",
"445 659 OFFCURVE",
"459 656 OFFCURVE",
"483 652 CURVE",
"283 424 LINE SMOOTH",
"271 410 OFFCURVE",
"253 404 OFFCURVE",
"231 404 CURVE SMOOTH",
"195 404 LINE",
"195 644 LINE",
"203 646 OFFCURVE",
"221 650 OFFCURVE",
"251 656 CURVE SMOOTH",
"261 658 OFFCURVE",
"267 665 OFFCURVE",
"267 675 CURVE SMOOTH",
"267 718 LINE",
"26 718 LINE",
"26 675 LINE SMOOTH",
"26 665 OFFCURVE",
"31 658 OFFCURVE",
"41 656 CURVE",
"47 654 OFFCURVE",
"66 650 OFFCURVE",
"98 644 CURVE",
"98 74 LINE",
"41 62 LINE SMOOTH",
"31 60 OFFCURVE",
"26 54 OFFCURVE",
"26 44 CURVE SMOOTH",
"26 1 LINE",
"267 1 LINE",
"267 44 LINE SMOOTH",
"267 54 OFFCURVE",
"261 60 OFFCURVE",
"251 62 CURVE SMOOTH",
"224 68 OFFCURVE",
"206 72 OFFCURVE",
"195 74 CURVE",
"195 330 LINE",
"239 330 LINE SMOOTH",
"247 330 OFFCURVE",
"255 330 OFFCURVE",
"264 328 CURVE SMOOTH",
"273 326 OFFCURVE",
"283 318 OFFCURVE",
"295 306 CURVE",
"502 68 LINE",
"475 62 OFFCURVE",
"460 59 OFFCURVE",
"456 59 CURVE",
"446 57 OFFCURVE",
"442 52 OFFCURVE",
"442 42 CURVE SMOOTH",
"442 2 LINE",
"677 2 LINE",
"677 42 LINE SMOOTH",
"677 52 OFFCURVE",
"672 58 OFFCURVE",
"662 60 CURVE"
);
}
);
userData = {
assembly = "NPUSHB[ ]	/* 14 values pushed */
34 33 32 31 30 28 19 17 9 7 2 0 6 7 
CALL[ ]	/* CallFunction */
MPPEM[ ]	/* MeasurePixelPerEm */
PUSHB[ ]	/* 1 value pushed */
95 
LT[ ]	/* LessThan */
IF[ ]	/* If */
NPUSHB[ ]	/* 30 values pushed */
13 1 3 0 1 30 0 0 0 3 2 0 3 1 0 38 5 1 1 1 11 31 4 1 2 2 12 2 32 4 
ELSE[ ]	/* Else */
MPPEM[ ]	/* MeasurePixelPerEm */
PUSHB[ ]	/* 1 value pushed */
108 
LT[ ]	/* LessThan */
IF[ ]	/* If */
NPUSHB[ ]	/* 32 values pushed */
13 1 3 0 1 30 0 0 0 3 2 0 3 1 0 38 5 1 1 1 2 1 0 36 4 1 2 2 15 2 32 4 
ELSE[ ]	/* Else */
MPPEM[ ]	/* MeasurePixelPerEm */
PUSHB[ ]	/* 1 value pushed */
232 
LT[ ]	/* LessThan */
IF[ ]	/* If */
NPUSHB[ ]	/* 42 values pushed */
13 1 3 0 1 30 5 1 1 0 2 1 1 0 35 0 0 0 3 2 0 3 1 0 38 5 1 1 1 2 1 0 36 4 1 2 1 2 1 0 33 5 
ELSE[ ]	/* Else */
NPUSHB[ ]	/* 49 values pushed */
13 1 3 0 1 30 0 1 5 2 1 1 0 35 0 0 0 3 4 0 3 1 0 38 0 5 0 4 2 5 4 0 0 38 0 1 1 2 1 0 36 0 2 1 2 1 0 33 6 
EIF[ ]	/* EndIf */
EIF[ ]	/* EndIf */
EIF[ ]	/* EndIf */
PUSHB[ ]	/* 1 value pushed */
56 
CALL[ ]	/* CallFunction */";
};
width = 681;
},
{
associatedMasterId = "2C516476-8145-48E3-8501-3D313ADE77C9";
layerId = "19446471-097F-4A60-BCBD-A83E9E72806D";
name = "Jan 15 23, 17:22";
paths = (
{
closed = 1;
nodes = (
"723 90 OFFCURVE",
"721 91 OFFCURVE",
"717 91 CURVE SMOOTH",
"713 91 OFFCURVE",
"707 93 OFFCURVE",
"699 94 CURVE SMOOTH",
"691 95 OFFCURVE",
"682 97 OFFCURVE",
"670 99 CURVE",
"492 338 LINE SMOOTH",
"484 349 OFFCURVE",
"475 359 OFFCURVE",
"466 366 CURVE SMOOTH",
"457 373 OFFCURVE",
"447 379 OFFCURVE",
"436 383 CURVE",
"444 387 OFFCURVE",
"452 393 OFFCURVE",
"459 399 CURVE SMOOTH",
"466 405 OFFCURVE",
"473 413 OFFCURVE",
"481 422 CURVE",
"644 624 LINE",
"656 626 OFFCURVE",
"666 628 OFFCURVE",
"674 629 CURVE SMOOTH",
"682 630 OFFCURVE",
"688 632 OFFCURVE",
"692 632 CURVE SMOOTH",
"696 632 OFFCURVE",
"698 633 OFFCURVE",
"700 633 CURVE",
"717 637 OFFCURVE",
"725 647 OFFCURVE",
"725 664 CURVE SMOOTH",
"725 723 LINE",
"649 723 LINE",
"624 723 LINE",
"459 723 LINE",
"459 664 LINE SMOOTH",
"459 647 OFFCURVE",
"467 637 OFFCURVE",
"484 633 CURVE",
"485 633 OFFCURVE",
"487 632 OFFCURVE",
"490 632 CURVE SMOOTH",
"493 632 OFFCURVE",
"495 631 OFFCURVE",
"497 631 CURVE",
"348 442 LINE SMOOTH",
"342 434 OFFCURVE",
"334 429 OFFCURVE",
"326 425 CURVE SMOOTH",
"318 421 OFFCURVE",
"308 420 OFFCURVE",
"295 420 CURVE SMOOTH",
"263 420 LINE",
"263 624 LINE",
"275 626 OFFCURVE",
"286 629 OFFCURVE",
"293 630 CURVE SMOOTH",
"300 631 OFFCURVE",
"305 631 OFFCURVE",
"308 632 CURVE",
"311 632 OFFCURVE",
"313 633 OFFCURVE",
"314 633 CURVE",
"331 637 OFFCURVE",
"339 648 OFFCURVE",
"339 665 CURVE SMOOTH",
"339 723 LINE",
"263 723 LINE",
"129 723 LINE",
"53 723 LINE",
"53 665 LINE SMOOTH",
"53 648 OFFCURVE",
"61 637 OFFCURVE",
"78 633 CURVE",
"79 633 OFFCURVE",
"81 632 OFFCURVE",
"84 632 CURVE SMOOTH",
"87 632 OFFCURVE",
"92 631 OFFCURVE",
"99 630 CURVE SMOOTH",
"106 629 OFFCURVE",
"117 626 OFFCURVE",
"129 624 CURVE",
"129 99 LINE",
"117 97 OFFCURVE",
"106 95 OFFCURVE",
"99 94 CURVE SMOOTH",
"92 93 OFFCURVE",
"87 92 OFFCURVE",
"84 91 CURVE SMOOTH",
"81 90 OFFCURVE",
"79 90 OFFCURVE",
"78 90 CURVE",
"61 86 OFFCURVE",
"53 76 OFFCURVE",
"53 59 CURVE SMOOTH",
"53 0 LINE",
"129 0 LINE",
"263 0 LINE",
"339 0 LINE",
"339 59 LINE SMOOTH",
"339 76 OFFCURVE",
"331 86 OFFCURVE",
"314 90 CURVE",
"313 90 OFFCURVE",
"311 91 OFFCURVE",
"308 91 CURVE SMOOTH",
"305 91 OFFCURVE",
"300 93 OFFCURVE",
"293 94 CURVE SMOOTH",
"286 95 OFFCURVE",
"275 97 OFFCURVE",
"263 99 CURVE",
"263 318 LINE",
"306 318 LINE SMOOTH",
"321 318 OFFCURVE",
"333 316 OFFCURVE",
"341 312 CURVE SMOOTH",
"349 308 OFFCURVE",
"357 303 OFFCURVE",
"364 294 CURVE SMOOTH",
"517 94 LINE",
"512 93 OFFCURVE",
"507 92 OFFCURVE",
"503 91 CURVE SMOOTH",
"499 90 OFFCURVE",
"496 90 OFFCURVE",
"495 90 CURVE",
"478 86 OFFCURVE",
"470 76 OFFCURVE",
"470 59 CURVE SMOOTH",
"470 0 LINE",
"624 0 LINE",
"636 0 LINE",
"675 0 LINE",
"743 0 LINE",
"750 0 LINE",
"750 59 LINE SMOOTH",
"750 76 OFFCURVE",
"742 86 OFFCURVE",
"725 90 CURVE"
);
}
);
userData = {
assembly = "NPUSHB[ ]	/* 14 values pushed */
31 30 29 28 27 25 18 16 8 6 2 0 6 7 
CALL[ ]	/* CallFunction */
MPPEM[ ]	/* MeasurePixelPerEm */
PUSHB[ ]	/* 1 value pushed */
94 
LT[ ]	/* LessThan */
IF[ ]	/* If */
NPUSHB[ ]	/* 30 values pushed */
12 1 3 0 1 30 0 0 0 3 2 0 3 1 0 38 5 1 1 1 11 31 4 1 2 2 12 2 32 4 
ELSE[ ]	/* Else */
MPPEM[ ]	/* MeasurePixelPerEm */
PUSHB[ ]	/* 1 value pushed */
232 
LT[ ]	/* LessThan */
IF[ ]	/* If */
NPUSHB[ ]	/* 42 values pushed */
12 1 3 0 1 30 5 1 1 0 2 1 1 0 35 0 0 0 3 2 0 3 1 0 38 5 1 1 1 2 1 0 36 4 1 2 1 2 1 0 33 5 
ELSE[ ]	/* Else */
NPUSHB[ ]	/* 49 values pushed */
12 1 3 0 1 30 0 1 5 2 1 1 0 35 0 0 0 3 4 0 3 1 0 38 0 5 0 4 2 5 4 0 0 38 0 1 1 2 1 0 36 0 2 1 2 1 0 33 6 
EIF[ ]	/* EndIf */
EIF[ ]	/* EndIf */
PUSHB[ ]	/* 1 value pushed */
56 
CALL[ ]	/* CallFunction */";
};
visible = 1;
width = 714;
},
{
anchors = (
{
name = bottom;
position = "{356, 0}";
},
{
name = top;
position = "{356, 717}";
}
);
associatedMasterId = "BF33A826-8254-4501-9165-758AB68FE84B";
components = (
{
name = SerifBottomLeft;
transform = "{1, 0, 0, 1, 97, 0}";
},
{
name = SerifBottomRight;
transform = "{1, 0, 0, 1, 195, 0}";
},
{
name = SerifSpurLeft;
transform = "{1, 0, 0, 1, 97, 717}";
},
{
name = SerifSpurRight;
transform = "{1, 0, 0, 1, 195, 717}";
},
{
name = SerifBottomLeft;
transform = "{1, 0, 0, 1, 514, 0}";
},
{
name = SerifBottomRight;
transform = "{1, 0, 0, 1, 605, 0}";
},
{
name = SerifSpurLeft;
transform = "{1, 0, 0, 1, 497, 717}";
},
{
name = SerifSpurRight;
transform = "{1, 0, 0, 1, 581, 717}";
}
);
layerId = "91753186-E1FF-4444-AA46-BB0F22A88384";
name = "Jan 25 23, 14:45";
paths = (
{
closed = 1;
nodes = (
"194 0 LINE",
"194 328 LINE",
"238 328 LINE SMOOTH",
"270.064 328 OFFCURVE",
"275.966 323.034 OFFCURVE",
"294 305 CURVE",
"541 21 LINE SMOOTH",
"552 8 OFFCURVE",
"562.772 0 OFFCURVE",
"585 0 CURVE SMOOTH",
"669 0 LINE",
"384 340 LINE SMOOTH",
"369 357 OFFCURVE",
"356.667 369.333 OFFCURVE",
"338 376 CURVE",
"351.333 382.667 OFFCURVE",
"364 393 OFFCURVE",
"377 408 CURVE SMOOTH",
"650 717 LINE",
"568 717 LINE SMOOTH",
"546.667 717 OFFCURVE",
"534 710 OFFCURVE",
"520 694 CURVE SMOOTH",
"282 424 LINE SMOOTH",
"268 408 OFFCURVE",
"255.333 403 OFFCURVE",
"230 403 CURVE SMOOTH",
"194 403 LINE",
"194 717 LINE",
"97 717 LINE",
"97 0 LINE"
);
},
{
closed = 1;
nodes = (
"608 0 LINE",
"608 32 LINE",
"486 32 LINE",
"486 0 LINE"
);
},
{
closed = 1;
nodes = (
"562 639 LINE",
"574 717 LINE",
"475 717 LINE",
"475 676 LINE",
"538 634 LINE"
);
}
);
userData = {
assembly = "NPUSHB[ ]	/* 14 values pushed */
34 33 32 31 30 28 19 17 9 7 2 0 6 7 
CALL[ ]	/* CallFunction */
MPPEM[ ]	/* MeasurePixelPerEm */
PUSHB[ ]	/* 1 value pushed */
95 
LT[ ]	/* LessThan */
IF[ ]	/* If */
NPUSHB[ ]	/* 30 values pushed */
13 1 3 0 1 30 0 0 0 3 2 0 3 1 0 38 5 1 1 1 11 31 4 1 2 2 12 2 32 4 
ELSE[ ]	/* Else */
MPPEM[ ]	/* MeasurePixelPerEm */
PUSHB[ ]	/* 1 value pushed */
108 
LT[ ]	/* LessThan */
IF[ ]	/* If */
NPUSHB[ ]	/* 32 values pushed */
13 1 3 0 1 30 0 0 0 3 2 0 3 1 0 38 5 1 1 1 2 1 0 36 4 1 2 2 15 2 32 4 
ELSE[ ]	/* Else */
MPPEM[ ]	/* MeasurePixelPerEm */
PUSHB[ ]	/* 1 value pushed */
232 
LT[ ]	/* LessThan */
IF[ ]	/* If */
NPUSHB[ ]	/* 42 values pushed */
13 1 3 0 1 30 5 1 1 0 2 1 1 0 35 0 0 0 3 2 0 3 1 0 38 5 1 1 1 2 1 0 36 4 1 2 1 2 1 0 33 5 
ELSE[ ]	/* Else */
NPUSHB[ ]	/* 49 values pushed */
13 1 3 0 1 30 0 1 5 2 1 1 0 35 0 0 0 3 4 0 3 1 0 38 0 5 0 4 2 5 4 0 0 38 0 1 1 2 1 0 36 0 2 1 2 1 0 33 6 
EIF[ ]	/* EndIf */
EIF[ ]	/* EndIf */
EIF[ ]	/* EndIf */
PUSHB[ ]	/* 1 value pushed */
56 
CALL[ ]	/* CallFunction */";
};
width = 681;
},
{
anchors = (
{
name = bottom;
position = "{369, 0}";
},
{
name = top;
position = "{369, 729}";
}
);
associatedMasterId = "2C516476-8145-48E3-8501-3D313ADE77C9";
components = (
{
name = SerifBottomLeft;
transform = "{1, 0, 0, 1, 87, 0}";
},
{
name = SerifBottomRight;
transform = "{1, 0, 0, 1, 257, 0}";
},
{
name = SerifSpurLeft;
transform = "{1, 0, 0, 1, 117, 729}";
},
{
name = SerifSpurRight;
transform = "{1, 0, 0, 1, 257, 729}";
},
{
name = SerifBottomLeft;
transform = "{1, 0, 0, 1, 497, 0}";
},
{
name = SerifBottomRight;
transform = "{1, 0, 0, 1, 664, 0}";
},
{
name = SerifSpurLeft;
transform = "{1, 0, 0, 1, 517, 729}";
},
{
name = SerifSpurRight;
transform = "{1, 0, 0, 1, 645, 729}";
}
);
layerId = "AFC921C5-4C36-4E60-90BC-2508A1F8164B";
name = "Jan 25 23, 14:45";
paths = (
{
closed = 1;
nodes = (
"257 0 LINE",
"257 310 LINE",
"298 310 LINE SMOOTH",
"330 310 OFFCURVE",
"346 304 OFFCURVE",
"358 285 CURVE SMOOTH",
"523 31 LINE SMOOTH",
"538 9 OFFCURVE",
"553 0 OFFCURVE",
"589 0 CURVE SMOOTH",
"740 0 LINE",
"520 338 LINE SMOOTH",
"502 366 OFFCURVE",
"482 381 OFFCURVE",
"457 390 CURVE",
"474 399 OFFCURVE",
"491 413 OFFCURVE",
"506 434 CURVE SMOOTH",
"722 729 LINE",
"575 729 LINE SMOOTH",
"542 729 OFFCURVE",
"520 722 OFFCURVE",
"502 695 CURVE SMOOTH",
"338 457 LINE SMOOTH",
"327 442 OFFCURVE",
"309 434 OFFCURVE",
"284 434 CURVE SMOOTH",
"257 434 LINE",
"257 729 LINE",
"87 729 LINE",
"87 0 LINE"
);
},
{
closed = 1;
nodes = (
"608 0 LINE",
"608 71 LINE",
"486 71 LINE",
"486 0 LINE"
);
},
{
closed = 1;
nodes = (
"644 612 LINE",
"667 729 LINE",
"482 729 LINE",
"482 688 LINE",
"605 604 LINE"
);
}
);
userData = {
assembly = "NPUSHB[ ]	/* 14 values pushed */
31 30 29 28 27 25 18 16 8 6 2 0 6 7 
CALL[ ]	/* CallFunction */
MPPEM[ ]	/* MeasurePixelPerEm */
PUSHB[ ]	/* 1 value pushed */
94 
LT[ ]	/* LessThan */
IF[ ]	/* If */
NPUSHB[ ]	/* 30 values pushed */
12 1 3 0 1 30 0 0 0 3 2 0 3 1 0 38 5 1 1 1 11 31 4 1 2 2 12 2 32 4 
ELSE[ ]	/* Else */
MPPEM[ ]	/* MeasurePixelPerEm */
PUSHB[ ]	/* 1 value pushed */
232 
LT[ ]	/* LessThan */
IF[ ]	/* If */
NPUSHB[ ]	/* 42 values pushed */
12 1 3 0 1 30 5 1 1 0 2 1 1 0 35 0 0 0 3 2 0 3 1 0 38 5 1 1 1 2 1 0 36 4 1 2 1 2 1 0 33 5 
ELSE[ ]	/* Else */
NPUSHB[ ]	/* 49 values pushed */
12 1 3 0 1 30 0 1 5 2 1 1 0 35 0 0 0 3 4 0 3 1 0 38 0 5 0 4 2 5 4 0 0 38 0 1 1 2 1 0 36 0 2 1 2 1 0 33 6 
EIF[ ]	/* EndIf */
EIF[ ]	/* EndIf */
PUSHB[ ]	/* 1 value pushed */
56 
CALL[ ]	/* CallFunction */";
};
width = 803;
}
);
leftMetricsKey = H;
note = K;
rightKerningGroup = K;
rightMetricsKey = X;
unicode = 004B;
},
{
glyphname = Khook;
layers = (
{
anchors = (
{
name = bottom;
position = "{344, 0}";
},
{
name = top;
position = "{344, 700}";
}
);
components = (
{
name = SerifBottomLeft;
transform = "{1, 0, 0, 1, 124, 0}";
},
{
name = SerifBottomRight;
transform = "{1, 0, 0, 1, 136, 0}";
},
{
name = SerifSpurLeft;
transform = "{1, 0, 0, 1, 124, 700}";
},
{
name = SerifSpurRight;
transform = "{1, 0, 0, 1, 136, 700}";
},
{
name = SerifBottomRight;
transform = "{1, 0, 0, 1, 600, 0}";
}
);
layerId = "A1468767-BE48-4A45-9F09-053256197B3B";
paths = (
{
closed = 1;
nodes = (
"136 0 LINE",
"136 352 LINE",
"192 352 LINE SMOOTH",
"222.834 352 OFFCURVE",
"230 345 OFFCURVE",
"248 327 CURVE SMOOTH",
"579 7 LINE SMOOTH",
"584 2 OFFCURVE",
"587.667 0 OFFCURVE",
"597 0 CURVE SMOOTH",
"602 0 LINE",
"255 337 LINE SMOOTH",
"242 350 OFFCURVE",
"231 355.333 OFFCURVE",
"215 358 CURVE",
"228.333 362 OFFCURVE",
"237 367 OFFCURVE",
"246 380 CURVE SMOOTH",
"447 643 LINE SMOOTH",
"478 680 OFFCURVE",
"510.333 697 OFFCURVE",
"553 697 CURVE SMOOTH",
"573 697 OFFCURVE",
"590 694 OFFCURVE",
"603 689 CURVE SMOOTH",
"611 685 OFFCURVE",
"616 684 OFFCURVE",
"617 690 CURVE SMOOTH",
"618 694 LINE",
"599.333 702 OFFCURVE",
"578 707 OFFCURVE",
"554 707 CURVE SMOOTH",
"503 707 OFFCURVE",
"467 686 OFFCURVE",
"439 649 CURVE SMOOTH",
"237 384 LINE",
"219.15 363.6 OFFCURVE",
"210 362 OFFCURVE",
"183 362 CURVE SMOOTH",
"136 362 LINE",
"136 701 LINE",
"124 701 LINE",
"124 0 LINE"
);
},
{
closed = 1;
nodes = (
"598 12 LINE",
"574 13 LINE",
"597 0 LINE"
);
}
);
width = 707;
},
{
anchors = (
{
name = bottom;
position = "{364, 0}";
},
{
name = top;
position = "{364, 717}";
}
);
components = (
{
name = SerifBottomLeft;
transform = "{1, 0, 0, 1, 105, 0}";
},
{
name = SerifBottomRight;
transform = "{1, 0, 0, 1, 203, 0}";
},
{
name = SerifSpurLeft;
transform = "{1, 0, 0, 1, 105, 717}";
},
{
name = SerifSpurRight;
transform = "{1, 0, 0, 1, 203, 717}";
},
{
name = SerifBottomRight;
transform = "{1, 0, 0, 1, 623, 0}";
}
);
layerId = "BF33A826-8254-4501-9165-758AB68FE84B";
paths = (
{
closed = 1;
nodes = (
"202 0 LINE",
"202 328 LINE",
"250 328 LINE SMOOTH",
"282.493 328 OFFCURVE",
"291.133 320.867 OFFCURVE",
"309 303 CURVE SMOOTH",
"550 21 LINE SMOOTH",
"558.268 7.219 OFFCURVE",
"572.399 0 OFFCURVE",
"594 0 CURVE SMOOTH",
"678 0 LINE",
"399 338 LINE SMOOTH",
"383 358 OFFCURVE",
"368.333 370.333 OFFCURVE",
"347 377 CURVE",
"364.333 383.667 OFFCURVE",
"380 397.333 OFFCURVE",
"392 416 CURVE SMOOTH",
"522 601 LINE SMOOTH",
"542 631.667 OFFCURVE",
"572.667 648 OFFCURVE",
"610 648 CURVE SMOOTH",
"624.667 648 OFFCURVE",
"640.333 646 OFFCURVE",
"651 642 CURVE SMOOTH",
"663.39 638.902 OFFCURVE",
"678.541 641.784 OFFCURVE",
"681 659 CURVE SMOOTH",
"690 708 LINE",
"670 717.333 OFFCURVE",
"645 723 OFFCURVE",
"605 723 CURVE SMOOTH",
"530.333 723 OFFCURVE",
"475.333 698.667 OFFCURVE",
"434 632 CURVE",
"294 428 LINE SMOOTH",
"279.333 406.667 OFFCURVE",
"264.333 403 OFFCURVE",
"239 403 CURVE SMOOTH",
"202 403 LINE",
"202 717 LINE",
"106 717 LINE",
"106 0 LINE"
);
},
{
closed = 1;
nodes = (
"604 78 LINE",
"545 91 LINE",
"593 0 LINE"
);
}
);
width = 715;
},
{
anchors = (
{
name = bottom;
position = "{379, 0}";
},
{
name = top;
position = "{379, 729}";
}
);
components = (
{
name = SerifBottomLeft;
transform = "{1, 0, 0, 1, 97, 0}";
},
{
name = SerifBottomRight;
transform = "{1, 0, 0, 1, 267, 0}";
},
{
name = SerifSpurLeft;
transform = "{1, 0, 0, 1, 127, 729}";
},
{
name = SerifSpurRight;
transform = "{1, 0, 0, 1, 267, 729}";
},
{
name = SerifBottomRight;
transform = "{1, 0, 0, 1, 674, 0}";
}
);
layerId = "2C516476-8145-48E3-8501-3D313ADE77C9";
paths = (
{
closed = 1;
nodes = (
"266 0 LINE",
"266 310 LINE",
"307 310 LINE SMOOTH",
"337.667 310 OFFCURVE",
"354 304 OFFCURVE",
"367 284 CURVE SMOOTH",
"532 31 LINE SMOOTH",
"546 9 OFFCURVE",
"561.965 0 OFFCURVE",
"598 0 CURVE SMOOTH",
"749 0 LINE",
"529 338 LINE SMOOTH",
"512 365 OFFCURVE",
"489.333 381.333 OFFCURVE",
"464 390 CURVE",
"488 402 OFFCURVE",
"508 418.667 OFFCURVE",
"524 444 CURVE SMOOTH",
"592 570 LINE SMOOTH",
"604 593 OFFCURVE",
"631.667 610 OFFCURVE",
"665 610 CURVE SMOOTH",
"677 610 OFFCURVE",
"690 607 OFFCURVE",
"698 607 CURVE SMOOTH",
"720 606 OFFCURVE",
"735.661 608.091 OFFCURVE",
"743 635 CURVE SMOOTH",
"758 719 LINE",
"736.667 728.333 OFFCURVE",
"708 735 OFFCURVE",
"656 735 CURVE SMOOTH",
"559.249 735 OFFCURVE",
"487 708 OFFCURVE",
"438 620 CURVE SMOOTH",
"350 461 LINE SMOOTH",
"336.667 441 OFFCURVE",
"318.333 434 OFFCURVE",
"293 434 CURVE SMOOTH",
"266 434 LINE",
"266 729 LINE",
"97 729 LINE",
"97 0 LINE"
);
},
{
closed = 1;
nodes = (
"673 117 LINE",
"598 131 LINE",
"654 0 LINE"
);
}
);
width = 759;
}
);
unicode = 0198;
},
{
glyphname = L;
layers = (
{
anchors = (
{
name = bottom;
position = "{289, 0}";
},
{
name = center;
position = "{130, 357}";
},
{
name = top;
position = "{130, 700}";
}
);
components = (
{
name = SerifUpLeftCaps;
transform = "{1, 0, 0, 1, 503, 11}";
},
{
name = SerifBottomLeft;
transform = "{1, 0, 0, 1, 124, 0}";
},
{
name = SerifSpurLeft;
transform = "{1, 0, 0, 1, 124, 700}";
},
{
name = SerifSpurRight;
transform = "{1, 0, 0, 1, 136, 700}";
}
);
layerId = "A1468767-BE48-4A45-9F09-053256197B3B";
paths = (
{
closed = 1;
nodes = (
"503 0 LINE",
"503 11 LINE",
"136 11 LINE",
"136 700 LINE",
"124 700 LINE",
"124 0 LINE"
);
}
);
userData = {
assembly = "PUSHW[ ]	/* 4 values pushed */
0 3 3 4 
CALL[ ]	/* CallFunction */
SVTCA[0]	/* SetFreedomAndProjectionVectorToAxis */
PUSHW[ ]	/* 1 value pushed */
0 
RCVT[ ]	/* ReadCVT */
IF[ ]	/* If */
PUSHW[ ]	/* 1 value pushed */
4 
MDAP[1]	/* MoveDirectAbsPt */
ELSE[ ]	/* Else */
PUSHW[ ]	/* 2 values pushed */
4 11 
MIAP[0]	/* MoveIndirectAbsPt */
EIF[ ]	/* EndIf */
PUSHW[ ]	/* 1 value pushed */
0 
RCVT[ ]	/* ReadCVT */
IF[ ]	/* If */
PUSHW[ ]	/* 1 value pushed */
2 
MDAP[1]	/* MoveDirectAbsPt */
ELSE[ ]	/* Else */
PUSHW[ ]	/* 2 values pushed */
2 5 
MIAP[0]	/* MoveIndirectAbsPt */
EIF[ ]	/* EndIf */
PUSHW[ ]	/* 2 values pushed */
0 1 
MIRP[10100]	/* MoveIndirectRelPt */
IUP[0]	/* InterpolateUntPts */
IUP[1]	/* InterpolateUntPts */";
};
width = 513;
},
{
anchors = (
{
name = bottom;
position = "{303, 0}";
},
{
name = center;
position = "{180, 357}";
},
{
name = top;
position = "{189, 729}";
}
);
components = (
{
name = SerifUpLeftCaps;
transform = "{1, 0, 0, 1, 547, 135}";
},
{
name = SerifBottomLeft;
transform = "{1, 0, 0, 1, 97, 0}";
},
{
name = SerifSpurLeft;
transform = "{1, 0, 0, 1, 127, 729}";
},
{
name = SerifSpurRight;
transform = "{1, 0, 0, 1, 267, 729}";
}
);
layerId = "2C516476-8145-48E3-8501-3D313ADE77C9";
paths = (
{
closed = 1;
nodes = (
"547 0 LINE",
"547 135 LINE",
"267 135 LINE",
"267 729 LINE",
"97 729 LINE",
"97 0 LINE"
);
}
);
userData = {
assembly = "NPUSHB[ ]	/* 8 values pushed */
5 4 3 2 1 0 3 7 
CALL[ ]	/* CallFunction */
MPPEM[ ]	/* MeasurePixelPerEm */
PUSHB[ ]	/* 1 value pushed */
94 
LT[ ]	/* LessThan */
IF[ ]	/* If */
NPUSHB[ ]	/* 19 values pushed */
0 2 2 11 31 0 0 0 1 0 2 36 0 1 1 12 1 32 3 
ELSE[ ]	/* Else */
NPUSHB[ ]	/* 28 values pushed */
0 2 0 2 52 0 0 1 1 0 0 0 35 0 0 0 1 0 2 36 0 1 0 1 0 2 33 4 
EIF[ ]	/* EndIf */
PUSHB[ ]	/* 1 value pushed */
56 
CALL[ ]	/* CallFunction */";
};
width = 557;
},
{
anchors = (
{
name = bottom;
position = "{310, 0}";
},
{
name = center;
position = "{157, 357}";
},
{
name = top;
position = "{162, 717}";
}
);
components = (
{
name = SerifUpLeftCaps;
transform = "{1, 0, 0, 1, 536, 82}";
},
{
name = SerifBottomLeft;
transform = "{1, 0, 0, 1, 105, 0}";
},
{
name = SerifSpurLeft;
transform = "{1, 0, 0, 1, 105, 717}";
},
{
name = SerifSpurRight;
transform = "{1, 0, 0, 1, 204, 717}";
}
);
layerId = "BF33A826-8254-4501-9165-758AB68FE84B";
paths = (
{
closed = 1;
nodes = (
"536 0 LINE",
"536 82 LINE",
"203 82 LINE",
"203 717 LINE",
"105 717 LINE",
"105 0 LINE"
);
}
);
userData = {
assembly = "NPUSHB[ ]	/* 8 values pushed */
5 4 3 2 1 0 3 7 
CALL[ ]	/* CallFunction */
MPPEM[ ]	/* MeasurePixelPerEm */
PUSHB[ ]	/* 1 value pushed */
95 
LT[ ]	/* LessThan */
IF[ ]	/* If */
NPUSHB[ ]	/* 19 values pushed */
0 2 2 11 31 0 0 0 1 0 2 36 0 1 1 12 1 32 3 
ELSE[ ]	/* Else */
MPPEM[ ]	/* MeasurePixelPerEm */
PUSHB[ ]	/* 1 value pushed */
108 
LT[ ]	/* LessThan */
IF[ ]	/* If */
NPUSHB[ ]	/* 19 values pushed */
0 2 0 2 52 0 0 0 1 0 2 36 0 1 1 15 1 32 3 
ELSE[ ]	/* Else */
NPUSHB[ ]	/* 28 values pushed */
0 2 0 2 52 0 0 1 1 0 0 0 35 0 0 0 1 0 2 36 0 1 0 1 0 2 33 4 
EIF[ ]	/* EndIf */
EIF[ ]	/* EndIf */
PUSHB[ ]	/* 1 value pushed */
56 
CALL[ ]	/* CallFunction */";
};
width = 546;
},
{
associatedMasterId = "A1468767-BE48-4A45-9F09-053256197B3B";
layerId = "BC6443AD-7598-4479-8678-F147E97A2B48";
name = "Jan 15 23, 17:22";
paths = (
{
closed = 1;
nodes = (
"538 0 LINE",
"538 44 LINE",
"194 44 LINE",
"194 708 LINE",
"143 708 LINE",
"143 0 LINE"
);
},
{
closed = 1;
nodes = (
"538 131 LINE",
"514 131 LINE SMOOTH",
"500 131 OFFCURVE",
"494 122 OFFCURVE",
"493 106 CURVE",
"486 21 LINE",
"538 0 LINE"
);
},
{
closed = 1;
nodes = (
"183 668 LINE",
"259 670 LINE",
"271 671 OFFCURVE",
"278 675 OFFCURVE",
"278 688 CURVE SMOOTH",
"278 708 LINE SMOOTH",
"58 708 LINE",
"58 688 LINE SMOOTH",
"58 675 OFFCURVE",
"65 671 OFFCURVE",
"77 670 CURVE",
"156 668 LINE"
);
},
{
closed = 1;
nodes = (
"249 0 LINE",
"249 20 LINE SMOOTH",
"249 33 OFFCURVE",
"242 37 OFFCURVE",
"230 38 CURVE",
"167 40 LINE",
"140 40 LINE",
"77 38 LINE",
"65 37 OFFCURVE",
"58 33 OFFCURVE",
"58 20 CURVE SMOOTH",
"58 0 LINE SMOOTH"
);
}
);
userData = {
assembly = "PUSHW[ ]	/* 4 values pushed */
0 3 3 4 
CALL[ ]	/* CallFunction */
SVTCA[0]	/* SetFreedomAndProjectionVectorToAxis */
PUSHW[ ]	/* 1 value pushed */
0 
RCVT[ ]	/* ReadCVT */
IF[ ]	/* If */
PUSHW[ ]	/* 1 value pushed */
4 
MDAP[1]	/* MoveDirectAbsPt */
ELSE[ ]	/* Else */
PUSHW[ ]	/* 2 values pushed */
4 11 
MIAP[0]	/* MoveIndirectAbsPt */
EIF[ ]	/* EndIf */
PUSHW[ ]	/* 1 value pushed */
0 
RCVT[ ]	/* ReadCVT */
IF[ ]	/* If */
PUSHW[ ]	/* 1 value pushed */
2 
MDAP[1]	/* MoveDirectAbsPt */
ELSE[ ]	/* Else */
PUSHW[ ]	/* 2 values pushed */
2 5 
MIAP[0]	/* MoveIndirectAbsPt */
EIF[ ]	/* EndIf */
PUSHW[ ]	/* 2 values pushed */
0 1 
MIRP[10100]	/* MoveIndirectRelPt */
IUP[0]	/* InterpolateUntPts */
IUP[1]	/* InterpolateUntPts */";
};
width = 509;
},
{
associatedMasterId = "BF33A826-8254-4501-9165-758AB68FE84B";
layerId = "E55FC44E-C842-4061-A788-6D9B21C491B7";
name = "Jan 15 23, 17:22";
paths = (
{
closed = 1;
nodes = (
"512 156 LINE",
"463 156 LINE SMOOTH",
"453 156 OFFCURVE",
"444 149 OFFCURVE",
"442 139 CURVE",
"441 135 OFFCURVE",
"438 110 OFFCURVE",
"436 82 CURVE",
"178 82 LINE",
"178 644 LINE",
"180 644 OFFCURVE",
"227 653 OFFCURVE",
"235 655 CURVE SMOOTH",
"244 657 OFFCURVE",
"250 665 OFFCURVE",
"250 674 CURVE SMOOTH",
"250 716 LINE",
"178 716 LINE",
"178 716 LINE",
"82 716 LINE",
"10 716 LINE",
"10 674 LINE SMOOTH",
"10 665 OFFCURVE",
"16 657 OFFCURVE",
"25 655 CURVE SMOOTH",
"34 653 OFFCURVE",
"82 644 OFFCURVE",
"82 644 CURVE",
"82 73 LINE",
"82 73 OFFCURVE",
"34 64 OFFCURVE",
"25 62 CURVE SMOOTH",
"16 60 OFFCURVE",
"10 52 OFFCURVE",
"10 43 CURVE SMOOTH",
"10 0 LINE",
"82 0 LINE",
"480 0 LINE",
"488 0 LINE",
"512 0 LINE"
);
}
);
userData = {
assembly = "NPUSHB[ ]	/* 8 values pushed */
5 4 3 2 1 0 3 7 
CALL[ ]	/* CallFunction */
MPPEM[ ]	/* MeasurePixelPerEm */
PUSHB[ ]	/* 1 value pushed */
95 
LT[ ]	/* LessThan */
IF[ ]	/* If */
NPUSHB[ ]	/* 19 values pushed */
0 2 2 11 31 0 0 0 1 0 2 36 0 1 1 12 1 32 3 
ELSE[ ]	/* Else */
MPPEM[ ]	/* MeasurePixelPerEm */
PUSHB[ ]	/* 1 value pushed */
108 
LT[ ]	/* LessThan */
IF[ ]	/* If */
NPUSHB[ ]	/* 19 values pushed */
0 2 0 2 52 0 0 0 1 0 2 36 0 1 1 15 1 32 3 
ELSE[ ]	/* Else */
NPUSHB[ ]	/* 28 values pushed */
0 2 0 2 52 0 0 1 1 0 0 0 35 0 0 0 1 0 2 36 0 1 0 1 0 2 33 4 
EIF[ ]	/* EndIf */
EIF[ ]	/* EndIf */
PUSHB[ ]	/* 1 value pushed */
56 
CALL[ ]	/* CallFunction */";
};
width = 522;
},
{
associatedMasterId = "2C516476-8145-48E3-8501-3D313ADE77C9";
layerId = "AE8B14EF-591B-4D59-A826-5F03A60067C5";
name = "Jan 15 23, 17:22";
paths = (
{
closed = 1;
nodes = (
"480 173 LINE SMOOTH",
"467 173 OFFCURVE",
"460 166 OFFCURVE",
"457 154 CURVE SMOOTH",
"456 150 OFFCURVE",
"455 136 OFFCURVE",
"453 111 CURVE",
"220 111 LINE",
"220 624 LINE",
"232 626 OFFCURVE",
"243 628 OFFCURVE",
"250 629 CURVE SMOOTH",
"257 630 OFFCURVE",
"262 631 OFFCURVE",
"265 632 CURVE SMOOTH",
"268 633 OFFCURVE",
"270 633 OFFCURVE",
"271 633 CURVE",
"288 637 OFFCURVE",
"296 647 OFFCURVE",
"296 664 CURVE SMOOTH",
"296 723 LINE",
"220 723 LINE",
"86 723 LINE",
"10 723 LINE",
"10 664 LINE SMOOTH",
"10 647 OFFCURVE",
"18 637 OFFCURVE",
"35 633 CURVE",
"36 633 OFFCURVE",
"38 633 OFFCURVE",
"41 632 CURVE",
"44 632 OFFCURVE",
"49 630 OFFCURVE",
"56 629 CURVE SMOOTH",
"63 628 OFFCURVE",
"74 626 OFFCURVE",
"86 624 CURVE",
"86 99 LINE",
"74 97 OFFCURVE",
"63 95 OFFCURVE",
"56 94 CURVE SMOOTH",
"49 93 OFFCURVE",
"44 92 OFFCURVE",
"41 91 CURVE SMOOTH",
"38 90 OFFCURVE",
"36 90 OFFCURVE",
"35 90 CURVE",
"18 86 OFFCURVE",
"10 76 OFFCURVE",
"10 59 CURVE SMOOTH",
"10 0 LINE",
"86 0 LINE",
"507 0 LINE",
"510 0 LINE",
"534 0 LINE",
"534 53 LINE",
"534 72 LINE",
"534 173 LINE"
);
}
);
userData = {
assembly = "NPUSHB[ ]	/* 8 values pushed */
5 4 3 2 1 0 3 7 
CALL[ ]	/* CallFunction */
MPPEM[ ]	/* MeasurePixelPerEm */
PUSHB[ ]	/* 1 value pushed */
94 
LT[ ]	/* LessThan */
IF[ ]	/* If */
NPUSHB[ ]	/* 19 values pushed */
0 2 2 11 31 0 0 0 1 0 2 36 0 1 1 12 1 32 3 
ELSE[ ]	/* Else */
NPUSHB[ ]	/* 28 values pushed */
0 2 0 2 52 0 0 1 1 0 0 0 35 0 0 0 1 0 2 36 0 1 0 1 0 2 33 4 
EIF[ ]	/* EndIf */
PUSHB[ ]	/* 1 value pushed */
56 
CALL[ ]	/* CallFunction */";
};
width = 544;
}
);
leftMetricsKey = H;
note = L;
rightKerningGroup = L;
rightMetricsKey = L;
unicode = 004C;
},
